<mxfile host="Electron" modified="2023-11-30T17:59:56.250Z" agent="Mozilla/5.0 (X11; Linux x86_64) AppleWebKit/537.36 (KHTML, like Gecko) draw.io/22.1.2 Chrome/114.0.5735.289 Electron/25.9.4 Safari/537.36" etag="H4UEGueV3idST995i__-" version="22.1.2" type="device">
  <diagram name="План этажа" id="АЛУ_а4">
    <mxGraphModel dx="1671" dy="-194" grid="1" gridSize="10" guides="0" tooltips="1" connect="1" arrows="1" fold="1" page="1" pageScale="1" pageWidth="827" pageHeight="1169" background="none" math="0" shadow="0">
      <root>
        <mxCell id="0" />
        <mxCell id="1" style="locked=1;" parent="0" />
        <mxCell id="aFtEZMVyqw2GVVvH-SNo-197" value="" style="group;movable=0;resizable=0;rotatable=0;deletable=0;editable=0;locked=1;connectable=0;" parent="1" vertex="1" connectable="0">
          <mxGeometry x="80" y="1180" width="740" height="948" as="geometry" />
        </mxCell>
        <UserObject label="" tags="Фон" id="21">
          <mxCell style="vsdxID=47;fillColor=none;gradientColor=none;shape=stencil(nZBLDoAgDERP0z3SIyjew0SURgSD+Lu9kMZoXLhwN9O+tukAlrNpJg1SzDH4QW/URgNYgZTkjA4UkwJUgGXng+6DX1zLfmoymdXo17xh5zmRJ6Q42BWCfc2oJfdAr+Yv+AP9Cb7OJ3H/2JG1HNGz/84klThPVCc=);strokeColor=#000000;strokeWidth=4;points=[];labelBackgroundColor=none;rounded=0;html=1;whiteSpace=wrap;movable=0;resizable=0;rotatable=0;deletable=0;editable=0;locked=1;connectable=0;" parent="aFtEZMVyqw2GVVvH-SNo-197" vertex="1">
            <mxGeometry width="740" height="948" as="geometry" />
          </mxCell>
        </UserObject>
        <UserObject label="" tags="Фон" id="2">
          <mxCell style="vsdxID=2;fillColor=#FFFFFF;gradientColor=none;shape=stencil(nY9LDoAgDERP0z3SI/i5BwkoRAUC+Lu9kGo0Lt3NtK/tFLCOWngFnMUU3Kg2I5MGbIBzY7UKJmUF2ALWvQtqCG6xkrwXhSxqdmvZsNNcxViZ4ewgT64jdDL2hf4E7wsXmsWThd549765c4l+xvYE);strokeColor=#000000;strokeWidth=4;spacingTop=-1;spacingBottom=-1;spacingLeft=-1;spacingRight=-1;points=[];labelBackgroundColor=#ffffff;rounded=0;html=1;whiteSpace=wrap;movable=0;resizable=0;rotatable=0;deletable=0;editable=0;locked=1;connectable=0;" parent="1" vertex="1">
            <mxGeometry x="80" y="2127" width="740" height="199" as="geometry" />
          </mxCell>
        </UserObject>
        <UserObject label="" tags="Фон" id="24">
          <mxCell style="vsdxID=3;edgeStyle=none;startArrow=none;endArrow=none;startSize=5;endSize=5;strokeWidth=4;strokeColor=#000000;spacingTop=-1;spacingBottom=-1;spacingLeft=-1;spacingRight=-1;verticalAlign=middle;html=1;labelBackgroundColor=#ffffff;rounded=0;movable=0;resizable=0;rotatable=0;deletable=0;editable=0;locked=1;connectable=0;" parent="1" edge="1">
            <mxGeometry relative="1" as="geometry">
              <Array as="points" />
              <mxPoint x="820" y="2187" as="sourcePoint" />
              <mxPoint x="340" y="2187" as="targetPoint" />
            </mxGeometry>
          </mxCell>
        </UserObject>
        <UserObject label="" tags="Фон" id="25">
          <mxCell style="vsdxID=4;edgeStyle=none;startArrow=none;endArrow=none;startSize=5;endSize=5;strokeWidth=4;strokeColor=#000000;spacingTop=-1;spacingBottom=-1;spacingLeft=-1;spacingRight=-1;verticalAlign=middle;html=1;labelBackgroundColor=#ffffff;rounded=0;movable=0;resizable=0;rotatable=0;deletable=0;editable=0;locked=1;connectable=0;" parent="1" edge="1">
            <mxGeometry relative="1" as="geometry">
              <Array as="points" />
              <mxPoint x="340" y="2127" as="sourcePoint" />
              <mxPoint x="340" y="2327" as="targetPoint" />
            </mxGeometry>
          </mxCell>
        </UserObject>
        <UserObject label="" tags="Фон" id="26">
          <mxCell style="vsdxID=5;edgeStyle=none;startArrow=none;endArrow=none;startSize=5;endSize=5;strokeWidth=4;strokeColor=#000000;spacingTop=-1;spacingBottom=-1;spacingLeft=-1;spacingRight=-1;verticalAlign=middle;html=1;labelBackgroundColor=#ffffff;rounded=0;movable=0;resizable=0;rotatable=0;deletable=0;editable=0;locked=1;connectable=0;" parent="1" edge="1">
            <mxGeometry relative="1" as="geometry">
              <Array as="points" />
              <mxPoint x="820" y="2287" as="sourcePoint" />
              <mxPoint x="340" y="2287" as="targetPoint" />
            </mxGeometry>
          </mxCell>
        </UserObject>
        <UserObject label="" tags="Фон" id="27">
          <mxCell style="vsdxID=6;edgeStyle=none;startArrow=none;endArrow=none;startSize=5;endSize=5;strokeWidth=4;strokeColor=#000000;spacingTop=-1;spacingBottom=-1;spacingLeft=-1;spacingRight=-1;verticalAlign=middle;html=1;labelBackgroundColor=#ffffff;rounded=0;movable=0;resizable=0;rotatable=0;deletable=0;editable=0;locked=1;connectable=0;" parent="1" edge="1">
            <mxGeometry relative="1" as="geometry">
              <Array as="points" />
              <mxPoint x="620" y="2187" as="sourcePoint" />
              <mxPoint x="620" y="2327" as="targetPoint" />
            </mxGeometry>
          </mxCell>
        </UserObject>
        <UserObject label="" tags="Фон" id="28">
          <mxCell style="vsdxID=7;edgeStyle=none;startArrow=none;endArrow=none;startSize=5;endSize=5;strokeWidth=4;strokeColor=#000000;spacingTop=-1;spacingBottom=-1;spacingLeft=-1;spacingRight=-1;verticalAlign=middle;html=1;labelBackgroundColor=#ffffff;rounded=0;movable=0;resizable=0;rotatable=0;deletable=0;editable=0;locked=1;connectable=0;" parent="1" edge="1">
            <mxGeometry relative="1" as="geometry">
              <mxPoint as="offset" />
              <Array as="points" />
              <mxPoint x="620" y="2207" as="sourcePoint" />
              <mxPoint x="820" y="2207" as="targetPoint" />
            </mxGeometry>
          </mxCell>
        </UserObject>
        <UserObject label="" tags="Фон" id="29">
          <mxCell style="vsdxID=8;edgeStyle=none;startArrow=none;endArrow=none;startSize=5;endSize=5;strokeWidth=4;strokeColor=#000000;spacingTop=-1;spacingBottom=-1;spacingLeft=-1;spacingRight=-1;verticalAlign=middle;html=1;labelBackgroundColor=#ffffff;rounded=0;movable=0;resizable=0;rotatable=0;deletable=0;editable=0;locked=1;connectable=0;" parent="1" edge="1">
            <mxGeometry relative="1" as="geometry">
              <mxPoint as="offset" />
              <Array as="points" />
              <mxPoint x="620" y="2267" as="sourcePoint" />
              <mxPoint x="820" y="2267" as="targetPoint" />
            </mxGeometry>
          </mxCell>
        </UserObject>
        <UserObject label="" tags="Фон" id="30">
          <mxCell style="vsdxID=9;edgeStyle=none;startArrow=none;endArrow=none;startSize=5;endSize=5;strokeWidth=4;strokeColor=#000000;spacingTop=-1;spacingBottom=-1;spacingLeft=-1;spacingRight=-1;verticalAlign=middle;html=1;labelBackgroundColor=#ffffff;rounded=0;movable=0;resizable=0;rotatable=0;deletable=0;editable=0;locked=1;connectable=0;" parent="1" edge="1">
            <mxGeometry relative="1" as="geometry">
              <Array as="points" />
              <mxPoint x="680" y="2187" as="sourcePoint" />
              <mxPoint x="680" y="2267" as="targetPoint" />
            </mxGeometry>
          </mxCell>
        </UserObject>
        <UserObject label="" tags="Фон" id="31">
          <mxCell style="vsdxID=10;edgeStyle=none;startArrow=none;endArrow=none;startSize=5;endSize=5;strokeColor=#000000;spacingTop=-1;spacingBottom=-1;spacingLeft=-1;spacingRight=-1;verticalAlign=middle;html=1;labelBackgroundColor=#ffffff;rounded=0;movable=0;resizable=0;rotatable=0;deletable=0;editable=0;locked=1;connectable=0;" parent="1" edge="1">
            <mxGeometry relative="1" as="geometry">
              <Array as="points" />
              <mxPoint x="640" y="2207" as="sourcePoint" />
              <mxPoint x="640" y="2267" as="targetPoint" />
            </mxGeometry>
          </mxCell>
        </UserObject>
        <UserObject label="" tags="Фон" id="32">
          <mxCell style="vsdxID=11;edgeStyle=none;startArrow=none;endArrow=none;startSize=5;endSize=5;strokeColor=#000000;spacingTop=-1;spacingBottom=-1;spacingLeft=-1;spacingRight=-1;verticalAlign=middle;html=1;labelBackgroundColor=#ffffff;rounded=0;movable=0;resizable=0;rotatable=0;deletable=0;editable=0;locked=1;connectable=0;" parent="1" edge="1">
            <mxGeometry relative="1" as="geometry">
              <Array as="points" />
              <mxPoint x="660" y="2207" as="sourcePoint" />
              <mxPoint x="660" y="2267" as="targetPoint" />
            </mxGeometry>
          </mxCell>
        </UserObject>
        <UserObject label="" tags="Фон" id="33">
          <mxCell style="vsdxID=12;edgeStyle=none;startArrow=none;endArrow=none;startSize=5;endSize=5;strokeWidth=4;strokeColor=#000000;spacingTop=-1;spacingBottom=-1;spacingLeft=-1;spacingRight=-1;verticalAlign=middle;html=1;labelBackgroundColor=#ffffff;rounded=0;movable=0;resizable=0;rotatable=0;deletable=0;editable=0;locked=1;connectable=0;" parent="1" edge="1">
            <mxGeometry relative="1" as="geometry">
              <Array as="points" />
              <mxPoint x="700" y="2267" as="sourcePoint" />
              <mxPoint x="700" y="2287" as="targetPoint" />
            </mxGeometry>
          </mxCell>
        </UserObject>
        <UserObject label="" tags="Фон" id="34">
          <mxCell style="vsdxID=13;edgeStyle=none;startArrow=none;endArrow=none;startSize=5;endSize=5;strokeWidth=4;strokeColor=#000000;spacingTop=-1;spacingBottom=-1;spacingLeft=-1;spacingRight=-1;verticalAlign=middle;html=1;labelBackgroundColor=#ffffff;rounded=0;movable=0;resizable=0;rotatable=0;deletable=0;editable=0;locked=1;connectable=0;" parent="1" edge="1">
            <mxGeometry relative="1" as="geometry">
              <Array as="points" />
              <mxPoint x="750" y="2187" as="sourcePoint" />
              <mxPoint x="750" y="2267" as="targetPoint" />
            </mxGeometry>
          </mxCell>
        </UserObject>
        <UserObject label="" tags="Фон" id="35">
          <mxCell style="vsdxID=14;edgeStyle=none;startArrow=none;endArrow=none;startSize=5;endSize=5;strokeWidth=4;strokeColor=#000000;spacingTop=-1;spacingBottom=-1;spacingLeft=-1;spacingRight=-1;verticalAlign=middle;html=1;labelBackgroundColor=#ffffff;rounded=0;movable=0;resizable=0;rotatable=0;deletable=0;editable=0;locked=1;connectable=0;" parent="1" edge="1">
            <mxGeometry relative="1" as="geometry">
              <Array as="points" />
              <mxPoint x="300" y="2127" as="sourcePoint" />
              <mxPoint x="300" y="2327" as="targetPoint" />
            </mxGeometry>
          </mxCell>
        </UserObject>
        <UserObject label="" tags="Фон" id="36">
          <mxCell style="vsdxID=15;edgeStyle=none;startArrow=none;endArrow=none;startSize=5;endSize=5;strokeWidth=4;strokeColor=#000000;spacingTop=-1;spacingBottom=-1;spacingLeft=-1;spacingRight=-1;verticalAlign=middle;html=1;labelBackgroundColor=#ffffff;rounded=0;movable=0;resizable=0;rotatable=0;deletable=0;editable=0;locked=1;connectable=0;" parent="1" edge="1">
            <mxGeometry relative="1" as="geometry">
              <Array as="points" />
              <mxPoint x="240" y="2127" as="sourcePoint" />
              <mxPoint x="240" y="2327" as="targetPoint" />
            </mxGeometry>
          </mxCell>
        </UserObject>
        <UserObject label="" tags="Фон" id="37">
          <mxCell style="vsdxID=16;edgeStyle=none;startArrow=none;endArrow=none;startSize=5;endSize=5;strokeWidth=4;strokeColor=#000000;spacingTop=-1;spacingBottom=-1;spacingLeft=-1;spacingRight=-1;verticalAlign=middle;html=1;labelBackgroundColor=#ffffff;rounded=0;movable=0;resizable=0;rotatable=0;deletable=0;editable=0;locked=1;connectable=0;" parent="1" edge="1">
            <mxGeometry relative="1" as="geometry">
              <Array as="points" />
              <mxPoint x="148" y="2127" as="sourcePoint" />
              <mxPoint x="148" y="2327" as="targetPoint" />
            </mxGeometry>
          </mxCell>
        </UserObject>
        <UserObject label="" tags="Фон" id="38">
          <mxCell style="vsdxID=17;edgeStyle=none;startArrow=none;endArrow=none;startSize=5;endSize=5;strokeColor=#000000;spacingTop=-1;spacingBottom=-1;spacingLeft=-1;spacingRight=-1;verticalAlign=middle;html=1;labelBackgroundColor=#ffffff;rounded=0;movable=0;resizable=0;rotatable=0;deletable=0;editable=0;locked=1;connectable=0;" parent="1" edge="1">
            <mxGeometry relative="1" as="geometry">
              <mxPoint as="offset" />
              <Array as="points" />
              <mxPoint x="80" y="2147" as="sourcePoint" />
              <mxPoint x="340" y="2147" as="targetPoint" />
            </mxGeometry>
          </mxCell>
        </UserObject>
        <UserObject label="" tags="Фон" id="39">
          <mxCell style="vsdxID=18;edgeStyle=none;startArrow=none;endArrow=none;startSize=5;endSize=5;strokeColor=#000000;spacingTop=-1;spacingBottom=-1;spacingLeft=-1;spacingRight=-1;verticalAlign=middle;html=1;labelBackgroundColor=#ffffff;rounded=0;movable=0;resizable=0;rotatable=0;deletable=0;editable=0;locked=1;connectable=0;" parent="1" edge="1">
            <mxGeometry relative="1" as="geometry">
              <mxPoint as="offset" />
              <Array as="points" />
              <mxPoint x="80" y="2167" as="sourcePoint" />
              <mxPoint x="340" y="2167" as="targetPoint" />
            </mxGeometry>
          </mxCell>
        </UserObject>
        <UserObject label="" tags="Фон" id="40">
          <mxCell style="vsdxID=19;edgeStyle=none;startArrow=none;endArrow=none;startSize=5;endSize=5;strokeColor=#000000;spacingTop=-1;spacingBottom=-1;spacingLeft=-1;spacingRight=-1;verticalAlign=middle;html=1;labelBackgroundColor=#ffffff;rounded=0;movable=0;resizable=0;rotatable=0;deletable=0;editable=0;locked=1;connectable=0;" parent="1" edge="1">
            <mxGeometry relative="1" as="geometry">
              <mxPoint as="offset" />
              <Array as="points" />
              <mxPoint x="80" y="2187" as="sourcePoint" />
              <mxPoint x="340" y="2187" as="targetPoint" />
            </mxGeometry>
          </mxCell>
        </UserObject>
        <UserObject label="" tags="Фон" id="41">
          <mxCell style="vsdxID=20;edgeStyle=none;startArrow=none;endArrow=none;startSize=5;endSize=5;strokeWidth=4;strokeColor=#000000;spacingTop=-1;spacingBottom=-1;spacingLeft=-1;spacingRight=-1;verticalAlign=middle;html=1;labelBackgroundColor=#ffffff;rounded=0;movable=0;resizable=0;rotatable=0;deletable=0;editable=0;locked=1;connectable=0;" parent="1" edge="1">
            <mxGeometry relative="1" as="geometry">
              <mxPoint as="offset" />
              <Array as="points" />
              <mxPoint x="80" y="2207" as="sourcePoint" />
              <mxPoint x="340" y="2207" as="targetPoint" />
            </mxGeometry>
          </mxCell>
        </UserObject>
        <UserObject label="" tags="Фон" id="42">
          <mxCell style="vsdxID=21;edgeStyle=none;startArrow=none;endArrow=none;startSize=5;endSize=5;strokeWidth=4;strokeColor=#000000;spacingTop=-1;spacingBottom=-1;spacingLeft=-1;spacingRight=-1;verticalAlign=middle;html=1;labelBackgroundColor=#ffffff;rounded=0;movable=0;resizable=0;rotatable=0;deletable=0;editable=0;locked=1;connectable=0;" parent="1" edge="1">
            <mxGeometry relative="1" as="geometry">
              <mxPoint as="offset" />
              <Array as="points" />
              <mxPoint x="80" y="2227" as="sourcePoint" />
              <mxPoint x="340" y="2227" as="targetPoint" />
            </mxGeometry>
          </mxCell>
        </UserObject>
        <UserObject label="" tags="Фон" id="43">
          <mxCell style="vsdxID=22;edgeStyle=none;startArrow=none;endArrow=none;startSize=5;endSize=5;strokeColor=#000000;spacingTop=-1;spacingBottom=-1;spacingLeft=-1;spacingRight=-1;verticalAlign=middle;html=1;labelBackgroundColor=#ffffff;rounded=0;movable=0;resizable=0;rotatable=0;deletable=0;editable=0;locked=1;connectable=0;" parent="1" edge="1">
            <mxGeometry relative="1" as="geometry">
              <mxPoint as="offset" />
              <Array as="points" />
              <mxPoint x="80" y="2247" as="sourcePoint" />
              <mxPoint x="340" y="2247" as="targetPoint" />
            </mxGeometry>
          </mxCell>
        </UserObject>
        <UserObject label="" tags="Фон" id="44">
          <mxCell style="vsdxID=23;edgeStyle=none;startArrow=none;endArrow=none;startSize=5;endSize=5;strokeColor=#000000;spacingTop=-1;spacingBottom=-1;spacingLeft=-1;spacingRight=-1;verticalAlign=middle;html=1;labelBackgroundColor=#ffffff;rounded=0;movable=0;resizable=0;rotatable=0;deletable=0;editable=0;locked=1;connectable=0;" parent="1" edge="1">
            <mxGeometry relative="1" as="geometry">
              <mxPoint as="offset" />
              <Array as="points" />
              <mxPoint x="80" y="2267" as="sourcePoint" />
              <mxPoint x="340" y="2267" as="targetPoint" />
            </mxGeometry>
          </mxCell>
        </UserObject>
        <UserObject label="" tags="Фон" id="45">
          <mxCell style="vsdxID=24;edgeStyle=none;startArrow=none;endArrow=none;startSize=5;endSize=5;strokeColor=#000000;spacingTop=-1;spacingBottom=-1;spacingLeft=-1;spacingRight=-1;verticalAlign=middle;html=1;labelBackgroundColor=#ffffff;rounded=0;movable=0;resizable=0;rotatable=0;deletable=0;editable=0;locked=1;connectable=0;" parent="1" edge="1">
            <mxGeometry relative="1" as="geometry">
              <mxPoint as="offset" />
              <Array as="points" />
              <mxPoint x="80" y="2287" as="sourcePoint" />
              <mxPoint x="340" y="2287" as="targetPoint" />
            </mxGeometry>
          </mxCell>
        </UserObject>
        <UserObject label="" tags="Фон" id="46">
          <mxCell style="vsdxID=25;edgeStyle=none;startArrow=none;endArrow=none;startSize=5;endSize=5;strokeColor=#000000;spacingTop=-1;spacingBottom=-1;spacingLeft=-1;spacingRight=-1;verticalAlign=middle;html=1;labelBackgroundColor=#ffffff;rounded=0;movable=0;resizable=0;rotatable=0;deletable=0;editable=0;locked=1;connectable=0;" parent="1" edge="1">
            <mxGeometry relative="1" as="geometry">
              <mxPoint as="offset" />
              <Array as="points" />
              <mxPoint x="80" y="2307" as="sourcePoint" />
              <mxPoint x="340" y="2307" as="targetPoint" />
            </mxGeometry>
          </mxCell>
        </UserObject>
        <UserObject label="" tags="Фон" id="47">
          <mxCell style="vsdxID=26;edgeStyle=none;startArrow=none;endArrow=none;startSize=5;endSize=5;strokeColor=#000000;spacingTop=-1;spacingBottom=-1;spacingLeft=-1;spacingRight=-1;verticalAlign=middle;html=1;labelBackgroundColor=#ffffff;rounded=0;movable=0;resizable=0;rotatable=0;deletable=0;editable=0;locked=1;connectable=0;" parent="1" edge="1">
            <mxGeometry relative="1" as="geometry">
              <mxPoint as="offset" />
              <Array as="points" />
              <mxPoint x="80" y="2327" as="sourcePoint" />
              <mxPoint x="340" y="2327" as="targetPoint" />
            </mxGeometry>
          </mxCell>
        </UserObject>
        <UserObject label="" tags="Фон" id="48">
          <mxCell style="vsdxID=27;edgeStyle=none;startArrow=none;endArrow=none;startSize=5;endSize=5;strokeWidth=4;strokeColor=#000000;spacingTop=-1;spacingBottom=-1;spacingLeft=-1;spacingRight=-1;verticalAlign=middle;html=1;labelBackgroundColor=#ffffff;rounded=0;movable=0;resizable=0;rotatable=0;deletable=0;editable=0;locked=1;connectable=0;" parent="1" edge="1">
            <mxGeometry relative="1" as="geometry">
              <Array as="points" />
              <mxPoint x="108" y="2127" as="sourcePoint" />
              <mxPoint x="108" y="2227" as="targetPoint" />
            </mxGeometry>
          </mxCell>
        </UserObject>
        <UserObject label="&lt;div style=&quot;font-size: 1px&quot;&gt;&lt;font style=&quot;font-size:11.29px;font-family:Arial;color:#000000;direction:ltr;letter-spacing:0px;line-height:120%;opacity:1&quot;&gt;&lt;i&gt;№ документа&lt;br/&gt;&lt;/i&gt;&lt;/font&gt;&lt;/div&gt;" tags="Фон" id="3">
          <mxCell style="verticalAlign=middle;align=center;overflow=width;vsdxID=28;fillColor=none;gradientColor=none;shape=stencil(nZBLDoAgDERP0z3SIyjew0SURgSD+Lu9kMZoXLhwN9O+tukAlrNpJg1SzDH4QW/URgNYgZTkjA4UkwJUgGXng+6DX1zLfmoymdXo17xh5zmRJ6Q42BWCfc2oJfdAr+Yv+AP9Cb7OJ3H/2JG1HNGz/84klThPVCc=);strokeColor=none;strokeWidth=4;spacingTop=-1;spacingBottom=-1;spacingLeft=-1;spacingRight=-1;points=[];labelBackgroundColor=none;rounded=0;html=1;whiteSpace=wrap;movable=0;resizable=0;rotatable=0;deletable=0;editable=0;locked=1;connectable=0;" parent="1" vertex="1">
            <mxGeometry x="150" y="2209" width="88" height="16" as="geometry" />
          </mxCell>
        </UserObject>
        <UserObject label="&lt;div style=&quot;font-size: 1px&quot;&gt;&lt;font style=&quot;font-size:11.29px;font-family:Arial;color:#000000;direction:ltr;letter-spacing:0px;line-height:120%;opacity:1&quot;&gt;&lt;i&gt;Подпись&lt;br/&gt;&lt;/i&gt;&lt;/font&gt;&lt;/div&gt;" tags="Фон" id="4">
          <mxCell style="verticalAlign=middle;align=center;overflow=width;vsdxID=29;fillColor=none;gradientColor=none;shape=stencil(nZBLDoAgDERP0z3SIyjew0SURgSD+Lu9kMZoXLhwN9O+tukAlrNpJg1SzDH4QW/URgNYgZTkjA4UkwJUgGXng+6DX1zLfmoymdXo17xh5zmRJ6Q42BWCfc2oJfdAr+Yv+AP9Cb7OJ3H/2JG1HNGz/84klThPVCc=);strokeColor=none;strokeWidth=4;spacingTop=-1;spacingBottom=-1;spacingLeft=-1;spacingRight=-1;points=[];labelBackgroundColor=none;rounded=0;html=1;whiteSpace=wrap;movable=0;resizable=0;rotatable=0;deletable=0;editable=0;locked=1;connectable=0;" parent="1" vertex="1">
            <mxGeometry x="242" y="2209" width="56" height="16" as="geometry" />
          </mxCell>
        </UserObject>
        <UserObject label="&lt;div style=&quot;font-size: 1px&quot;&gt;&lt;font style=&quot;font-size:11.29px;font-family:Arial;color:#000000;direction:ltr;letter-spacing:0px;line-height:120%;opacity:1&quot;&gt;&lt;i&gt;Дата&lt;br/&gt;&lt;/i&gt;&lt;/font&gt;&lt;/div&gt;" tags="Фон" id="5">
          <mxCell style="verticalAlign=middle;align=center;overflow=width;vsdxID=30;fillColor=none;gradientColor=none;shape=stencil(nZBLDoAgDERP0z3SIyjew0SURgSD+Lu9kMZoXLhwN9O+tukAlrNpJg1SzDH4QW/URgNYgZTkjA4UkwJUgGXng+6DX1zLfmoymdXo17xh5zmRJ6Q42BWCfc2oJfdAr+Yv+AP9Cb7OJ3H/2JG1HNGz/84klThPVCc=);strokeColor=none;strokeWidth=4;spacingTop=-1;spacingBottom=-1;spacingLeft=-1;spacingRight=-1;points=[];labelBackgroundColor=none;rounded=0;html=1;whiteSpace=wrap;movable=0;resizable=0;rotatable=0;deletable=0;editable=0;locked=1;connectable=0;" parent="1" vertex="1">
            <mxGeometry x="302" y="2209" width="36" height="16" as="geometry" />
          </mxCell>
        </UserObject>
        <UserObject label="&lt;div style=&quot;font-size: 1px&quot;&gt;&lt;font style=&quot;font-size:11.29px;font-family:Arial;color:#000000;direction:ltr;letter-spacing:0px;line-height:120%;opacity:1&quot;&gt;Лит.&lt;br/&gt;&lt;/font&gt;&lt;/div&gt;" tags="Фон" id="6">
          <mxCell style="verticalAlign=middle;align=center;overflow=width;vsdxID=31;fillColor=none;gradientColor=none;shape=stencil(nZBLDoAgDERP0z3SIyjew0SURgSD+Lu9kMZoXLhwN9O+tukAlrNpJg1SzDH4QW/URgNYgZTkjA4UkwJUgGXng+6DX1zLfmoymdXo17xh5zmRJ6Q42BWCfc2oJfdAr+Yv+AP9Cb7OJ3H/2JG1HNGz/84klThPVCc=);strokeColor=none;strokeWidth=4;spacingTop=-1;spacingBottom=-1;spacingLeft=-1;spacingRight=-1;points=[];labelBackgroundColor=none;rounded=0;html=1;whiteSpace=wrap;movable=0;resizable=0;rotatable=0;deletable=0;editable=0;locked=1;connectable=0;" parent="1" vertex="1">
            <mxGeometry x="622" y="2189" width="56" height="16" as="geometry" />
          </mxCell>
        </UserObject>
        <UserObject label="&lt;div style=&quot;font-size: 1px&quot;&gt;&lt;font style=&quot;font-size:11.29px;font-family:Arial;color:#000000;direction:ltr;letter-spacing:0px;line-height:120%;opacity:1&quot;&gt;&lt;i&gt;Масса&lt;br/&gt;&lt;/i&gt;&lt;/font&gt;&lt;/div&gt;" tags="Фон" id="7">
          <mxCell style="verticalAlign=middle;align=center;overflow=width;vsdxID=32;fillColor=none;gradientColor=none;shape=stencil(nZBLDoAgDERP0z3SIyjew0SURgSD+Lu9kMZoXLhwN9O+tukAlrNpJg1SzDH4QW/URgNYgZTkjA4UkwJUgGXng+6DX1zLfmoymdXo17xh5zmRJ6Q42BWCfc2oJfdAr+Yv+AP9Cb7OJ3H/2JG1HNGz/84klThPVCc=);strokeColor=none;strokeWidth=4;spacingTop=-1;spacingBottom=-1;spacingLeft=-1;spacingRight=-1;points=[];labelBackgroundColor=none;rounded=0;html=1;whiteSpace=wrap;movable=0;resizable=0;rotatable=0;deletable=0;editable=0;locked=1;connectable=0;" parent="1" vertex="1">
            <mxGeometry x="682" y="2189" width="66" height="16" as="geometry" />
          </mxCell>
        </UserObject>
        <UserObject label="&lt;div style=&quot;font-size: 1px&quot;&gt;&lt;font style=&quot;font-size:11.29px;font-family:Arial;color:#000000;direction:ltr;letter-spacing:0px;line-height:120%;opacity:1&quot;&gt;&lt;i&gt;Масштаб&lt;br/&gt;&lt;/i&gt;&lt;/font&gt;&lt;/div&gt;" tags="Фон" id="8">
          <mxCell style="verticalAlign=middle;align=center;overflow=width;vsdxID=33;fillColor=none;gradientColor=none;shape=stencil(nZBLDoAgDERP0z3SIyjew0SURgSD+Lu9kMZoXLhwN9O+tukAlrNpJg1SzDH4QW/URgNYgZTkjA4UkwJUgGXng+6DX1zLfmoymdXo17xh5zmRJ6Q42BWCfc2oJfdAr+Yv+AP9Cb7OJ3H/2JG1HNGz/84klThPVCc=);strokeColor=none;strokeWidth=4;spacingTop=-1;spacingBottom=-1;spacingLeft=-1;spacingRight=-1;points=[];labelBackgroundColor=none;rounded=0;html=1;whiteSpace=wrap;movable=0;resizable=0;rotatable=0;deletable=0;editable=0;locked=1;connectable=0;" parent="1" vertex="1">
            <mxGeometry x="752" y="2189" width="66" height="16" as="geometry" />
          </mxCell>
        </UserObject>
        <UserObject label="&lt;div style=&quot;font-size: 1px&quot;&gt;&lt;p style=&quot;text-align:center;margin-left:0;margin-right:0;margin-top:0px;margin-bottom:0px;text-indent:0;vertical-align:middle;direction:rtl;&quot;&gt;&lt;font style=&quot;font-size:33.87px;font-family:Arial;color:#000000;direction:ltr;letter-spacing:0px;line-height:120%;opacity:1&quot;&gt;&lt;i&gt;ГУИР.400201.380 С3&lt;br&gt;&lt;/i&gt;&lt;/font&gt;&lt;/p&gt;&lt;/div&gt;" tags="Фон" id="9">
          <mxCell style="verticalAlign=middle;align=center;overflow=width;vsdxID=34;fillColor=none;gradientColor=none;shape=stencil(nZBLDoAgDERP0z3SIyjew0SURgSD+Lu9kMZoXLhwN9O+tukAlrNpJg1SzDH4QW/URgNYgZTkjA4UkwJUgGXng+6DX1zLfmoymdXo17xh5zmRJ6Q42BWCfc2oJfdAr+Yv+AP9Cb7OJ3H/2JG1HNGz/84klThPVCc=);strokeColor=none;spacingTop=-1;spacingBottom=-1;spacingLeft=-1;spacingRight=-1;points=[];labelBackgroundColor=none;rounded=0;html=1;whiteSpace=wrap;movable=0;resizable=0;rotatable=0;deletable=0;editable=0;locked=1;connectable=0;" parent="1" vertex="1">
            <mxGeometry x="341" y="2125" width="478" height="60" as="geometry" />
          </mxCell>
        </UserObject>
        <UserObject label="&lt;div style=&quot;font-size: 1px&quot;&gt;&lt;p style=&quot;text-align:left;margin-left:0;margin-right:0;margin-top:0px;margin-bottom:0px;text-indent:0;vertical-align:middle;direction:ltr;&quot;&gt;&lt;font style=&quot;font-size:11.29px;font-family:Arial;color:#000000;direction:ltr;letter-spacing:0px;line-height:120%;opacity:1&quot;&gt;&lt;i&gt;Лист&lt;/i&gt;&lt;/font&gt;&lt;font style=&quot;font-size:11.29px;font-family:Arial;color:#000000;direction:ltr;letter-spacing:0px;line-height:120%;opacity:1&quot;&gt;&lt;i&gt; &lt;/i&gt;&lt;/font&gt;&lt;font style=&quot;font-size:11.29px;font-family:Arial;color:#000000;direction:ltr;letter-spacing:0px;line-height:120%;opacity:1&quot;&gt;&lt;i&gt;&#x9;&lt;br/&gt;&lt;/i&gt;&lt;/font&gt;&lt;/p&gt;&lt;/div&gt;" tags="Фон" id="10">
          <mxCell style="verticalAlign=middle;align=left;overflow=width;vsdxID=35;fillColor=none;gradientColor=none;shape=stencil(nZBLDoAgDERP0z3SIyjew0SURgSD+Lu9kMZoXLhwN9O+tukAlrNpJg1SzDH4QW/URgNYgZTkjA4UkwJUgGXng+6DX1zLfmoymdXo17xh5zmRJ6Q42BWCfc2oJfdAr+Yv+AP9Cb7OJ3H/2JG1HNGz/84klThPVCc=);strokeColor=none;strokeWidth=4;spacingTop=-1;spacingBottom=-1;spacingLeft=-1;spacingRight=-1;points=[];labelBackgroundColor=none;rounded=0;html=1;whiteSpace=wrap;movable=0;resizable=0;rotatable=0;deletable=0;editable=0;locked=1;connectable=0;" parent="1" vertex="1">
            <mxGeometry x="624" y="2269" width="76" height="16" as="geometry" />
          </mxCell>
        </UserObject>
        <UserObject label="&lt;div style=&quot;font-size: 1px&quot;&gt;&lt;p style=&quot;text-align:left;margin-left:0;margin-right:0;margin-top:0px;margin-bottom:0px;text-indent:0;vertical-align:middle;direction:ltr;&quot;&gt;&lt;font style=&quot;font-size:11.29px;font-family:Arial;color:#000000;direction:ltr;letter-spacing:0px;line-height:120%;opacity:1&quot;&gt;&lt;i&gt;Листов             1&lt;/i&gt;&lt;/font&gt;&lt;font style=&quot;font-size:11.29px;font-family:Arial;color:#000000;direction:ltr;letter-spacing:0px;line-height:120%;opacity:1&quot;&gt;&lt;i&gt;&lt;br/&gt;&lt;/i&gt;&lt;/font&gt;&lt;/p&gt;&lt;/div&gt;" tags="Фон" id="11">
          <mxCell style="verticalAlign=middle;align=left;overflow=width;vsdxID=36;fillColor=none;gradientColor=none;shape=stencil(nZBLDoAgDERP0z3SIyjew0SURgSD+Lu9kMZoXLhwN9O+tukAlrNpJg1SzDH4QW/URgNYgZTkjA4UkwJUgGXng+6DX1zLfmoymdXo17xh5zmRJ6Q42BWCfc2oJfdAr+Yv+AP9Cb7OJ3H/2JG1HNGz/84klThPVCc=);strokeColor=none;strokeWidth=4;spacingTop=-1;spacingBottom=-1;spacingLeft=-1;spacingRight=-1;points=[];labelBackgroundColor=none;rounded=0;html=1;whiteSpace=wrap;movable=0;resizable=0;rotatable=0;deletable=0;editable=0;locked=1;connectable=0;" parent="1" vertex="1">
            <mxGeometry x="703" y="2269" width="116" height="16" as="geometry" />
          </mxCell>
        </UserObject>
        <UserObject label="&lt;div style=&quot;font-size: 1px&quot;&gt;&lt;font style=&quot;font-size:19.76px;font-family:Arial;color:#000000;direction:ltr;letter-spacing:0px;line-height:120%;opacity:1&quot;&gt;&lt;i&gt;У&lt;br/&gt;&lt;/i&gt;&lt;/font&gt;&lt;/div&gt;" tags="Фон" id="12">
          <mxCell style="verticalAlign=middle;align=center;overflow=width;vsdxID=37;fillColor=none;gradientColor=none;shape=stencil(nZBLDoAgDERP0z3SIyjew0SURgSD+Lu9kMZoXLhwN9O+tukAlrNpJg1SzDH4QW/URgNYgZTkjA4UkwJUgGXng+6DX1zLfmoymdXo17xh5zmRJ6Q42BWCfc2oJfdAr+Yv+AP9Cb7OJ3H/2JG1HNGz/84klThPVCc=);strokeColor=none;strokeWidth=4;spacingTop=-1;spacingBottom=-1;spacingLeft=-1;spacingRight=-1;points=[];labelBackgroundColor=none;rounded=0;html=1;whiteSpace=wrap;movable=0;resizable=0;rotatable=0;deletable=0;editable=0;locked=1;connectable=0;" parent="1" vertex="1">
            <mxGeometry x="640" y="2218" width="20" height="40" as="geometry" />
          </mxCell>
        </UserObject>
        <UserObject label="&lt;div style=&quot;font-size: 1px&quot;&gt;&lt;font style=&quot;font-size:19.76px;font-family:Arial;color:#000000;direction:ltr;letter-spacing:0px;line-height:120%;opacity:1&quot;&gt;&lt;i&gt;ЭВМ, гр. 050503&lt;br&gt;&lt;/i&gt;&lt;/font&gt;&lt;/div&gt;" tags="Фон" id="13">
          <mxCell style="verticalAlign=middle;align=center;overflow=width;vsdxID=38;fillColor=none;gradientColor=none;shape=stencil(nZBLDoAgDERP0z3SIyjew0SURgSD+Lu9kMZoXLhwN9O+tukAlrNpJg1SzDH4QW/URgNYgZTkjA4UkwJUgGXng+6DX1zLfmoymdXo17xh5zmRJ6Q42BWCfc2oJfdAr+Yv+AP9Cb7OJ3H/2JG1HNGz/84klThPVCc=);strokeColor=none;strokeWidth=4;spacingTop=-1;spacingBottom=-1;spacingLeft=-1;spacingRight=-1;points=[];labelBackgroundColor=none;rounded=0;html=1;whiteSpace=wrap;movable=0;resizable=0;rotatable=0;deletable=0;editable=0;locked=1;connectable=0;" parent="1" vertex="1">
            <mxGeometry x="622" y="2287" width="198" height="40" as="geometry" />
          </mxCell>
        </UserObject>
        <UserObject label="&lt;div style=&quot;font-size: 1px&quot;&gt;&lt;font style=&quot;font-size:11.29px;font-family:Arial;color:#000000;direction:ltr;letter-spacing:0px;line-height:120%;opacity:1&quot;&gt;&lt;i&gt;Изм&lt;br/&gt;&lt;/i&gt;&lt;/font&gt;&lt;/div&gt;" tags="Фон" id="14">
          <mxCell style="verticalAlign=middle;align=center;overflow=width;vsdxID=39;fillColor=none;gradientColor=none;shape=stencil(nZBLDoAgDERP0z3SIyjew0SURgSD+Lu9kMZoXLhwN9O+tukAlrNpJg1SzDH4QW/URgNYgZTkjA4UkwJUgGXng+6DX1zLfmoymdXo17xh5zmRJ6Q42BWCfc2oJfdAr+Yv+AP9Cb7OJ3H/2JG1HNGz/84klThPVCc=);strokeColor=none;strokeWidth=4;spacingTop=-1;spacingBottom=-1;spacingLeft=-1;spacingRight=-1;points=[];labelBackgroundColor=none;rounded=0;html=1;whiteSpace=wrap;movable=0;resizable=0;rotatable=0;deletable=0;editable=0;locked=1;connectable=0;" parent="1" vertex="1">
            <mxGeometry x="80" y="2209" width="28" height="16" as="geometry" />
          </mxCell>
        </UserObject>
        <UserObject label="&lt;div style=&quot;font-size: 1px&quot;&gt;&lt;font style=&quot;font-size:11.29px;font-family:Arial;color:#000000;direction:ltr;letter-spacing:0px;line-height:120%;opacity:1&quot;&gt;&lt;i&gt;Лист&lt;br/&gt;&lt;/i&gt;&lt;/font&gt;&lt;/div&gt;" tags="Фон" id="15">
          <mxCell style="verticalAlign=middle;align=center;overflow=width;vsdxID=40;fillColor=none;gradientColor=none;shape=stencil(nZBLDoAgDERP0z3SIyjew0SURgSD+Lu9kMZoXLhwN9O+tukAlrNpJg1SzDH4QW/URgNYgZTkjA4UkwJUgGXng+6DX1zLfmoymdXo17xh5zmRJ6Q42BWCfc2oJfdAr+Yv+AP9Cb7OJ3H/2JG1HNGz/84klThPVCc=);strokeColor=none;strokeWidth=4;spacingTop=-1;spacingBottom=-1;spacingLeft=-1;spacingRight=-1;points=[];labelBackgroundColor=none;rounded=0;html=1;whiteSpace=wrap;movable=0;resizable=0;rotatable=0;deletable=0;editable=0;locked=1;connectable=0;" parent="1" vertex="1">
            <mxGeometry x="109" y="2209" width="36" height="16" as="geometry" />
          </mxCell>
        </UserObject>
        <UserObject label="&lt;div style=&quot;&quot;&gt;&lt;p style=&quot;text-align: left; margin: 0px; text-indent: 0px; vertical-align: middle; direction: rtl;&quot;&gt;&lt;font style=&quot;font-family: Arial; color: rgb(0, 0, 0); direction: ltr; letter-spacing: 0px; line-height: 120%; opacity: 1;&quot;&gt;&lt;i style=&quot;&quot;&gt;&lt;font style=&quot;font-size: 14px;&quot;&gt;Сенкевич&lt;/font&gt;&lt;br&gt;&lt;/i&gt;&lt;/font&gt;&lt;/p&gt;&lt;/div&gt;" tags="Фон" id="16">
          <mxCell style="verticalAlign=middle;align=right;overflow=width;vsdxID=41;fillColor=none;gradientColor=none;shape=stencil(nZBLDoAgDERP0z3SIyjew0SURgSD+Lu9kMZoXLhwN9O+tukAlrNpJg1SzDH4QW/URgNYgZTkjA4UkwJUgGXng+6DX1zLfmoymdXo17xh5zmRJ6Q42BWCfc2oJfdAr+Yv+AP9Cb7OJ3H/2JG1HNGz/84klThPVCc=);strokeColor=none;strokeWidth=4;spacingTop=-1;spacingBottom=-1;spacingLeft=-1;spacingRight=-1;points=[];labelBackgroundColor=none;rounded=0;html=1;whiteSpace=wrap;movable=0;resizable=0;rotatable=0;deletable=0;editable=0;locked=1;connectable=0;" parent="1" vertex="1">
            <mxGeometry x="152" y="2226" width="120" height="23" as="geometry" />
          </mxCell>
        </UserObject>
        <UserObject label="&lt;div style=&quot;&quot;&gt;&lt;p style=&quot;text-align: left; margin: 0px; text-indent: 0px; vertical-align: middle; direction: rtl;&quot;&gt;&lt;font style=&quot;font-family: Arial; color: rgb(0, 0, 0); direction: ltr; letter-spacing: 0px; line-height: 120%; opacity: 1;&quot;&gt;&lt;i style=&quot;&quot;&gt;&lt;font style=&quot;font-size: 14px;&quot;&gt;Русакович&lt;/font&gt;&lt;br&gt;&lt;/i&gt;&lt;/font&gt;&lt;/p&gt;&lt;/div&gt;" tags="Фон" id="19">
          <mxCell style="verticalAlign=middle;align=center;overflow=width;vsdxID=44;fillColor=none;gradientColor=none;shape=stencil(nZBLDoAgDERP0z3SIyjew0SURgSD+Lu9kMZoXLhwN9O+tukAlrNpJg1SzDH4QW/URgNYgZTkjA4UkwJUgGXng+6DX1zLfmoymdXo17xh5zmRJ6Q42BWCfc2oJfdAr+Yv+AP9Cb7OJ3H/2JG1HNGz/84klThPVCc=);strokeColor=none;strokeWidth=4;spacingTop=-1;spacingBottom=-1;spacingLeft=-1;spacingRight=-1;points=[];labelBackgroundColor=none;rounded=0;html=1;whiteSpace=wrap;movable=0;resizable=0;rotatable=0;deletable=0;editable=0;locked=1;connectable=0;" parent="1" vertex="1">
            <mxGeometry x="152" y="2247" width="86" height="20" as="geometry" />
          </mxCell>
        </UserObject>
        <UserObject label="&lt;div style=&quot;font-size: 1px&quot;&gt;&lt;p style=&quot;text-align:center;margin-left:0;margin-right:0;margin-top:0px;margin-bottom:0px;text-indent:0;vertical-align:middle;direction:rtl;&quot;&gt;&lt;font style=&quot;font-size:19.76px;font-family:Arial;color:#000000;direction:ltr;letter-spacing:0px;line-height:120%;opacity:1&quot;&gt;&lt;i&gt;Схема СКС. План этажа&lt;br/&gt;&lt;/i&gt;&lt;/font&gt;&lt;/p&gt;&lt;/div&gt;" tags="Фон" id="20">
          <mxCell style="verticalAlign=middle;align=center;overflow=width;vsdxID=45;fillColor=none;gradientColor=none;shape=stencil(nZBLDoAgDERP0z3SIyjew0SURgSD+Lu9kMZoXLhwN9O+tukAlrNpJg1SzDH4QW/URgNYgZTkjA4UkwJUgGXng+6DX1zLfmoymdXo17xh5zmRJ6Q42BWCfc2oJfdAr+Yv+AP9Cb7OJ3H/2JG1HNGz/84klThPVCc=);strokeColor=none;spacingTop=-1;spacingBottom=-1;spacingLeft=-1;spacingRight=-1;points=[];labelBackgroundColor=none;rounded=0;html=1;whiteSpace=wrap;movable=0;resizable=0;rotatable=0;deletable=0;editable=0;locked=1;connectable=0;" parent="1" vertex="1">
            <mxGeometry x="340" y="2187" width="272" height="100" as="geometry" />
          </mxCell>
        </UserObject>
        <UserObject label="" tags="Фон" id="49">
          <mxCell style="vsdxID=46;edgeStyle=none;startArrow=none;endArrow=none;startSize=5;endSize=5;strokeWidth=4;spacingTop=0;spacingBottom=0;spacingLeft=0;spacingRight=0;verticalAlign=middle;html=1;labelBackgroundColor=#ffffff;rounded=0;movable=0;resizable=0;rotatable=0;deletable=0;editable=0;locked=1;connectable=0;" parent="1" edge="1">
            <mxGeometry relative="1" as="geometry">
              <Array as="points" />
              <mxPoint x="80" y="2327" as="sourcePoint" />
              <mxPoint x="820" y="2327" as="targetPoint" />
            </mxGeometry>
          </mxCell>
        </UserObject>
        <UserObject label="&lt;div style=&quot;font-size: 1px&quot;&gt;&lt;p style=&quot;text-align:center;margin-left:0;margin-right:0;margin-top:0px;margin-bottom:0px;text-indent:0;vertical-align:middle;direction:rtl;&quot;&gt;&lt;font style=&quot;font-size:19.76px;font-family:Arial;color:#000000;direction:ltr;letter-spacing:0px;line-height:120%;opacity:1&quot;&gt;&lt;i&gt;1:200&lt;br&gt;&lt;/i&gt;&lt;/font&gt;&lt;/p&gt;&lt;/div&gt;" tags="Фон" id="22">
          <mxCell style="verticalAlign=middle;align=center;overflow=width;vsdxID=48;fillColor=none;gradientColor=none;shape=stencil(nZBLDoAgDERP0z3SIyjew0SURgSD+Lu9kMZoXLhwN9O+tukAlrNpJg1SzDH4QW/URgNYgZTkjA4UkwJUgGXng+6DX1zLfmoymdXo17xh5zmRJ6Q42BWCfc2oJfdAr+Yv+AP9Cb7OJ3H/2JG1HNGz/84klThPVCc=);strokeColor=none;strokeWidth=4;spacingTop=-1;spacingBottom=-1;spacingLeft=-1;spacingRight=-1;points=[];labelBackgroundColor=none;rounded=0;html=1;whiteSpace=wrap;movable=0;resizable=0;rotatable=0;deletable=0;editable=0;locked=1;connectable=0;" parent="1" vertex="1">
            <mxGeometry x="752" y="2218" width="65" height="38" as="geometry" />
          </mxCell>
        </UserObject>
        <UserObject label="" tags="Фон" id="23">
          <mxCell style="vsdxID=1;edgeStyle=none;startArrow=none;endArrow=none;startSize=5;endSize=5;strokeWidth=4;spacingTop=0;spacingBottom=0;spacingLeft=0;spacingRight=0;verticalAlign=middle;html=1;labelBackgroundColor=#ffffff;rounded=0;movable=0;resizable=0;rotatable=0;deletable=0;editable=0;locked=1;connectable=0;" parent="1" edge="1">
            <mxGeometry relative="1" as="geometry">
              <Array as="points" />
              <mxPoint x="820" y="2107" as="sourcePoint" />
              <mxPoint x="820" y="2327" as="targetPoint" />
            </mxGeometry>
          </mxCell>
        </UserObject>
        <mxCell id="eBoRxPN_u-8wkZOiGEBF-51" value="&lt;font size=&quot;1&quot; face=&quot;Arial&quot;&gt;&lt;i style=&quot;font-size: 14px;&quot;&gt;Разраб.&lt;/i&gt;&lt;/font&gt;" style="text;strokeColor=none;align=left;fillColor=none;html=1;verticalAlign=middle;whiteSpace=wrap;rounded=0;movable=0;resizable=0;rotatable=0;deletable=0;editable=0;locked=1;connectable=0;" parent="1" vertex="1">
          <mxGeometry x="82" y="2227" width="60" height="20" as="geometry" />
        </mxCell>
        <mxCell id="eBoRxPN_u-8wkZOiGEBF-52" value="&lt;font size=&quot;1&quot; face=&quot;Arial&quot;&gt;&lt;i style=&quot;font-size: 14px;&quot;&gt;Пров.&lt;/i&gt;&lt;/font&gt;" style="text;strokeColor=none;align=left;fillColor=none;html=1;verticalAlign=middle;whiteSpace=wrap;rounded=0;movable=0;resizable=0;rotatable=0;deletable=0;editable=0;locked=1;connectable=0;" parent="1" vertex="1">
          <mxGeometry x="82" y="2247" width="60" height="20" as="geometry" />
        </mxCell>
        <mxCell id="_sERkGHIxASWAdoTfHKY-407" value="схема" parent="0" />
        <mxCell id="_sERkGHIxASWAdoTfHKY-408" value="&lt;span style=&quot;font-size: 11px;&quot;&gt;GE/3&lt;/span&gt;" style="text;html=1;strokeColor=none;fillColor=none;align=right;verticalAlign=middle;whiteSpace=wrap;rounded=0;dashed=1;fillStyle=auto;strokeWidth=2;fontFamily=Arial;fontSize=11;fontStyle=2" vertex="1" parent="_sERkGHIxASWAdoTfHKY-407">
          <mxGeometry x="1524.1599999999999" y="1649.68" width="40" height="20" as="geometry" />
        </mxCell>
        <mxCell id="_sERkGHIxASWAdoTfHKY-409" value="&lt;span style=&quot;font-size: 11px;&quot;&gt;GE/2&lt;/span&gt;" style="text;html=1;strokeColor=none;fillColor=none;align=right;verticalAlign=middle;whiteSpace=wrap;rounded=0;dashed=1;fillStyle=auto;strokeWidth=2;fontFamily=Arial;fontSize=11;fontStyle=2" vertex="1" parent="_sERkGHIxASWAdoTfHKY-407">
          <mxGeometry x="1565.1599999999999" y="1649.68" width="40" height="20" as="geometry" />
        </mxCell>
        <mxCell id="_sERkGHIxASWAdoTfHKY-410" value="&lt;span style=&quot;font-size: 11px;&quot;&gt;GE/0&lt;/span&gt;" style="text;html=1;strokeColor=none;fillColor=none;align=right;verticalAlign=middle;whiteSpace=wrap;rounded=0;dashed=1;fillStyle=auto;strokeWidth=2;fontFamily=Arial;fontSize=11;fontStyle=2" vertex="1" parent="_sERkGHIxASWAdoTfHKY-407">
          <mxGeometry x="2727.16" y="1410" width="40" height="20" as="geometry" />
        </mxCell>
        <mxCell id="_sERkGHIxASWAdoTfHKY-411" value="&lt;span style=&quot;font-size: 11px;&quot;&gt;GE/48&lt;/span&gt;" style="text;html=1;strokeColor=none;fillColor=none;align=right;verticalAlign=middle;whiteSpace=wrap;rounded=0;dashed=1;fillStyle=auto;strokeWidth=2;fontFamily=Arial;fontSize=11;fontStyle=2" vertex="1" parent="_sERkGHIxASWAdoTfHKY-407">
          <mxGeometry x="1567.1599999999999" y="1470" width="40" height="20" as="geometry" />
        </mxCell>
        <mxCell id="_sERkGHIxASWAdoTfHKY-412" value="&lt;span style=&quot;font-size: 11px;&quot;&gt;GE/47&lt;/span&gt;" style="text;html=1;strokeColor=none;fillColor=none;align=right;verticalAlign=middle;whiteSpace=wrap;rounded=0;dashed=1;fillStyle=auto;strokeWidth=2;fontFamily=Arial;fontSize=11;fontStyle=2" vertex="1" parent="_sERkGHIxASWAdoTfHKY-407">
          <mxGeometry x="1527.1599999999999" y="1470" width="40" height="20" as="geometry" />
        </mxCell>
        <mxCell id="_sERkGHIxASWAdoTfHKY-413" value="&lt;span style=&quot;font-size: 11px;&quot;&gt;GE/46&lt;/span&gt;" style="text;html=1;strokeColor=none;fillColor=none;align=right;verticalAlign=middle;whiteSpace=wrap;rounded=0;dashed=1;fillStyle=auto;strokeWidth=2;fontFamily=Arial;fontSize=11;fontStyle=2" vertex="1" parent="_sERkGHIxASWAdoTfHKY-407">
          <mxGeometry x="1447.1599999999999" y="1470" width="40" height="20" as="geometry" />
        </mxCell>
        <mxCell id="_sERkGHIxASWAdoTfHKY-414" value="&lt;span style=&quot;font-size: 11px;&quot;&gt;GE/0&lt;/span&gt;" style="text;html=1;strokeColor=none;fillColor=none;align=left;verticalAlign=middle;whiteSpace=wrap;rounded=0;dashed=1;fillStyle=auto;strokeWidth=2;fontFamily=Arial;fontSize=11;fontStyle=2" vertex="1" parent="_sERkGHIxASWAdoTfHKY-407">
          <mxGeometry x="2687.16" y="1390" width="40" height="20" as="geometry" />
        </mxCell>
        <mxCell id="_sERkGHIxASWAdoTfHKY-415" value="&lt;span style=&quot;font-size: 11px;&quot;&gt;GE/0&lt;/span&gt;" style="text;html=1;strokeColor=none;fillColor=none;align=left;verticalAlign=middle;whiteSpace=wrap;rounded=0;dashed=1;fillStyle=auto;strokeWidth=2;fontFamily=Arial;fontSize=11;fontStyle=2" vertex="1" parent="_sERkGHIxASWAdoTfHKY-407">
          <mxGeometry x="1847.1599999999999" y="1450" width="40" height="20" as="geometry" />
        </mxCell>
        <mxCell id="_sERkGHIxASWAdoTfHKY-416" value="&lt;span style=&quot;font-size: 11px;&quot;&gt;GE/0&lt;/span&gt;" style="text;html=1;strokeColor=none;fillColor=none;align=left;verticalAlign=middle;whiteSpace=wrap;rounded=0;dashed=1;fillStyle=auto;strokeWidth=2;fontFamily=Arial;fontSize=11;fontStyle=2" vertex="1" parent="_sERkGHIxASWAdoTfHKY-407">
          <mxGeometry x="2007.1599999999999" y="1450" width="40" height="20" as="geometry" />
        </mxCell>
        <mxCell id="_sERkGHIxASWAdoTfHKY-417" value="&lt;span style=&quot;font-size: 11px;&quot;&gt;GE/1&lt;/span&gt;" style="text;html=1;strokeColor=none;fillColor=none;align=right;verticalAlign=middle;whiteSpace=wrap;rounded=0;dashed=1;fillStyle=auto;strokeWidth=2;fontFamily=Arial;fontSize=11;fontStyle=2" vertex="1" parent="_sERkGHIxASWAdoTfHKY-407">
          <mxGeometry x="1807.1599999999999" y="1470" width="40" height="20" as="geometry" />
        </mxCell>
        <mxCell id="_sERkGHIxASWAdoTfHKY-418" value="&lt;span style=&quot;font-size: 11px;&quot;&gt;GE/2&lt;/span&gt;" style="text;html=1;strokeColor=none;fillColor=none;align=right;verticalAlign=middle;whiteSpace=wrap;rounded=0;dashed=1;fillStyle=auto;strokeWidth=2;fontFamily=Arial;fontSize=11;fontStyle=2" vertex="1" parent="_sERkGHIxASWAdoTfHKY-407">
          <mxGeometry x="1966.1599999999999" y="1470" width="40" height="20" as="geometry" />
        </mxCell>
        <mxCell id="_sERkGHIxASWAdoTfHKY-419" value="&lt;span style=&quot;font-size: 11px;&quot;&gt;GE/20&lt;/span&gt;" style="text;html=1;strokeColor=none;fillColor=none;align=right;verticalAlign=middle;whiteSpace=wrap;rounded=0;dashed=1;fillStyle=auto;strokeWidth=2;fontFamily=Arial;fontSize=11;fontStyle=2" vertex="1" parent="_sERkGHIxASWAdoTfHKY-407">
          <mxGeometry x="1966.1599999999999" y="1490" width="40" height="20" as="geometry" />
        </mxCell>
        <mxCell id="_sERkGHIxASWAdoTfHKY-420" value="&lt;span style=&quot;font-size: 11px;&quot;&gt;GE/3&lt;/span&gt;" style="text;html=1;strokeColor=none;fillColor=none;align=right;verticalAlign=middle;whiteSpace=wrap;rounded=0;dashed=1;fillStyle=auto;strokeWidth=2;fontFamily=Arial;fontSize=11;fontStyle=2" vertex="1" parent="_sERkGHIxASWAdoTfHKY-407">
          <mxGeometry x="1807.1599999999999" y="1490" width="40" height="20" as="geometry" />
        </mxCell>
        <mxCell id="_sERkGHIxASWAdoTfHKY-421" value="&lt;span style=&quot;font-size: 11px;&quot;&gt;GE/0&lt;/span&gt;" style="text;html=1;strokeColor=none;fillColor=none;align=right;verticalAlign=middle;whiteSpace=wrap;rounded=0;dashed=1;fillStyle=auto;strokeWidth=2;fontFamily=Arial;fontSize=11;fontStyle=2" vertex="1" parent="_sERkGHIxASWAdoTfHKY-407">
          <mxGeometry x="2086.16" y="1490" width="40" height="20" as="geometry" />
        </mxCell>
        <mxCell id="_sERkGHIxASWAdoTfHKY-422" value="&lt;span style=&quot;font-size: 11px;&quot;&gt;GE/42&lt;/span&gt;" style="text;html=1;strokeColor=none;fillColor=none;align=left;verticalAlign=middle;whiteSpace=wrap;rounded=0;dashed=1;fillStyle=auto;strokeWidth=2;fontFamily=Arial;fontSize=11;fontStyle=2" vertex="1" parent="_sERkGHIxASWAdoTfHKY-407">
          <mxGeometry x="2046.1599999999999" y="1470" width="40" height="20" as="geometry" />
        </mxCell>
        <mxCell id="_sERkGHIxASWAdoTfHKY-423" value="&lt;span style=&quot;font-size: 11px;&quot;&gt;GE/0&lt;/span&gt;" style="text;html=1;strokeColor=none;fillColor=none;align=left;verticalAlign=middle;whiteSpace=wrap;rounded=0;dashed=1;fillStyle=auto;strokeWidth=2;fontFamily=Arial;fontSize=11;fontStyle=2" vertex="1" parent="_sERkGHIxASWAdoTfHKY-407">
          <mxGeometry x="1847.1599999999999" y="1520" width="40" height="20" as="geometry" />
        </mxCell>
        <mxCell id="_sERkGHIxASWAdoTfHKY-424" value="&lt;span style=&quot;font-size: 11px;&quot;&gt;GE/0&lt;/span&gt;" style="text;html=1;strokeColor=none;fillColor=none;align=left;verticalAlign=middle;whiteSpace=wrap;rounded=0;dashed=1;fillStyle=auto;strokeWidth=2;fontFamily=Arial;fontSize=11;fontStyle=2" vertex="1" parent="_sERkGHIxASWAdoTfHKY-407">
          <mxGeometry x="2007.1599999999999" y="1520" width="40" height="20" as="geometry" />
        </mxCell>
        <mxCell id="_sERkGHIxASWAdoTfHKY-425" value="&lt;span style=&quot;font-size: 11px;&quot;&gt;GE/0&lt;/span&gt;" style="text;html=1;strokeColor=none;fillColor=none;align=left;verticalAlign=middle;whiteSpace=wrap;rounded=0;dashed=1;fillStyle=auto;strokeWidth=2;fontFamily=Arial;fontSize=11;fontStyle=2" vertex="1" parent="_sERkGHIxASWAdoTfHKY-407">
          <mxGeometry x="1327.1599999999999" y="1490" width="40" height="20" as="geometry" />
        </mxCell>
        <mxCell id="_sERkGHIxASWAdoTfHKY-426" value="&lt;span style=&quot;font-size: 11px;&quot;&gt;GE/41&lt;/span&gt;" style="text;html=1;strokeColor=none;fillColor=none;align=right;verticalAlign=middle;whiteSpace=wrap;rounded=0;dashed=1;fillStyle=auto;strokeWidth=2;fontFamily=Arial;fontSize=11;fontStyle=2" vertex="1" parent="_sERkGHIxASWAdoTfHKY-407">
          <mxGeometry x="1367.1599999999999" y="1470" width="40" height="20" as="geometry" />
        </mxCell>
        <mxCell id="_sERkGHIxASWAdoTfHKY-427" value="&lt;span style=&quot;font-size: 11px;&quot;&gt;GE/45&lt;/span&gt;" style="text;html=1;strokeColor=none;fillColor=none;align=right;verticalAlign=middle;whiteSpace=wrap;rounded=0;dashed=1;fillStyle=auto;strokeWidth=2;fontFamily=Arial;fontSize=11;fontStyle=2" vertex="1" parent="_sERkGHIxASWAdoTfHKY-407">
          <mxGeometry x="1407.1599999999999" y="1470" width="40" height="20" as="geometry" />
        </mxCell>
        <mxCell id="_sERkGHIxASWAdoTfHKY-428" value="USB-B" style="text;html=1;strokeColor=none;fillColor=none;align=left;verticalAlign=middle;whiteSpace=wrap;rounded=0;dashed=1;fillStyle=auto;strokeWidth=2;fontFamily=Arial;fontSize=11;fontStyle=2" vertex="1" parent="_sERkGHIxASWAdoTfHKY-407">
          <mxGeometry x="1709.3625000000002" y="1417.7325" width="40" height="20" as="geometry" />
        </mxCell>
        <mxCell id="_sERkGHIxASWAdoTfHKY-429" value="USB-A" style="text;html=1;strokeColor=none;fillColor=none;align=right;verticalAlign=middle;whiteSpace=wrap;rounded=0;dashed=1;fillStyle=auto;strokeWidth=2;fontFamily=Arial;fontSize=11;fontStyle=2" vertex="1" parent="_sERkGHIxASWAdoTfHKY-407">
          <mxGeometry x="1779.5650000000005" y="1389.565" width="40" height="20" as="geometry" />
        </mxCell>
        <mxCell id="_sERkGHIxASWAdoTfHKY-430" value="USB-A" style="text;html=1;strokeColor=none;fillColor=none;align=left;verticalAlign=middle;whiteSpace=wrap;rounded=0;dashed=1;fillStyle=auto;strokeWidth=2;fontFamily=Arial;fontSize=11;fontStyle=2" vertex="1" parent="_sERkGHIxASWAdoTfHKY-407">
          <mxGeometry x="2034.4574999999995" y="1387.5675" width="40" height="20" as="geometry" />
        </mxCell>
        <mxCell id="_sERkGHIxASWAdoTfHKY-431" value="USB-B" style="text;html=1;strokeColor=none;fillColor=none;align=right;verticalAlign=middle;whiteSpace=wrap;rounded=0;dashed=1;fillStyle=auto;strokeWidth=2;fontFamily=Arial;fontSize=11;fontStyle=2" vertex="1" parent="_sERkGHIxASWAdoTfHKY-407">
          <mxGeometry x="2087.375" y="1417.7350000000001" width="40" height="20" as="geometry" />
        </mxCell>
        <mxCell id="_sERkGHIxASWAdoTfHKY-432" value="&lt;span style=&quot;font-size: 11px;&quot;&gt;Line&lt;/span&gt;" style="text;html=1;strokeColor=none;fillColor=none;align=left;verticalAlign=middle;whiteSpace=wrap;rounded=0;dashed=1;fillStyle=auto;strokeWidth=2;fontFamily=Arial;fontSize=11;fontStyle=2" vertex="1" parent="_sERkGHIxASWAdoTfHKY-407">
          <mxGeometry x="2806.9025" y="1423.8425" width="40" height="20" as="geometry" />
        </mxCell>
        <mxCell id="_sERkGHIxASWAdoTfHKY-433" style="edgeStyle=orthogonalEdgeStyle;rounded=0;orthogonalLoop=1;jettySize=auto;html=1;exitX=0.28;exitY=0.5;exitDx=0;exitDy=0;exitPerimeter=0;strokeWidth=1;fontFamily=Arial;fontSize=14;endArrow=none;endFill=0;dashed=1;align=center;fontStyle=2" edge="1" parent="_sERkGHIxASWAdoTfHKY-407" source="_sERkGHIxASWAdoTfHKY-455">
          <mxGeometry relative="1" as="geometry">
            <mxPoint x="2207.16" y="1500" as="targetPoint" />
            <Array as="points">
              <mxPoint x="2247.16" y="1570" />
              <mxPoint x="2247.16" y="1500" />
            </Array>
          </mxGeometry>
        </mxCell>
        <mxCell id="_sERkGHIxASWAdoTfHKY-434" style="edgeStyle=orthogonalEdgeStyle;rounded=0;orthogonalLoop=1;jettySize=auto;html=1;strokeWidth=1;fontFamily=Arial;fontSize=14;endArrow=none;endFill=0;exitX=0.28;exitY=0.5;exitDx=0;exitDy=0;exitPerimeter=0;dashed=1;align=center;fontStyle=2" edge="1" parent="_sERkGHIxASWAdoTfHKY-407" source="_sERkGHIxASWAdoTfHKY-454" target="_sERkGHIxASWAdoTfHKY-453">
          <mxGeometry relative="1" as="geometry">
            <mxPoint x="2166.16" y="1477" as="targetPoint" />
            <Array as="points">
              <mxPoint x="2247.16" y="1410" />
              <mxPoint x="2247.16" y="1480" />
            </Array>
          </mxGeometry>
        </mxCell>
        <mxCell id="_sERkGHIxASWAdoTfHKY-435" style="edgeStyle=orthogonalEdgeStyle;rounded=0;orthogonalLoop=1;jettySize=auto;html=1;strokeWidth=1;fontFamily=Arial;fontSize=14;endArrow=none;endFill=0;dashed=1;align=center;fontStyle=2" edge="1" parent="_sERkGHIxASWAdoTfHKY-407">
          <mxGeometry relative="1" as="geometry">
            <mxPoint x="1257.1599999999999" y="1480" as="targetPoint" />
            <mxPoint x="1167.16" y="1410" as="sourcePoint" />
            <Array as="points">
              <mxPoint x="1207.16" y="1410" />
              <mxPoint x="1207.16" y="1480" />
              <mxPoint x="1265.1599999999999" y="1480" />
            </Array>
          </mxGeometry>
        </mxCell>
        <mxCell id="_sERkGHIxASWAdoTfHKY-436" style="edgeStyle=orthogonalEdgeStyle;rounded=0;orthogonalLoop=1;jettySize=auto;html=1;strokeWidth=1;fontFamily=Arial;fontSize=14;endArrow=none;endFill=0;dashed=1;align=center;fontStyle=2" edge="1" parent="_sERkGHIxASWAdoTfHKY-407" target="_sERkGHIxASWAdoTfHKY-459">
          <mxGeometry relative="1" as="geometry">
            <mxPoint x="1265.1599999999999" y="1517" as="targetPoint" />
            <mxPoint x="1167.16" y="1570" as="sourcePoint" />
            <Array as="points">
              <mxPoint x="1167.16" y="1570" />
              <mxPoint x="1207.16" y="1570" />
              <mxPoint x="1207.16" y="1500" />
            </Array>
          </mxGeometry>
        </mxCell>
        <mxCell id="_sERkGHIxASWAdoTfHKY-437" style="edgeStyle=orthogonalEdgeStyle;rounded=0;orthogonalLoop=1;jettySize=auto;html=1;strokeWidth=1;fontFamily=Arial;fontSize=14;endArrow=none;endFill=0;align=center;fontStyle=2" edge="1" parent="_sERkGHIxASWAdoTfHKY-407">
          <mxGeometry relative="1" as="geometry">
            <mxPoint x="2687.16" y="1410" as="targetPoint" />
            <mxPoint x="2767.16" y="1410" as="sourcePoint" />
            <Array as="points">
              <mxPoint x="2757.16" y="1410" />
              <mxPoint x="2717.16" y="1410" />
            </Array>
          </mxGeometry>
        </mxCell>
        <mxCell id="_sERkGHIxASWAdoTfHKY-438" style="edgeStyle=orthogonalEdgeStyle;rounded=0;orthogonalLoop=1;jettySize=auto;html=1;fontSize=23;endArrow=none;endFill=0;fontFamily=Arial;exitX=0;exitY=1;exitDx=0;exitDy=0;align=center;fontStyle=2" edge="1" parent="_sERkGHIxASWAdoTfHKY-407">
          <mxGeometry relative="1" as="geometry">
            <mxPoint x="1604.79" y="1670" as="targetPoint" />
            <mxPoint x="1607.1599999999999" y="1489.9999999999998" as="sourcePoint" />
            <Array as="points">
              <mxPoint x="1604.79" y="1490" />
            </Array>
          </mxGeometry>
        </mxCell>
        <mxCell id="_sERkGHIxASWAdoTfHKY-439" style="edgeStyle=orthogonalEdgeStyle;rounded=0;orthogonalLoop=1;jettySize=auto;html=1;fontSize=23;endArrow=none;endFill=0;fontFamily=Arial;align=center;fontStyle=2;strokeWidth=1;" edge="1" parent="_sERkGHIxASWAdoTfHKY-407">
          <mxGeometry relative="1" as="geometry">
            <mxPoint x="1564.79" y="1670" as="targetPoint" />
            <mxPoint x="1564.79" y="1493" as="sourcePoint" />
          </mxGeometry>
        </mxCell>
        <mxCell id="_sERkGHIxASWAdoTfHKY-440" style="edgeStyle=orthogonalEdgeStyle;rounded=0;orthogonalLoop=1;jettySize=auto;html=1;strokeWidth=1;fontFamily=Arial;fontSize=14;endArrow=none;endFill=0;align=center;fontStyle=2" edge="1" parent="_sERkGHIxASWAdoTfHKY-407" source="_sERkGHIxASWAdoTfHKY-453">
          <mxGeometry relative="1" as="geometry">
            <mxPoint x="2047.1599999999999" y="1490" as="targetPoint" />
            <Array as="points">
              <mxPoint x="2087.16" y="1491" />
            </Array>
          </mxGeometry>
        </mxCell>
        <mxCell id="_sERkGHIxASWAdoTfHKY-441" style="edgeStyle=orthogonalEdgeStyle;rounded=0;orthogonalLoop=1;jettySize=auto;html=1;strokeWidth=1;fontFamily=Arial;fontSize=14;endArrow=none;endFill=0;align=center;fontStyle=2" edge="1" parent="_sERkGHIxASWAdoTfHKY-407">
          <mxGeometry relative="1" as="geometry">
            <mxPoint x="1407.1599999999999" y="1490" as="targetPoint" />
            <mxPoint x="1327.1599999999999" y="1490" as="sourcePoint" />
            <Array as="points">
              <mxPoint x="1327.1599999999999" y="1490" />
              <mxPoint x="1327.1599999999999" y="1490" />
            </Array>
          </mxGeometry>
        </mxCell>
        <mxCell id="_sERkGHIxASWAdoTfHKY-442" style="edgeStyle=orthogonalEdgeStyle;rounded=0;orthogonalLoop=1;jettySize=auto;html=1;exitX=0;exitY=0;exitDx=0;exitDy=0;endArrow=none;endFill=0;fontFamily=Arial;align=center;fontStyle=2" edge="1" parent="_sERkGHIxASWAdoTfHKY-407" source="_sERkGHIxASWAdoTfHKY-415" target="_sERkGHIxASWAdoTfHKY-456">
          <mxGeometry relative="1" as="geometry">
            <mxPoint x="1847.1599999999999" y="1530" as="targetPoint" />
            <Array as="points">
              <mxPoint x="1847.1599999999999" y="1520" />
              <mxPoint x="1847.1599999999999" y="1520" />
            </Array>
          </mxGeometry>
        </mxCell>
        <mxCell id="_sERkGHIxASWAdoTfHKY-443" style="edgeStyle=orthogonalEdgeStyle;rounded=0;orthogonalLoop=1;jettySize=auto;html=1;exitX=0;exitY=0;exitDx=0;exitDy=0;endArrow=none;endFill=0;fontFamily=Arial;align=center;fontStyle=2" edge="1" parent="_sERkGHIxASWAdoTfHKY-407" target="_sERkGHIxASWAdoTfHKY-457">
          <mxGeometry relative="1" as="geometry">
            <mxPoint x="2007.1599999999999" y="1530" as="targetPoint" />
            <mxPoint x="2007.1599999999999" y="1450" as="sourcePoint" />
            <Array as="points">
              <mxPoint x="2007.1599999999999" y="1520" />
              <mxPoint x="2007.1599999999999" y="1520" />
            </Array>
          </mxGeometry>
        </mxCell>
        <mxCell id="_sERkGHIxASWAdoTfHKY-444" value="" style="edgeStyle=orthogonalEdgeStyle;rounded=0;orthogonalLoop=1;jettySize=auto;html=1;endArrow=none;endFill=0;fontFamily=Arial;align=center;fontStyle=2;" edge="1" parent="_sERkGHIxASWAdoTfHKY-407">
          <mxGeometry relative="1" as="geometry">
            <mxPoint x="2034.1599999999999" y="1412.52" as="targetPoint" />
            <mxPoint x="2127.16" y="1412.52" as="sourcePoint" />
          </mxGeometry>
        </mxCell>
        <mxCell id="_sERkGHIxASWAdoTfHKY-445" value="" style="edgeStyle=orthogonalEdgeStyle;rounded=0;orthogonalLoop=1;jettySize=auto;html=1;endArrow=none;endFill=0;fontFamily=Arial;align=center;fontStyle=2;" edge="1" parent="_sERkGHIxASWAdoTfHKY-407">
          <mxGeometry relative="1" as="geometry">
            <mxPoint x="1687.1599999999999" y="1412.5200000000002" as="targetPoint" />
            <mxPoint x="1820.79" y="1412.5200000000002" as="sourcePoint" />
          </mxGeometry>
        </mxCell>
        <mxCell id="_sERkGHIxASWAdoTfHKY-446" style="rounded=0;orthogonalLoop=1;jettySize=auto;html=1;strokeWidth=1;fontFamily=Arial;startArrow=none;startFill=0;endArrow=none;endFill=0;entryX=0.5;entryY=0;entryDx=0;entryDy=0;edgeStyle=orthogonalEdgeStyle;fontStyle=2" edge="1" parent="_sERkGHIxASWAdoTfHKY-407" source="_sERkGHIxASWAdoTfHKY-447">
          <mxGeometry relative="1" as="geometry">
            <mxPoint x="2807.16" y="1533.9" as="targetPoint" />
          </mxGeometry>
        </mxCell>
        <mxCell id="_sERkGHIxASWAdoTfHKY-447" value="" style="shape=mxgraph.cisco.modems_and_phones.modem;sketch=0;html=1;pointerEvents=1;dashed=0;fillColor=#000000;strokeColor=#E6E6E6;strokeWidth=2;verticalLabelPosition=bottom;verticalAlign=top;align=center;outlineConnect=0;fontSize=23;fillStyle=auto;aspect=fixed;fontFamily=Arial;fontStyle=2" vertex="1" parent="_sERkGHIxASWAdoTfHKY-407">
          <mxGeometry x="2767.16" y="1396" width="80" height="28.49" as="geometry" />
        </mxCell>
        <mxCell id="_sERkGHIxASWAdoTfHKY-448" value="" style="shape=mxgraph.cisco.routers.router;sketch=0;html=1;pointerEvents=1;dashed=0;fillColor=#000000;strokeColor=#E6E6E6;strokeWidth=2;verticalLabelPosition=bottom;verticalAlign=top;align=center;outlineConnect=0;fontSize=23;fillStyle=auto;aspect=fixed;fontFamily=Arial;fontStyle=2" vertex="1" parent="_sERkGHIxASWAdoTfHKY-407">
          <mxGeometry x="2607.79" y="1383" width="78.74" height="54.36" as="geometry" />
        </mxCell>
        <mxCell id="_sERkGHIxASWAdoTfHKY-449" value="" style="shape=mxgraph.cisco.switches.workgroup_switch;sketch=0;html=1;pointerEvents=1;dashed=0;fillColor=#000000;strokeColor=#E6E6E6;strokeWidth=2;verticalLabelPosition=bottom;verticalAlign=top;align=center;outlineConnect=0;fontSize=23;fillStyle=auto;aspect=fixed;fontFamily=Arial;fontStyle=2" vertex="1" parent="_sERkGHIxASWAdoTfHKY-407">
          <mxGeometry x="1647.1599999999999" y="1467.8735" width="78.74" height="44.44" as="geometry" />
        </mxCell>
        <mxCell id="_sERkGHIxASWAdoTfHKY-450" value="" style="shape=mxgraph.cisco.computers_and_peripherals.pc;sketch=0;html=1;pointerEvents=1;dashed=0;fillColor=#000000;strokeColor=#E6E6E6;strokeWidth=2;verticalLabelPosition=bottom;verticalAlign=top;align=center;outlineConnect=0;fontSize=23;fillStyle=auto;aspect=fixed;fontFamily=Arial;fontStyle=2" vertex="1" parent="_sERkGHIxASWAdoTfHKY-407">
          <mxGeometry x="1807.1599999999999" y="1378" width="78.74" height="71.8" as="geometry" />
        </mxCell>
        <mxCell id="_sERkGHIxASWAdoTfHKY-451" value="" style="shape=mxgraph.cisco.computers_and_peripherals.printer;sketch=0;html=1;pointerEvents=1;dashed=0;fillColor=#000000;strokeColor=#E6E6E6;strokeWidth=2;verticalLabelPosition=bottom;verticalAlign=top;align=center;outlineConnect=0;fontSize=23;fillStyle=auto;aspect=fixed;fontFamily=Arial;fontStyle=2" vertex="1" parent="_sERkGHIxASWAdoTfHKY-407">
          <mxGeometry x="2127.16" y="1397.52" width="78.74" height="29.88" as="geometry" />
        </mxCell>
        <mxCell id="_sERkGHIxASWAdoTfHKY-452" value="" style="shape=mxgraph.cisco.computers_and_peripherals.pc;sketch=0;html=1;pointerEvents=1;dashed=0;fillColor=#000000;strokeColor=#E6E6E6;strokeWidth=2;verticalLabelPosition=bottom;verticalAlign=top;align=center;outlineConnect=0;fontSize=23;fillStyle=auto;aspect=fixed;fontFamily=Arial;fontStyle=2" vertex="1" parent="_sERkGHIxASWAdoTfHKY-407">
          <mxGeometry x="1968.1599999999999" y="1378" width="78.74" height="71.8" as="geometry" />
        </mxCell>
        <mxCell id="_sERkGHIxASWAdoTfHKY-453" value="" style="shape=mxgraph.cisco.misc.access_point;html=1;pointerEvents=1;dashed=0;fillColor=#000000;strokeColor=#E6E6E6;strokeWidth=2;verticalLabelPosition=bottom;verticalAlign=top;align=center;outlineConnect=0;fillStyle=auto;fontSize=23;aspect=fixed;fontFamily=Arial;fontStyle=2" vertex="1" parent="_sERkGHIxASWAdoTfHKY-407">
          <mxGeometry x="2127.16" y="1472.42" width="78.74" height="36.26" as="geometry" />
        </mxCell>
        <mxCell id="_sERkGHIxASWAdoTfHKY-454" value="" style="shape=mxgraph.cisco.computers_and_peripherals.laptop;sketch=0;html=1;pointerEvents=1;dashed=0;fillColor=#000000;strokeColor=#E6E6E6;strokeWidth=2;verticalLabelPosition=bottom;verticalAlign=top;align=center;outlineConnect=0;fillStyle=auto;fontSize=23;aspect=fixed;fontFamily=Arial;fontStyle=2" vertex="1" parent="_sERkGHIxASWAdoTfHKY-407">
          <mxGeometry x="2287.16" y="1383" width="78.74" height="54.22" as="geometry" />
        </mxCell>
        <mxCell id="_sERkGHIxASWAdoTfHKY-455" value="" style="shape=mxgraph.cisco.computers_and_peripherals.laptop;sketch=0;html=1;pointerEvents=1;dashed=0;fillColor=#000000;strokeColor=#E6E6E6;strokeWidth=2;verticalLabelPosition=bottom;verticalAlign=top;align=center;outlineConnect=0;fillStyle=auto;fontSize=23;aspect=fixed;fontFamily=Arial;fontStyle=2" vertex="1" parent="_sERkGHIxASWAdoTfHKY-407">
          <mxGeometry x="2287.16" y="1543" width="78.74" height="54.22" as="geometry" />
        </mxCell>
        <mxCell id="_sERkGHIxASWAdoTfHKY-456" value="" style="shape=mxgraph.cisco.computers_and_peripherals.pc;sketch=0;html=1;pointerEvents=1;dashed=0;fillColor=#000000;strokeColor=#E6E6E6;strokeWidth=2;verticalLabelPosition=bottom;verticalAlign=top;align=center;outlineConnect=0;fontSize=23;fillStyle=auto;aspect=fixed;fontFamily=Arial;fontStyle=2" vertex="1" parent="_sERkGHIxASWAdoTfHKY-407">
          <mxGeometry x="1807.1599999999999" y="1538" width="78.74" height="71.8" as="geometry" />
        </mxCell>
        <mxCell id="_sERkGHIxASWAdoTfHKY-457" value="" style="shape=mxgraph.cisco.computers_and_peripherals.pc;sketch=0;html=1;pointerEvents=1;dashed=0;fillColor=#000000;strokeColor=#E6E6E6;strokeWidth=2;verticalLabelPosition=bottom;verticalAlign=top;align=center;outlineConnect=0;fontSize=23;fillStyle=auto;aspect=fixed;fontFamily=Arial;fontStyle=2" vertex="1" parent="_sERkGHIxASWAdoTfHKY-407">
          <mxGeometry x="1967.1599999999999" y="1538" width="78.74" height="71.8" as="geometry" />
        </mxCell>
        <mxCell id="_sERkGHIxASWAdoTfHKY-458" value="" style="shape=mxgraph.cisco.computers_and_peripherals.laptop;sketch=0;html=1;pointerEvents=1;dashed=0;fillColor=#000000;strokeColor=#E6E6E6;strokeWidth=2;verticalLabelPosition=bottom;verticalAlign=top;align=center;outlineConnect=0;fillStyle=auto;fontSize=23;aspect=fixed;fontFamily=Arial;container=0;fontStyle=2" vertex="1" parent="_sERkGHIxASWAdoTfHKY-407">
          <mxGeometry x="1087.16" y="1543" width="78.74" height="54.22" as="geometry" />
        </mxCell>
        <mxCell id="_sERkGHIxASWAdoTfHKY-459" value="" style="shape=mxgraph.cisco.misc.access_point;html=1;pointerEvents=1;dashed=0;fillColor=#000000;strokeColor=#E6E6E6;strokeWidth=2;verticalLabelPosition=bottom;verticalAlign=top;align=center;outlineConnect=0;fillStyle=auto;fontSize=23;aspect=fixed;fontFamily=Arial;container=0;fontStyle=2" vertex="1" parent="_sERkGHIxASWAdoTfHKY-407">
          <mxGeometry x="1247.1599999999999" y="1472.42" width="78.74" height="36.26" as="geometry" />
        </mxCell>
        <mxCell id="_sERkGHIxASWAdoTfHKY-460" value="" style="shape=mxgraph.cisco.computers_and_peripherals.laptop;sketch=0;html=1;pointerEvents=1;dashed=0;fillColor=#000000;strokeColor=#E6E6E6;strokeWidth=2;verticalLabelPosition=bottom;verticalAlign=top;align=center;outlineConnect=0;fillStyle=auto;fontSize=23;aspect=fixed;fontFamily=Arial;container=0;fontStyle=2" vertex="1" parent="_sERkGHIxASWAdoTfHKY-407">
          <mxGeometry x="1087.16" y="1383" width="78.74" height="54.17" as="geometry" />
        </mxCell>
        <mxCell id="_sERkGHIxASWAdoTfHKY-461" value="" style="shape=mxgraph.cisco.computers_and_peripherals.printer;sketch=0;html=1;pointerEvents=1;dashed=0;fillColor=#000000;strokeColor=#E6E6E6;strokeWidth=2;verticalLabelPosition=bottom;verticalAlign=top;align=center;outlineConnect=0;fontSize=23;fillStyle=auto;aspect=fixed;fontFamily=Arial;fontStyle=2" vertex="1" parent="_sERkGHIxASWAdoTfHKY-407">
          <mxGeometry x="1647.1599999999999" y="1397.5200000000002" width="78.74" height="29.88" as="geometry" />
        </mxCell>
        <mxCell id="_sERkGHIxASWAdoTfHKY-462" style="edgeStyle=orthogonalEdgeStyle;rounded=0;orthogonalLoop=1;jettySize=auto;html=1;fontSize=23;endArrow=none;endFill=0;strokeWidth=3;fontFamily=Arial;entryX=0;entryY=0.5;entryDx=0;entryDy=0;entryPerimeter=0;align=center;fontStyle=2" edge="1" parent="_sERkGHIxASWAdoTfHKY-407">
          <mxGeometry relative="1" as="geometry">
            <mxPoint x="1407.1599999999999" y="1490" as="sourcePoint" />
            <mxPoint x="1647.1599999999999" y="1490.0934999999995" as="targetPoint" />
            <Array as="points">
              <mxPoint x="1587.1599999999999" y="1490" />
              <mxPoint x="1587.1599999999999" y="1490" />
            </Array>
          </mxGeometry>
        </mxCell>
        <mxCell id="_sERkGHIxASWAdoTfHKY-463" style="edgeStyle=orthogonalEdgeStyle;rounded=0;orthogonalLoop=1;jettySize=auto;html=1;fontSize=23;endArrow=none;endFill=0;strokeWidth=3;fontFamily=Arial;align=center;fontStyle=2;entryX=0.5;entryY=1;entryDx=0;entryDy=0;entryPerimeter=0;" edge="1" parent="_sERkGHIxASWAdoTfHKY-407" target="_sERkGHIxASWAdoTfHKY-448">
          <mxGeometry relative="1" as="geometry">
            <mxPoint x="1525.79" y="1670" as="sourcePoint" />
            <mxPoint x="2647.16" y="1580" as="targetPoint" />
            <Array as="points">
              <mxPoint x="1535.79" y="1670" />
              <mxPoint x="2646.79" y="1670" />
            </Array>
          </mxGeometry>
        </mxCell>
        <mxCell id="_sERkGHIxASWAdoTfHKY-464" style="edgeStyle=orthogonalEdgeStyle;rounded=0;orthogonalLoop=1;jettySize=auto;html=1;fontSize=23;endArrow=none;endFill=0;strokeWidth=3;fontFamily=Arial;align=center;fontStyle=2;exitX=0.98;exitY=0.5;exitDx=0;exitDy=0;exitPerimeter=0;" edge="1" parent="_sERkGHIxASWAdoTfHKY-407" source="_sERkGHIxASWAdoTfHKY-449">
          <mxGeometry relative="1" as="geometry">
            <mxPoint x="1727.1599999999999" y="1490" as="sourcePoint" />
            <mxPoint x="2047.1599999999999" y="1490" as="targetPoint" />
            <Array as="points">
              <mxPoint x="1876.79" y="1490" />
            </Array>
          </mxGeometry>
        </mxCell>
        <mxCell id="_sERkGHIxASWAdoTfHKY-465" value="Router" style="text;html=1;strokeColor=none;fillColor=none;align=center;verticalAlign=middle;whiteSpace=wrap;rounded=0;dashed=1;fillStyle=auto;strokeWidth=2;fontFamily=Arial;fontSize=14;fontStyle=2" vertex="1" parent="_sERkGHIxASWAdoTfHKY-407">
          <mxGeometry x="2607.16" y="1340" width="80" height="30" as="geometry" />
        </mxCell>
        <mxCell id="_sERkGHIxASWAdoTfHKY-466" value="Modem" style="text;html=1;strokeColor=none;fillColor=none;align=center;verticalAlign=middle;whiteSpace=wrap;rounded=0;dashed=1;fillStyle=auto;strokeWidth=2;fontFamily=Arial;fontSize=14;fontStyle=2" vertex="1" parent="_sERkGHIxASWAdoTfHKY-407">
          <mxGeometry x="2767.16" y="1340" width="79.9211" height="30" as="geometry" />
        </mxCell>
        <mxCell id="_sERkGHIxASWAdoTfHKY-467" value="HPE MSR954 1GbE SFP 2GbE-WAN 4GbE-LAN CWv7&lt;br&gt;(JH296A)" style="text;html=1;strokeColor=none;fillColor=none;align=center;verticalAlign=top;whiteSpace=wrap;rounded=0;dashed=1;fillStyle=auto;strokeWidth=2;fontFamily=Arial;fontSize=14;fontStyle=2;container=0;" vertex="1" parent="_sERkGHIxASWAdoTfHKY-407">
          <mxGeometry x="2567.16" y="1450" width="80" height="30" as="geometry" />
        </mxCell>
        <mxCell id="_sERkGHIxASWAdoTfHKY-468" value="TP-Link &lt;br&gt;TD-8616" style="text;html=1;strokeColor=none;fillColor=none;align=center;verticalAlign=middle;whiteSpace=wrap;rounded=0;dashed=1;fillStyle=auto;strokeWidth=2;fontFamily=Arial;fontSize=14;fontStyle=2;container=0;" vertex="1" parent="_sERkGHIxASWAdoTfHKY-407">
          <mxGeometry x="2727.16" y="1450" width="80" height="30" as="geometry" />
        </mxCell>
        <mxCell id="_sERkGHIxASWAdoTfHKY-469" value="S1" style="text;html=1;strokeColor=none;fillColor=none;align=center;verticalAlign=middle;whiteSpace=wrap;rounded=0;dashed=1;fillStyle=auto;strokeWidth=2;fontFamily=Arial;fontSize=14;fontStyle=2" vertex="1" parent="_sERkGHIxASWAdoTfHKY-407">
          <mxGeometry x="1647.1599999999999" y="1450" width="80" height="20" as="geometry" />
        </mxCell>
        <mxCell id="_sERkGHIxASWAdoTfHKY-470" value="Wireless&amp;nbsp;1-6" style="text;html=1;strokeColor=none;fillColor=none;align=center;verticalAlign=middle;whiteSpace=wrap;rounded=0;dashed=1;fillStyle=auto;strokeWidth=2;fontFamily=Arial;fontSize=14;fontStyle=2" vertex="1" parent="_sERkGHIxASWAdoTfHKY-407">
          <mxGeometry x="2287.16" y="1360" width="80" height="20" as="geometry" />
        </mxCell>
        <mxCell id="_sERkGHIxASWAdoTfHKY-471" value="Wireless&amp;nbsp;1-10" style="text;html=1;strokeColor=none;fillColor=none;align=center;verticalAlign=middle;whiteSpace=wrap;rounded=0;dashed=1;fillStyle=auto;strokeWidth=2;fontFamily=Arial;fontSize=14;fontStyle=2" vertex="1" parent="_sERkGHIxASWAdoTfHKY-407">
          <mxGeometry x="2283.54" y="1520" width="88.59" height="20" as="geometry" />
        </mxCell>
        <mxCell id="_sERkGHIxASWAdoTfHKY-472" value="&lt;span&gt;&lt;font style=&quot;font-size: 24px;&quot;&gt;...&lt;/font&gt;&lt;/span&gt;" style="text;html=1;align=center;verticalAlign=middle;resizable=0;points=[];autosize=1;strokeColor=none;fillColor=none;fontSize=23;fontFamily=Arial;fontStyle=2" vertex="1" parent="_sERkGHIxASWAdoTfHKY-407">
          <mxGeometry x="2307.16" y="1470.0000000000002" width="39.37" height="39.37" as="geometry" />
        </mxCell>
        <mxCell id="_sERkGHIxASWAdoTfHKY-473" value="PC 1-2" style="text;html=1;strokeColor=none;fillColor=none;align=center;verticalAlign=middle;whiteSpace=wrap;rounded=0;dashed=1;fillStyle=auto;strokeWidth=2;fontFamily=Arial;fontSize=14;fontStyle=2" vertex="1" parent="_sERkGHIxASWAdoTfHKY-407">
          <mxGeometry x="1966.1599999999999" y="1360" width="80" height="20" as="geometry" />
        </mxCell>
        <mxCell id="_sERkGHIxASWAdoTfHKY-474" value="PC 1-1" style="text;html=1;strokeColor=none;fillColor=none;align=center;verticalAlign=middle;whiteSpace=wrap;rounded=0;dashed=1;fillStyle=auto;strokeWidth=2;fontFamily=Arial;fontSize=14;fontStyle=2" vertex="1" parent="_sERkGHIxASWAdoTfHKY-407">
          <mxGeometry x="1806.1599999999999" y="1360" width="80" height="20" as="geometry" />
        </mxCell>
        <mxCell id="_sERkGHIxASWAdoTfHKY-475" value="AP 1-2" style="text;html=1;strokeColor=none;fillColor=none;align=center;verticalAlign=middle;whiteSpace=wrap;rounded=0;dashed=1;fillStyle=auto;strokeWidth=2;fontFamily=Arial;fontSize=14;fontStyle=2" vertex="1" parent="_sERkGHIxASWAdoTfHKY-407">
          <mxGeometry x="2127.16" y="1450" width="80" height="20" as="geometry" />
        </mxCell>
        <mxCell id="_sERkGHIxASWAdoTfHKY-476" value="P 1-2" style="text;html=1;strokeColor=none;fillColor=none;align=center;verticalAlign=middle;whiteSpace=wrap;rounded=0;dashed=1;fillStyle=auto;strokeWidth=2;fontFamily=Arial;fontSize=14;fontStyle=2" vertex="1" parent="_sERkGHIxASWAdoTfHKY-407">
          <mxGeometry x="2127.16" y="1372.52" width="80" height="20" as="geometry" />
        </mxCell>
        <mxCell id="_sERkGHIxASWAdoTfHKY-477" value="P 1-1" style="text;html=1;strokeColor=none;fillColor=none;align=center;verticalAlign=middle;whiteSpace=wrap;rounded=0;dashed=1;fillStyle=auto;strokeWidth=2;fontFamily=Arial;fontSize=14;fontStyle=2" vertex="1" parent="_sERkGHIxASWAdoTfHKY-407">
          <mxGeometry x="1647.1599999999999" y="1372.52" width="80" height="20" as="geometry" />
        </mxCell>
        <mxCell id="_sERkGHIxASWAdoTfHKY-478" value="&lt;span&gt;&lt;font style=&quot;font-size: 24px;&quot;&gt;...&lt;/font&gt;&lt;/span&gt;" style="text;html=1;align=center;verticalAlign=middle;resizable=0;points=[];autosize=1;strokeColor=none;fillColor=none;fontSize=23;fontFamily=Arial;fontStyle=2" vertex="1" parent="_sERkGHIxASWAdoTfHKY-407">
          <mxGeometry x="1906.1599999999999" y="1547" width="39.37" height="39.37" as="geometry" />
        </mxCell>
        <mxCell id="_sERkGHIxASWAdoTfHKY-479" value="Aruba CX 6000 48G 4SFP (R8N86A)" style="text;html=1;strokeColor=none;fillColor=none;align=center;verticalAlign=top;whiteSpace=wrap;rounded=0;dashed=1;fillStyle=auto;strokeWidth=2;fontFamily=Arial;fontSize=14;fontStyle=2;container=0;" vertex="1" parent="_sERkGHIxASWAdoTfHKY-407">
          <mxGeometry x="1614.25" y="1510" width="137.8" height="23" as="geometry" />
        </mxCell>
        <mxCell id="_sERkGHIxASWAdoTfHKY-480" value="Pantum P3010D" style="text;html=1;strokeColor=none;fillColor=none;align=center;verticalAlign=middle;whiteSpace=wrap;rounded=0;dashed=1;fillStyle=auto;strokeWidth=2;fontFamily=Arial;fontSize=14;fontStyle=2;container=0;" vertex="1" parent="_sERkGHIxASWAdoTfHKY-407">
          <mxGeometry x="1633.9300000000003" y="1432.52" width="108.26" height="20" as="geometry" />
        </mxCell>
        <mxCell id="_sERkGHIxASWAdoTfHKY-481" value="HP Ink Tank 315" style="text;html=1;strokeColor=none;fillColor=none;align=center;verticalAlign=middle;whiteSpace=wrap;rounded=0;dashed=1;fillStyle=auto;strokeWidth=2;fontFamily=Arial;fontSize=14;fontStyle=2;container=0;" vertex="1" parent="_sERkGHIxASWAdoTfHKY-407">
          <mxGeometry x="2106.37" y="1429.52" width="118.11" height="23" as="geometry" />
        </mxCell>
        <mxCell id="_sERkGHIxASWAdoTfHKY-482" value="Aruba AP-303" style="text;html=1;strokeColor=none;fillColor=none;align=center;verticalAlign=middle;whiteSpace=wrap;rounded=0;dashed=1;fillStyle=auto;strokeWidth=2;fontFamily=Arial;fontSize=14;fontStyle=2;container=0;" vertex="1" parent="_sERkGHIxASWAdoTfHKY-407">
          <mxGeometry x="2106.37" y="1510" width="118.11" height="20" as="geometry" />
        </mxCell>
        <mxCell id="_sERkGHIxASWAdoTfHKY-483" value="&lt;span style=&quot;font-size: 12px;&quot;&gt;MultiOffice 3С101D8S24IM24&lt;/span&gt;" style="text;html=1;strokeColor=none;fillColor=none;align=center;verticalAlign=middle;whiteSpace=wrap;rounded=0;dashed=1;fillStyle=auto;strokeWidth=2;fontFamily=Arial;fontSize=14;fontStyle=2;container=0;" vertex="1" parent="_sERkGHIxASWAdoTfHKY-407">
          <mxGeometry x="1889.83" y="1450" width="117.33" height="20" as="geometry" />
        </mxCell>
        <mxCell id="_sERkGHIxASWAdoTfHKY-484" value="&lt;font style=&quot;font-size: 12px;&quot;&gt;MultiOffice 3С101D8S24IM24&lt;/font&gt;" style="text;html=1;strokeColor=none;fillColor=none;align=center;verticalAlign=middle;whiteSpace=wrap;rounded=0;dashed=1;fillStyle=auto;strokeWidth=2;fontFamily=Arial;fontSize=14;fontStyle=2;container=0;" vertex="1" parent="_sERkGHIxASWAdoTfHKY-407">
          <mxGeometry x="1722.5100000000002" y="1450" width="124.65" height="20" as="geometry" />
        </mxCell>
        <mxCell id="_sERkGHIxASWAdoTfHKY-485" value="PC 1-3" style="text;html=1;strokeColor=none;fillColor=none;align=center;verticalAlign=middle;whiteSpace=wrap;rounded=0;dashed=1;fillStyle=auto;strokeWidth=2;fontFamily=Arial;fontSize=14;fontStyle=2" vertex="1" parent="_sERkGHIxASWAdoTfHKY-407">
          <mxGeometry x="1766.1599999999999" y="1520" width="80" height="20" as="geometry" />
        </mxCell>
        <mxCell id="_sERkGHIxASWAdoTfHKY-486" value="PC 1-20" style="text;html=1;strokeColor=none;fillColor=none;align=center;verticalAlign=middle;whiteSpace=wrap;rounded=0;dashed=1;fillStyle=auto;strokeWidth=2;fontFamily=Arial;fontSize=14;fontStyle=2" vertex="1" parent="_sERkGHIxASWAdoTfHKY-407">
          <mxGeometry x="1926.1599999999999" y="1520" width="80" height="20" as="geometry" />
        </mxCell>
        <mxCell id="_sERkGHIxASWAdoTfHKY-487" value="Wireless 1-5" style="text;html=1;strokeColor=none;fillColor=none;align=center;verticalAlign=middle;whiteSpace=wrap;rounded=0;dashed=1;fillStyle=auto;strokeWidth=2;fontFamily=Arial;fontSize=14;fontStyle=2;container=0;" vertex="1" parent="_sERkGHIxASWAdoTfHKY-407">
          <mxGeometry x="1087.16" y="1520" width="80" height="20" as="geometry" />
        </mxCell>
        <mxCell id="_sERkGHIxASWAdoTfHKY-488" value="Wireless&amp;nbsp;1-1" style="text;html=1;strokeColor=none;fillColor=none;align=center;verticalAlign=middle;whiteSpace=wrap;rounded=0;dashed=1;fillStyle=auto;strokeWidth=2;fontFamily=Arial;fontSize=14;fontStyle=2;container=0;" vertex="1" parent="_sERkGHIxASWAdoTfHKY-407">
          <mxGeometry x="1087.16" y="1360" width="80" height="20" as="geometry" />
        </mxCell>
        <mxCell id="_sERkGHIxASWAdoTfHKY-489" value="AP 1-1" style="text;html=1;strokeColor=none;fillColor=none;align=center;verticalAlign=middle;whiteSpace=wrap;rounded=0;dashed=1;fillStyle=auto;strokeWidth=2;fontFamily=Arial;fontSize=14;fontStyle=2" vertex="1" parent="_sERkGHIxASWAdoTfHKY-407">
          <mxGeometry x="1247.1599999999999" y="1450" width="80" height="20" as="geometry" />
        </mxCell>
        <mxCell id="_sERkGHIxASWAdoTfHKY-490" value="&lt;span&gt;&lt;font style=&quot;font-size: 24px;&quot;&gt;...&lt;/font&gt;&lt;/span&gt;" style="text;html=1;align=center;verticalAlign=middle;resizable=0;points=[];autosize=1;strokeColor=none;fillColor=none;fontSize=23;fontFamily=Arial;container=0;fontStyle=2" vertex="1" parent="_sERkGHIxASWAdoTfHKY-407">
          <mxGeometry x="1107.16" y="1470.0000000000002" width="39.37" height="39.37" as="geometry" />
        </mxCell>
        <mxCell id="_sERkGHIxASWAdoTfHKY-491" value="Aruba AP-303" style="text;html=1;strokeColor=none;fillColor=none;align=center;verticalAlign=middle;whiteSpace=wrap;rounded=0;dashed=1;fillStyle=auto;strokeWidth=2;fontFamily=Arial;fontSize=14;fontStyle=2;container=0;" vertex="1" parent="_sERkGHIxASWAdoTfHKY-407">
          <mxGeometry x="1220.5500000000002" y="1510" width="127.96" height="20" as="geometry" />
        </mxCell>
        <mxCell id="_sERkGHIxASWAdoTfHKY-492" value="&lt;span style=&quot;font-size: 12px;&quot;&gt;MultiOffice 3С101D8S24IM24&lt;/span&gt;" style="text;html=1;strokeColor=none;fillColor=none;align=center;verticalAlign=top;whiteSpace=wrap;rounded=0;dashed=1;fillStyle=auto;strokeWidth=2;fontFamily=Arial;fontSize=14;fontStyle=2;container=0;" vertex="1" parent="_sERkGHIxASWAdoTfHKY-407">
          <mxGeometry x="1807.1599999999999" y="1610" width="80" height="20" as="geometry" />
        </mxCell>
        <mxCell id="_sERkGHIxASWAdoTfHKY-493" value="&lt;span style=&quot;font-size: 12px;&quot;&gt;MultiOffice 3С101D8S24IM24&lt;/span&gt;" style="text;html=1;strokeColor=none;fillColor=none;align=center;verticalAlign=top;whiteSpace=wrap;rounded=0;dashed=1;fillStyle=auto;strokeWidth=2;fontFamily=Arial;fontSize=14;fontStyle=2;container=0;" vertex="1" parent="_sERkGHIxASWAdoTfHKY-407">
          <mxGeometry x="1967.1599999999999" y="1610" width="80" height="20" as="geometry" />
        </mxCell>
        <mxCell id="_sERkGHIxASWAdoTfHKY-494" value="" style="group;fontFamily=Arial;fontStyle=2" vertex="1" connectable="0" parent="_sERkGHIxASWAdoTfHKY-407">
          <mxGeometry x="1752.1599999999999" y="1407.5200000000002" width="30" height="10" as="geometry" />
        </mxCell>
        <mxCell id="_sERkGHIxASWAdoTfHKY-495" value="" style="rounded=0;whiteSpace=wrap;html=1;fontFamily=Arial;fontStyle=2" vertex="1" parent="_sERkGHIxASWAdoTfHKY-494">
          <mxGeometry width="30" height="10" as="geometry" />
        </mxCell>
        <mxCell id="_sERkGHIxASWAdoTfHKY-496" value="" style="rounded=0;whiteSpace=wrap;html=1;fontFamily=Arial;fillColor=#000000;strokeColor=none;fontStyle=2" vertex="1" parent="_sERkGHIxASWAdoTfHKY-494">
          <mxGeometry x="0.7502999999999247" width="5.9055" height="1.9685" as="geometry" />
        </mxCell>
        <mxCell id="_sERkGHIxASWAdoTfHKY-497" value="" style="rounded=0;whiteSpace=wrap;html=1;fontFamily=Arial;fillColor=#000000;strokeColor=none;fontStyle=2" vertex="1" parent="_sERkGHIxASWAdoTfHKY-494">
          <mxGeometry x="8.250299999999925" width="5.9055" height="1.9685" as="geometry" />
        </mxCell>
        <mxCell id="_sERkGHIxASWAdoTfHKY-498" value="" style="rounded=0;whiteSpace=wrap;html=1;fontFamily=Arial;fillColor=#000000;strokeColor=none;fontStyle=2" vertex="1" parent="_sERkGHIxASWAdoTfHKY-494">
          <mxGeometry x="15.750299999999925" width="5.9055" height="1.9685" as="geometry" />
        </mxCell>
        <mxCell id="_sERkGHIxASWAdoTfHKY-499" value="" style="rounded=0;whiteSpace=wrap;html=1;fontFamily=Arial;fillColor=#000000;strokeColor=none;fontStyle=2" vertex="1" parent="_sERkGHIxASWAdoTfHKY-494">
          <mxGeometry x="23.250299999999925" width="5.9055" height="1.9685" as="geometry" />
        </mxCell>
        <mxCell id="_sERkGHIxASWAdoTfHKY-500" value="" style="group;fontFamily=Arial;fontStyle=2" vertex="1" connectable="0" parent="_sERkGHIxASWAdoTfHKY-407">
          <mxGeometry x="2072.16" y="1407.52" width="30" height="10" as="geometry" />
        </mxCell>
        <mxCell id="_sERkGHIxASWAdoTfHKY-501" value="" style="rounded=0;whiteSpace=wrap;html=1;fontFamily=Arial;fontStyle=2" vertex="1" parent="_sERkGHIxASWAdoTfHKY-500">
          <mxGeometry width="30" height="10" as="geometry" />
        </mxCell>
        <mxCell id="_sERkGHIxASWAdoTfHKY-502" value="" style="rounded=0;whiteSpace=wrap;html=1;fontFamily=Arial;fillColor=#000000;strokeColor=none;fontStyle=2" vertex="1" parent="_sERkGHIxASWAdoTfHKY-500">
          <mxGeometry x="0.7502999999999247" width="5.9055" height="1.9685" as="geometry" />
        </mxCell>
        <mxCell id="_sERkGHIxASWAdoTfHKY-503" value="" style="rounded=0;whiteSpace=wrap;html=1;fontFamily=Arial;fillColor=#000000;strokeColor=none;fontStyle=2" vertex="1" parent="_sERkGHIxASWAdoTfHKY-500">
          <mxGeometry x="8.250299999999925" width="5.9055" height="1.9685" as="geometry" />
        </mxCell>
        <mxCell id="_sERkGHIxASWAdoTfHKY-504" value="" style="rounded=0;whiteSpace=wrap;html=1;fontFamily=Arial;fillColor=#000000;strokeColor=none;fontStyle=2" vertex="1" parent="_sERkGHIxASWAdoTfHKY-500">
          <mxGeometry x="15.750299999999925" width="5.9055" height="1.9685" as="geometry" />
        </mxCell>
        <mxCell id="_sERkGHIxASWAdoTfHKY-505" value="" style="rounded=0;whiteSpace=wrap;html=1;fontFamily=Arial;fillColor=#000000;strokeColor=none;fontStyle=2" vertex="1" parent="_sERkGHIxASWAdoTfHKY-500">
          <mxGeometry x="23.250299999999925" width="5.9055" height="1.9685" as="geometry" />
        </mxCell>
        <mxCell id="_sERkGHIxASWAdoTfHKY-506" value="" style="group;fontFamily=Arial;fontStyle=2" vertex="1" connectable="0" parent="_sERkGHIxASWAdoTfHKY-407">
          <mxGeometry x="2797.16" y="1470" width="20" height="20" as="geometry" />
        </mxCell>
        <mxCell id="_sERkGHIxASWAdoTfHKY-507" value="" style="rounded=0;whiteSpace=wrap;html=1;fontFamily=Arial;fontStyle=2" vertex="1" parent="_sERkGHIxASWAdoTfHKY-506">
          <mxGeometry width="20" height="20" as="geometry" />
        </mxCell>
        <mxCell id="_sERkGHIxASWAdoTfHKY-508" value="" style="rounded=0;whiteSpace=wrap;html=1;fontFamily=Arial;fillColor=#000000;strokeColor=none;fontStyle=2" vertex="1" parent="_sERkGHIxASWAdoTfHKY-506">
          <mxGeometry x="4.40729999999985" width="1.9685" height="10" as="geometry" />
        </mxCell>
        <mxCell id="_sERkGHIxASWAdoTfHKY-509" value="" style="rounded=0;whiteSpace=wrap;html=1;fontFamily=Arial;fillColor=#000000;strokeColor=none;fontStyle=2" vertex="1" parent="_sERkGHIxASWAdoTfHKY-506">
          <mxGeometry x="13.462399999999889" width="1.9685" height="10" as="geometry" />
        </mxCell>
        <mxCell id="_sERkGHIxASWAdoTfHKY-510" value="" style="rounded=0;whiteSpace=wrap;html=1;fontFamily=Arial;fillColor=#000000;strokeColor=none;fontStyle=2" vertex="1" parent="_sERkGHIxASWAdoTfHKY-506">
          <mxGeometry x="10.312799999999925" width="1.9685" height="10" as="geometry" />
        </mxCell>
        <mxCell id="_sERkGHIxASWAdoTfHKY-511" value="" style="rounded=0;whiteSpace=wrap;html=1;fontFamily=Arial;fillColor=#000000;strokeColor=none;fontStyle=2" vertex="1" parent="_sERkGHIxASWAdoTfHKY-506">
          <mxGeometry x="7.556899999999814" width="1.9685" height="10" as="geometry" />
        </mxCell>
        <mxCell id="_sERkGHIxASWAdoTfHKY-512" style="edgeStyle=orthogonalEdgeStyle;rounded=0;orthogonalLoop=1;jettySize=auto;html=1;strokeWidth=1;fontFamily=Arial;fontSize=14;endArrow=none;endFill=0;dashed=1;align=center;fontStyle=2" edge="1" parent="_sERkGHIxASWAdoTfHKY-407">
          <mxGeometry relative="1" as="geometry">
            <mxPoint x="1711.2600000000002" y="2033.23" as="targetPoint" />
            <mxPoint x="1631.2600000000002" y="2033.23" as="sourcePoint" />
          </mxGeometry>
        </mxCell>
        <mxCell id="_sERkGHIxASWAdoTfHKY-513" value="" style="endArrow=none;html=1;rounded=0;strokeWidth=1;fontFamily=Arial;fontSize=14;exitX=0;exitY=1;exitDx=0;exitDy=0;align=center;fontStyle=2" edge="1" parent="_sERkGHIxASWAdoTfHKY-407">
          <mxGeometry width="50" height="50" relative="1" as="geometry">
            <mxPoint x="1631.2600000000002" y="2103.23" as="sourcePoint" />
            <mxPoint x="1711.2600000000002" y="2103.23" as="targetPoint" />
          </mxGeometry>
        </mxCell>
        <mxCell id="_sERkGHIxASWAdoTfHKY-514" style="edgeStyle=orthogonalEdgeStyle;rounded=0;orthogonalLoop=1;jettySize=auto;html=1;strokeWidth=1;fontFamily=Arial;fontSize=14;endArrow=none;endFill=0;align=center;fontStyle=2;" edge="1" parent="_sERkGHIxASWAdoTfHKY-407">
          <mxGeometry relative="1" as="geometry">
            <mxPoint x="1951.2600000000002" y="2033.23" as="targetPoint" />
            <mxPoint x="1871.2600000000002" y="2033.23" as="sourcePoint" />
          </mxGeometry>
        </mxCell>
        <mxCell id="_sERkGHIxASWAdoTfHKY-515" style="edgeStyle=orthogonalEdgeStyle;rounded=0;orthogonalLoop=1;jettySize=auto;html=1;strokeWidth=1;fontFamily=Arial;fontSize=14;endArrow=none;endFill=0;align=center;fontStyle=2;" edge="1" parent="_sERkGHIxASWAdoTfHKY-407">
          <mxGeometry relative="1" as="geometry">
            <mxPoint x="1951.2600000000002" y="1953.23" as="targetPoint" />
            <mxPoint x="1871.2600000000002" y="1953.23" as="sourcePoint" />
          </mxGeometry>
        </mxCell>
        <mxCell id="_sERkGHIxASWAdoTfHKY-516" value="" style="shape=mxgraph.cisco.routers.router;sketch=0;html=1;pointerEvents=1;dashed=0;fillColor=#000000;strokeColor=#E6E6E6;strokeWidth=2;verticalLabelPosition=bottom;verticalAlign=top;align=center;outlineConnect=0;fontSize=23;fillStyle=auto;aspect=fixed;fontFamily=Arial;fontStyle=2" vertex="1" parent="_sERkGHIxASWAdoTfHKY-407">
          <mxGeometry x="1382.44" y="1942.3900000000003" width="78.74" height="54.36" as="geometry" />
        </mxCell>
        <mxCell id="_sERkGHIxASWAdoTfHKY-517" value="" style="shape=mxgraph.cisco.switches.workgroup_switch;sketch=0;html=1;pointerEvents=1;dashed=0;fillColor=#000000;strokeColor=#E6E6E6;strokeWidth=2;verticalLabelPosition=bottom;verticalAlign=top;align=center;outlineConnect=0;fontSize=23;fillStyle=auto;aspect=fixed;fontFamily=Arial;fontStyle=2" vertex="1" parent="_sERkGHIxASWAdoTfHKY-407">
          <mxGeometry x="1200.0000000000002" y="1960" width="78.74" height="44.44" as="geometry" />
        </mxCell>
        <mxCell id="_sERkGHIxASWAdoTfHKY-518" value="" style="shape=mxgraph.cisco.computers_and_peripherals.pc;sketch=0;html=1;pointerEvents=1;dashed=0;fillColor=#000000;strokeColor=#E6E6E6;strokeWidth=2;verticalLabelPosition=bottom;verticalAlign=top;align=center;outlineConnect=0;fontSize=23;fillStyle=auto;aspect=fixed;fontFamily=Arial;fontStyle=2" vertex="1" parent="_sERkGHIxASWAdoTfHKY-407">
          <mxGeometry x="1224.96" y="2048.66" width="78.74" height="71.8" as="geometry" />
        </mxCell>
        <mxCell id="_sERkGHIxASWAdoTfHKY-519" value="" style="shape=mxgraph.cisco.computers_and_peripherals.laptop;sketch=0;html=1;pointerEvents=1;dashed=0;fillColor=#000000;strokeColor=#E6E6E6;strokeWidth=2;verticalLabelPosition=bottom;verticalAlign=top;align=center;outlineConnect=0;fillStyle=auto;fontSize=23;aspect=fixed;fontFamily=Arial;container=0;fontStyle=2" vertex="1" parent="_sERkGHIxASWAdoTfHKY-407">
          <mxGeometry x="1067.2600000000002" y="2059.23" width="78.74" height="54.22" as="geometry" />
        </mxCell>
        <mxCell id="_sERkGHIxASWAdoTfHKY-520" value="" style="shape=mxgraph.cisco.misc.access_point;html=1;pointerEvents=1;dashed=0;fillColor=#000000;strokeColor=#E6E6E6;strokeWidth=2;verticalLabelPosition=bottom;verticalAlign=top;align=center;outlineConnect=0;fillStyle=auto;fontSize=23;aspect=fixed;fontFamily=Arial;container=0;fontStyle=2" vertex="1" parent="_sERkGHIxASWAdoTfHKY-407">
          <mxGeometry x="1067.2600000000002" y="1952.08" width="78.74" height="36.26" as="geometry" />
        </mxCell>
        <mxCell id="_sERkGHIxASWAdoTfHKY-521" value="" style="shape=mxgraph.cisco.modems_and_phones.modem;sketch=0;html=1;pointerEvents=1;dashed=0;fillColor=#000000;strokeColor=#E6E6E6;strokeWidth=2;verticalLabelPosition=bottom;verticalAlign=top;align=center;outlineConnect=0;fontSize=23;fillStyle=auto;aspect=fixed;fontFamily=Arial;fontStyle=2" vertex="1" parent="_sERkGHIxASWAdoTfHKY-407">
          <mxGeometry x="910.2600000000002" y="1956.08" width="78.74" height="28.04" as="geometry" />
        </mxCell>
        <mxCell id="_sERkGHIxASWAdoTfHKY-522" value="" style="shape=mxgraph.cisco.computers_and_peripherals.printer;sketch=0;html=1;pointerEvents=1;dashed=0;fillColor=#000000;strokeColor=#E6E6E6;strokeWidth=2;verticalLabelPosition=bottom;verticalAlign=top;align=center;outlineConnect=0;fontSize=23;fillStyle=auto;aspect=fixed;fontFamily=Arial;fontStyle=2" vertex="1" parent="_sERkGHIxASWAdoTfHKY-407">
          <mxGeometry x="630" y="1920.0000000000002" width="78.74" height="29.88" as="geometry" />
        </mxCell>
        <mxCell id="_sERkGHIxASWAdoTfHKY-523" style="edgeStyle=orthogonalEdgeStyle;rounded=0;orthogonalLoop=1;jettySize=auto;html=1;strokeWidth=3;fontFamily=Arial;fontSize=14;endArrow=none;endFill=0;align=center;fontStyle=2" edge="1" parent="_sERkGHIxASWAdoTfHKY-407">
          <mxGeometry relative="1" as="geometry">
            <mxPoint x="1631.2600000000002" y="1953.23" as="targetPoint" />
            <mxPoint x="1711.2600000000002" y="1953.23" as="sourcePoint" />
          </mxGeometry>
        </mxCell>
        <mxCell id="_sERkGHIxASWAdoTfHKY-524" value="Коммутатор" style="text;html=1;strokeColor=none;fillColor=none;align=center;verticalAlign=middle;whiteSpace=wrap;rounded=0;dashed=1;fillStyle=auto;strokeWidth=2;fontFamily=Arial;fontSize=14;fontStyle=2;container=0;" vertex="1" parent="_sERkGHIxASWAdoTfHKY-407">
          <mxGeometry x="1224.96" y="1901.02" width="78.74" height="29.53" as="geometry" />
        </mxCell>
        <mxCell id="_sERkGHIxASWAdoTfHKY-525" value="Модем" style="text;html=1;strokeColor=none;fillColor=none;align=center;verticalAlign=middle;whiteSpace=wrap;rounded=0;dashed=1;fillStyle=auto;strokeWidth=2;fontFamily=Arial;fontSize=14;fontStyle=2;container=0;" vertex="1" parent="_sERkGHIxASWAdoTfHKY-407">
          <mxGeometry x="910" y="1901.02" width="78.74" height="29.53" as="geometry" />
        </mxCell>
        <mxCell id="_sERkGHIxASWAdoTfHKY-526" value="Маршрутизатор" style="text;html=1;strokeColor=none;fillColor=none;align=center;verticalAlign=middle;whiteSpace=wrap;rounded=0;dashed=1;fillStyle=auto;strokeWidth=2;fontFamily=Arial;fontSize=14;fontStyle=2;container=0;" vertex="1" parent="_sERkGHIxASWAdoTfHKY-407">
          <mxGeometry x="1382.44" y="1901.02" width="78.74" height="29.53" as="geometry" />
        </mxCell>
        <mxCell id="_sERkGHIxASWAdoTfHKY-527" value="Беспроводная точка доступа Wi-Fi" style="text;html=1;strokeColor=none;fillColor=none;align=center;verticalAlign=middle;whiteSpace=wrap;rounded=0;dashed=1;fillStyle=auto;strokeWidth=2;fontFamily=Arial;fontSize=14;fontStyle=2;container=0;" vertex="1" parent="_sERkGHIxASWAdoTfHKY-407">
          <mxGeometry x="1028.1100000000001" y="1901.02" width="157.48" height="29.53" as="geometry" />
        </mxCell>
        <mxCell id="_sERkGHIxASWAdoTfHKY-528" value="Беспроводное устройство" style="text;html=1;strokeColor=none;fillColor=none;align=center;verticalAlign=middle;whiteSpace=wrap;rounded=0;dashed=1;fillStyle=auto;strokeWidth=2;fontFamily=Arial;fontSize=14;fontStyle=2;container=0;" vertex="1" parent="_sERkGHIxASWAdoTfHKY-407">
          <mxGeometry x="1067.48" y="2009.29" width="78.74" height="29.53" as="geometry" />
        </mxCell>
        <mxCell id="_sERkGHIxASWAdoTfHKY-529" value="Рабочая станция" style="text;html=1;strokeColor=none;fillColor=none;align=center;verticalAlign=middle;whiteSpace=wrap;rounded=0;dashed=1;fillStyle=auto;strokeWidth=2;fontFamily=Arial;fontSize=14;fontStyle=2;container=0;" vertex="1" parent="_sERkGHIxASWAdoTfHKY-407">
          <mxGeometry x="1205.2800000000002" y="2009.29" width="118.11" height="29.53" as="geometry" />
        </mxCell>
        <mxCell id="_sERkGHIxASWAdoTfHKY-530" value="Принтер" style="text;html=1;strokeColor=none;fillColor=none;align=center;verticalAlign=middle;whiteSpace=wrap;rounded=0;dashed=1;fillStyle=auto;strokeWidth=2;fontFamily=Arial;fontSize=14;fontStyle=2;container=0;" vertex="1" parent="_sERkGHIxASWAdoTfHKY-407">
          <mxGeometry x="910" y="2009.29" width="78.74" height="29.53" as="geometry" />
        </mxCell>
        <mxCell id="_sERkGHIxASWAdoTfHKY-531" value="Кабель UTP категории 5e" style="text;html=1;strokeColor=none;fillColor=none;align=center;verticalAlign=bottom;whiteSpace=wrap;rounded=0;dashed=1;fillStyle=auto;strokeWidth=2;fontFamily=Arial;fontSize=14;fontStyle=2;container=0;" vertex="1" parent="_sERkGHIxASWAdoTfHKY-407">
          <mxGeometry x="1551.2600000000002" y="2063.23" width="240" height="30" as="geometry" />
        </mxCell>
        <mxCell id="_sERkGHIxASWAdoTfHKY-532" value="Шина" style="text;html=1;strokeColor=none;fillColor=none;align=center;verticalAlign=bottom;whiteSpace=wrap;rounded=0;dashed=1;fillStyle=auto;strokeWidth=2;fontFamily=Arial;fontSize=14;fontStyle=2;container=0;" vertex="1" parent="_sERkGHIxASWAdoTfHKY-407">
          <mxGeometry x="1591.2600000000002" y="1913.23" width="160" height="30" as="geometry" />
        </mxCell>
        <mxCell id="_sERkGHIxASWAdoTfHKY-533" value="Кабель коаксиальный" style="text;html=1;strokeColor=none;fillColor=none;align=center;verticalAlign=bottom;whiteSpace=wrap;rounded=0;dashed=1;fillStyle=auto;strokeWidth=2;fontFamily=Arial;fontSize=14;fontStyle=2;container=0;" vertex="1" parent="_sERkGHIxASWAdoTfHKY-407">
          <mxGeometry x="1831.2600000000002" y="1993.23" width="160" height="30" as="geometry" />
        </mxCell>
        <mxCell id="_sERkGHIxASWAdoTfHKY-534" value="Кабель Universal Serial Bus" style="text;html=1;strokeColor=none;fillColor=none;align=center;verticalAlign=bottom;whiteSpace=wrap;rounded=0;dashed=1;fillStyle=auto;strokeWidth=2;fontFamily=Arial;fontSize=14;fontStyle=2;container=0;" vertex="1" parent="_sERkGHIxASWAdoTfHKY-407">
          <mxGeometry x="1791.2600000000002" y="1913.23" width="240" height="30" as="geometry" />
        </mxCell>
        <mxCell id="_sERkGHIxASWAdoTfHKY-535" value="Беспроводное соединение Wi-Fi" style="text;html=1;strokeColor=none;fillColor=none;align=center;verticalAlign=bottom;whiteSpace=wrap;rounded=0;dashed=1;fillStyle=auto;strokeWidth=2;fontFamily=Arial;fontSize=14;fontStyle=2;container=0;" vertex="1" parent="_sERkGHIxASWAdoTfHKY-407">
          <mxGeometry x="1551.2600000000002" y="1993.23" width="240" height="30" as="geometry" />
        </mxCell>
        <mxCell id="_sERkGHIxASWAdoTfHKY-536" value="Устройства:" style="text;html=1;strokeColor=none;fillColor=none;align=left;verticalAlign=bottom;whiteSpace=wrap;rounded=0;dashed=1;fillStyle=auto;strokeWidth=2;fontFamily=Arial;fontSize=16;fontStyle=2;container=0;" vertex="1" parent="_sERkGHIxASWAdoTfHKY-407">
          <mxGeometry x="911.2600000000002" y="1843.23" width="410" height="30" as="geometry" />
        </mxCell>
        <mxCell id="_sERkGHIxASWAdoTfHKY-537" value="Соединения:" style="text;html=1;strokeColor=none;fillColor=none;align=left;verticalAlign=bottom;whiteSpace=wrap;rounded=0;dashed=1;fillStyle=auto;strokeWidth=2;fontFamily=Arial;fontSize=16;fontStyle=2;container=0;" vertex="1" parent="_sERkGHIxASWAdoTfHKY-407">
          <mxGeometry x="1551.2600000000002" y="1843.23" width="410" height="30" as="geometry" />
        </mxCell>
        <mxCell id="_sERkGHIxASWAdoTfHKY-538" value="" style="group;fontFamily=Arial;fontStyle=2" vertex="1" connectable="0" parent="_sERkGHIxASWAdoTfHKY-407">
          <mxGeometry x="1896.2600000000002" y="1948.23" width="30" height="10" as="geometry" />
        </mxCell>
        <mxCell id="_sERkGHIxASWAdoTfHKY-539" value="" style="rounded=0;whiteSpace=wrap;html=1;fontFamily=Arial;fontStyle=2" vertex="1" parent="_sERkGHIxASWAdoTfHKY-538">
          <mxGeometry width="30" height="10" as="geometry" />
        </mxCell>
        <mxCell id="_sERkGHIxASWAdoTfHKY-540" value="" style="rounded=0;whiteSpace=wrap;html=1;fontFamily=Arial;fillColor=#000000;strokeColor=none;fontStyle=2" vertex="1" parent="_sERkGHIxASWAdoTfHKY-538">
          <mxGeometry x="0.7502999999999247" width="5.9055" height="1.9685" as="geometry" />
        </mxCell>
        <mxCell id="_sERkGHIxASWAdoTfHKY-541" value="" style="rounded=0;whiteSpace=wrap;html=1;fontFamily=Arial;fillColor=#000000;strokeColor=none;fontStyle=2" vertex="1" parent="_sERkGHIxASWAdoTfHKY-538">
          <mxGeometry x="8.250299999999925" width="5.9055" height="1.9685" as="geometry" />
        </mxCell>
        <mxCell id="_sERkGHIxASWAdoTfHKY-542" value="" style="rounded=0;whiteSpace=wrap;html=1;fontFamily=Arial;fillColor=#000000;strokeColor=none;fontStyle=2" vertex="1" parent="_sERkGHIxASWAdoTfHKY-538">
          <mxGeometry x="15.750299999999925" width="5.9055" height="1.9685" as="geometry" />
        </mxCell>
        <mxCell id="_sERkGHIxASWAdoTfHKY-543" value="" style="rounded=0;whiteSpace=wrap;html=1;fontFamily=Arial;fillColor=#000000;strokeColor=none;fontStyle=2" vertex="1" parent="_sERkGHIxASWAdoTfHKY-538">
          <mxGeometry x="23.250299999999925" width="5.9055" height="1.9685" as="geometry" />
        </mxCell>
        <mxCell id="_sERkGHIxASWAdoTfHKY-544" value="" style="group;fontFamily=Arial;fontStyle=2" vertex="1" connectable="0" parent="_sERkGHIxASWAdoTfHKY-407">
          <mxGeometry x="1901.2600000000002" y="2023.23" width="20" height="20" as="geometry" />
        </mxCell>
        <mxCell id="_sERkGHIxASWAdoTfHKY-545" value="" style="rounded=0;whiteSpace=wrap;html=1;fontFamily=Arial;fontStyle=2" vertex="1" parent="_sERkGHIxASWAdoTfHKY-544">
          <mxGeometry width="20" height="20" as="geometry" />
        </mxCell>
        <mxCell id="_sERkGHIxASWAdoTfHKY-546" value="" style="rounded=0;whiteSpace=wrap;html=1;fontFamily=Arial;fillColor=#000000;strokeColor=none;fontStyle=2" vertex="1" parent="_sERkGHIxASWAdoTfHKY-544">
          <mxGeometry x="4.40729999999985" width="1.9685" height="10" as="geometry" />
        </mxCell>
        <mxCell id="_sERkGHIxASWAdoTfHKY-547" value="" style="rounded=0;whiteSpace=wrap;html=1;fontFamily=Arial;fillColor=#000000;strokeColor=none;fontStyle=2" vertex="1" parent="_sERkGHIxASWAdoTfHKY-544">
          <mxGeometry x="13.462399999999889" width="1.9685" height="10" as="geometry" />
        </mxCell>
        <mxCell id="_sERkGHIxASWAdoTfHKY-548" value="" style="rounded=0;whiteSpace=wrap;html=1;fontFamily=Arial;fillColor=#000000;strokeColor=none;fontStyle=2" vertex="1" parent="_sERkGHIxASWAdoTfHKY-544">
          <mxGeometry x="10.312799999999925" width="1.9685" height="10" as="geometry" />
        </mxCell>
        <mxCell id="_sERkGHIxASWAdoTfHKY-549" value="" style="rounded=0;whiteSpace=wrap;html=1;fontFamily=Arial;fillColor=#000000;strokeColor=none;fontStyle=2" vertex="1" parent="_sERkGHIxASWAdoTfHKY-544">
          <mxGeometry x="7.556899999999814" width="1.9685" height="10" as="geometry" />
        </mxCell>
        <mxCell id="_sERkGHIxASWAdoTfHKY-550" value="&lt;span style=&quot;font-size: 11px;&quot;&gt;GE/3&lt;/span&gt;" style="text;html=1;strokeColor=none;fillColor=none;align=right;verticalAlign=middle;whiteSpace=wrap;rounded=0;dashed=1;fillStyle=auto;strokeWidth=2;fontFamily=Arial;fontSize=11;fontStyle=2" vertex="1" parent="_sERkGHIxASWAdoTfHKY-407">
          <mxGeometry x="1524.1599999999999" y="1649.68" width="40" height="20" as="geometry" />
        </mxCell>
        <mxCell id="_sERkGHIxASWAdoTfHKY-551" value="&lt;span style=&quot;font-size: 11px;&quot;&gt;GE/2&lt;/span&gt;" style="text;html=1;strokeColor=none;fillColor=none;align=right;verticalAlign=middle;whiteSpace=wrap;rounded=0;dashed=1;fillStyle=auto;strokeWidth=2;fontFamily=Arial;fontSize=11;fontStyle=2" vertex="1" parent="_sERkGHIxASWAdoTfHKY-407">
          <mxGeometry x="1565.1599999999999" y="1649.68" width="40" height="20" as="geometry" />
        </mxCell>
        <mxCell id="_sERkGHIxASWAdoTfHKY-552" value="&lt;span style=&quot;font-size: 11px;&quot;&gt;GE/0&lt;/span&gt;" style="text;html=1;strokeColor=none;fillColor=none;align=right;verticalAlign=middle;whiteSpace=wrap;rounded=0;dashed=1;fillStyle=auto;strokeWidth=2;fontFamily=Arial;fontSize=11;fontStyle=2" vertex="1" parent="_sERkGHIxASWAdoTfHKY-407">
          <mxGeometry x="2727.16" y="1410" width="40" height="20" as="geometry" />
        </mxCell>
        <mxCell id="_sERkGHIxASWAdoTfHKY-553" value="&lt;span style=&quot;font-size: 11px;&quot;&gt;GE/48&lt;/span&gt;" style="text;html=1;strokeColor=none;fillColor=none;align=right;verticalAlign=middle;whiteSpace=wrap;rounded=0;dashed=1;fillStyle=auto;strokeWidth=2;fontFamily=Arial;fontSize=11;fontStyle=2" vertex="1" parent="_sERkGHIxASWAdoTfHKY-407">
          <mxGeometry x="1567.1599999999999" y="1470" width="40" height="20" as="geometry" />
        </mxCell>
        <mxCell id="_sERkGHIxASWAdoTfHKY-554" value="&lt;span style=&quot;font-size: 11px;&quot;&gt;GE/47&lt;/span&gt;" style="text;html=1;strokeColor=none;fillColor=none;align=right;verticalAlign=middle;whiteSpace=wrap;rounded=0;dashed=1;fillStyle=auto;strokeWidth=2;fontFamily=Arial;fontSize=11;fontStyle=2" vertex="1" parent="_sERkGHIxASWAdoTfHKY-407">
          <mxGeometry x="1527.1599999999999" y="1470" width="40" height="20" as="geometry" />
        </mxCell>
        <mxCell id="_sERkGHIxASWAdoTfHKY-555" value="&lt;span style=&quot;font-size: 11px;&quot;&gt;GE/46&lt;/span&gt;" style="text;html=1;strokeColor=none;fillColor=none;align=right;verticalAlign=middle;whiteSpace=wrap;rounded=0;dashed=1;fillStyle=auto;strokeWidth=2;fontFamily=Arial;fontSize=11;fontStyle=2" vertex="1" parent="_sERkGHIxASWAdoTfHKY-407">
          <mxGeometry x="1447.1599999999999" y="1470" width="40" height="20" as="geometry" />
        </mxCell>
        <mxCell id="_sERkGHIxASWAdoTfHKY-556" value="&lt;span style=&quot;font-size: 11px;&quot;&gt;GE/0&lt;/span&gt;" style="text;html=1;strokeColor=none;fillColor=none;align=left;verticalAlign=middle;whiteSpace=wrap;rounded=0;dashed=1;fillStyle=auto;strokeWidth=2;fontFamily=Arial;fontSize=11;fontStyle=2" vertex="1" parent="_sERkGHIxASWAdoTfHKY-407">
          <mxGeometry x="2687.16" y="1390" width="40" height="20" as="geometry" />
        </mxCell>
        <mxCell id="_sERkGHIxASWAdoTfHKY-557" value="&lt;span style=&quot;font-size: 11px;&quot;&gt;GE/0&lt;/span&gt;" style="text;html=1;strokeColor=none;fillColor=none;align=left;verticalAlign=middle;whiteSpace=wrap;rounded=0;dashed=1;fillStyle=auto;strokeWidth=2;fontFamily=Arial;fontSize=11;fontStyle=2" vertex="1" parent="_sERkGHIxASWAdoTfHKY-407">
          <mxGeometry x="1847.1599999999999" y="1450" width="40" height="20" as="geometry" />
        </mxCell>
        <mxCell id="_sERkGHIxASWAdoTfHKY-558" value="&lt;span style=&quot;font-size: 11px;&quot;&gt;GE/0&lt;/span&gt;" style="text;html=1;strokeColor=none;fillColor=none;align=left;verticalAlign=middle;whiteSpace=wrap;rounded=0;dashed=1;fillStyle=auto;strokeWidth=2;fontFamily=Arial;fontSize=11;fontStyle=2" vertex="1" parent="_sERkGHIxASWAdoTfHKY-407">
          <mxGeometry x="2007.1599999999999" y="1450" width="40" height="20" as="geometry" />
        </mxCell>
        <mxCell id="_sERkGHIxASWAdoTfHKY-559" value="&lt;span style=&quot;font-size: 11px;&quot;&gt;GE/1&lt;/span&gt;" style="text;html=1;strokeColor=none;fillColor=none;align=right;verticalAlign=middle;whiteSpace=wrap;rounded=0;dashed=1;fillStyle=auto;strokeWidth=2;fontFamily=Arial;fontSize=11;fontStyle=2" vertex="1" parent="_sERkGHIxASWAdoTfHKY-407">
          <mxGeometry x="1807.1599999999999" y="1470" width="40" height="20" as="geometry" />
        </mxCell>
        <mxCell id="_sERkGHIxASWAdoTfHKY-560" value="&lt;span style=&quot;font-size: 11px;&quot;&gt;GE/2&lt;/span&gt;" style="text;html=1;strokeColor=none;fillColor=none;align=right;verticalAlign=middle;whiteSpace=wrap;rounded=0;dashed=1;fillStyle=auto;strokeWidth=2;fontFamily=Arial;fontSize=11;fontStyle=2" vertex="1" parent="_sERkGHIxASWAdoTfHKY-407">
          <mxGeometry x="1966.1599999999999" y="1470" width="40" height="20" as="geometry" />
        </mxCell>
        <mxCell id="_sERkGHIxASWAdoTfHKY-561" value="&lt;span style=&quot;font-size: 11px;&quot;&gt;GE/20&lt;/span&gt;" style="text;html=1;strokeColor=none;fillColor=none;align=right;verticalAlign=middle;whiteSpace=wrap;rounded=0;dashed=1;fillStyle=auto;strokeWidth=2;fontFamily=Arial;fontSize=11;fontStyle=2" vertex="1" parent="_sERkGHIxASWAdoTfHKY-407">
          <mxGeometry x="1966.1599999999999" y="1490" width="40" height="20" as="geometry" />
        </mxCell>
        <mxCell id="_sERkGHIxASWAdoTfHKY-562" value="&lt;span style=&quot;font-size: 11px;&quot;&gt;GE/3&lt;/span&gt;" style="text;html=1;strokeColor=none;fillColor=none;align=right;verticalAlign=middle;whiteSpace=wrap;rounded=0;dashed=1;fillStyle=auto;strokeWidth=2;fontFamily=Arial;fontSize=11;fontStyle=2" vertex="1" parent="_sERkGHIxASWAdoTfHKY-407">
          <mxGeometry x="1807.1599999999999" y="1490" width="40" height="20" as="geometry" />
        </mxCell>
        <mxCell id="_sERkGHIxASWAdoTfHKY-563" value="&lt;span style=&quot;font-size: 11px;&quot;&gt;GE/0&lt;/span&gt;" style="text;html=1;strokeColor=none;fillColor=none;align=right;verticalAlign=middle;whiteSpace=wrap;rounded=0;dashed=1;fillStyle=auto;strokeWidth=2;fontFamily=Arial;fontSize=11;fontStyle=2" vertex="1" parent="_sERkGHIxASWAdoTfHKY-407">
          <mxGeometry x="2086.16" y="1490" width="40" height="20" as="geometry" />
        </mxCell>
        <mxCell id="_sERkGHIxASWAdoTfHKY-564" value="&lt;span style=&quot;font-size: 11px;&quot;&gt;GE/42&lt;/span&gt;" style="text;html=1;strokeColor=none;fillColor=none;align=left;verticalAlign=middle;whiteSpace=wrap;rounded=0;dashed=1;fillStyle=auto;strokeWidth=2;fontFamily=Arial;fontSize=11;fontStyle=2" vertex="1" parent="_sERkGHIxASWAdoTfHKY-407">
          <mxGeometry x="2046.1599999999999" y="1470" width="40" height="20" as="geometry" />
        </mxCell>
        <mxCell id="_sERkGHIxASWAdoTfHKY-565" value="&lt;span style=&quot;font-size: 11px;&quot;&gt;GE/0&lt;/span&gt;" style="text;html=1;strokeColor=none;fillColor=none;align=left;verticalAlign=middle;whiteSpace=wrap;rounded=0;dashed=1;fillStyle=auto;strokeWidth=2;fontFamily=Arial;fontSize=11;fontStyle=2" vertex="1" parent="_sERkGHIxASWAdoTfHKY-407">
          <mxGeometry x="1847.1599999999999" y="1520" width="40" height="20" as="geometry" />
        </mxCell>
        <mxCell id="_sERkGHIxASWAdoTfHKY-566" value="&lt;span style=&quot;font-size: 11px;&quot;&gt;GE/0&lt;/span&gt;" style="text;html=1;strokeColor=none;fillColor=none;align=left;verticalAlign=middle;whiteSpace=wrap;rounded=0;dashed=1;fillStyle=auto;strokeWidth=2;fontFamily=Arial;fontSize=11;fontStyle=2" vertex="1" parent="_sERkGHIxASWAdoTfHKY-407">
          <mxGeometry x="2007.1599999999999" y="1520" width="40" height="20" as="geometry" />
        </mxCell>
        <mxCell id="_sERkGHIxASWAdoTfHKY-567" value="&lt;span style=&quot;font-size: 11px;&quot;&gt;GE/0&lt;/span&gt;" style="text;html=1;strokeColor=none;fillColor=none;align=left;verticalAlign=middle;whiteSpace=wrap;rounded=0;dashed=1;fillStyle=auto;strokeWidth=2;fontFamily=Arial;fontSize=11;fontStyle=2" vertex="1" parent="_sERkGHIxASWAdoTfHKY-407">
          <mxGeometry x="1327.1599999999999" y="1490" width="40" height="20" as="geometry" />
        </mxCell>
        <mxCell id="_sERkGHIxASWAdoTfHKY-568" value="&lt;span style=&quot;font-size: 11px;&quot;&gt;GE/41&lt;/span&gt;" style="text;html=1;strokeColor=none;fillColor=none;align=right;verticalAlign=middle;whiteSpace=wrap;rounded=0;dashed=1;fillStyle=auto;strokeWidth=2;fontFamily=Arial;fontSize=11;fontStyle=2" vertex="1" parent="_sERkGHIxASWAdoTfHKY-407">
          <mxGeometry x="1367.1599999999999" y="1470" width="40" height="20" as="geometry" />
        </mxCell>
        <mxCell id="_sERkGHIxASWAdoTfHKY-569" value="&lt;span style=&quot;font-size: 11px;&quot;&gt;GE/45&lt;/span&gt;" style="text;html=1;strokeColor=none;fillColor=none;align=right;verticalAlign=middle;whiteSpace=wrap;rounded=0;dashed=1;fillStyle=auto;strokeWidth=2;fontFamily=Arial;fontSize=11;fontStyle=2" vertex="1" parent="_sERkGHIxASWAdoTfHKY-407">
          <mxGeometry x="1407.1599999999999" y="1470" width="40" height="20" as="geometry" />
        </mxCell>
        <mxCell id="_sERkGHIxASWAdoTfHKY-570" value="USB-B" style="text;html=1;strokeColor=none;fillColor=none;align=left;verticalAlign=middle;whiteSpace=wrap;rounded=0;dashed=1;fillStyle=auto;strokeWidth=2;fontFamily=Arial;fontSize=11;fontStyle=2" vertex="1" parent="_sERkGHIxASWAdoTfHKY-407">
          <mxGeometry x="1709.3625000000002" y="1417.7325" width="40" height="20" as="geometry" />
        </mxCell>
        <mxCell id="_sERkGHIxASWAdoTfHKY-571" value="USB-A" style="text;html=1;strokeColor=none;fillColor=none;align=right;verticalAlign=middle;whiteSpace=wrap;rounded=0;dashed=1;fillStyle=auto;strokeWidth=2;fontFamily=Arial;fontSize=11;fontStyle=2" vertex="1" parent="_sERkGHIxASWAdoTfHKY-407">
          <mxGeometry x="1779.5650000000005" y="1389.565" width="40" height="20" as="geometry" />
        </mxCell>
        <mxCell id="_sERkGHIxASWAdoTfHKY-572" value="USB-A" style="text;html=1;strokeColor=none;fillColor=none;align=left;verticalAlign=middle;whiteSpace=wrap;rounded=0;dashed=1;fillStyle=auto;strokeWidth=2;fontFamily=Arial;fontSize=11;fontStyle=2" vertex="1" parent="_sERkGHIxASWAdoTfHKY-407">
          <mxGeometry x="2034.4574999999995" y="1387.5675" width="40" height="20" as="geometry" />
        </mxCell>
        <mxCell id="_sERkGHIxASWAdoTfHKY-573" value="USB-B" style="text;html=1;strokeColor=none;fillColor=none;align=right;verticalAlign=middle;whiteSpace=wrap;rounded=0;dashed=1;fillStyle=auto;strokeWidth=2;fontFamily=Arial;fontSize=11;fontStyle=2" vertex="1" parent="_sERkGHIxASWAdoTfHKY-407">
          <mxGeometry x="2087.375" y="1417.7350000000001" width="40" height="20" as="geometry" />
        </mxCell>
        <mxCell id="_sERkGHIxASWAdoTfHKY-574" value="&lt;span style=&quot;font-size: 11px;&quot;&gt;Line&lt;/span&gt;" style="text;html=1;strokeColor=none;fillColor=none;align=left;verticalAlign=middle;whiteSpace=wrap;rounded=0;dashed=1;fillStyle=auto;strokeWidth=2;fontFamily=Arial;fontSize=11;fontStyle=2" vertex="1" parent="_sERkGHIxASWAdoTfHKY-407">
          <mxGeometry x="2806.9025" y="1423.8425" width="40" height="20" as="geometry" />
        </mxCell>
        <mxCell id="_sERkGHIxASWAdoTfHKY-575" style="edgeStyle=orthogonalEdgeStyle;rounded=0;orthogonalLoop=1;jettySize=auto;html=1;exitX=0.28;exitY=0.5;exitDx=0;exitDy=0;exitPerimeter=0;strokeWidth=1;fontFamily=Arial;fontSize=14;endArrow=none;endFill=0;dashed=1;align=center;fontStyle=2" edge="1" parent="_sERkGHIxASWAdoTfHKY-407" source="_sERkGHIxASWAdoTfHKY-597">
          <mxGeometry relative="1" as="geometry">
            <mxPoint x="2207.16" y="1500" as="targetPoint" />
            <Array as="points">
              <mxPoint x="2247.16" y="1570" />
              <mxPoint x="2247.16" y="1500" />
            </Array>
          </mxGeometry>
        </mxCell>
        <mxCell id="_sERkGHIxASWAdoTfHKY-576" style="edgeStyle=orthogonalEdgeStyle;rounded=0;orthogonalLoop=1;jettySize=auto;html=1;strokeWidth=1;fontFamily=Arial;fontSize=14;endArrow=none;endFill=0;exitX=0.28;exitY=0.5;exitDx=0;exitDy=0;exitPerimeter=0;dashed=1;align=center;fontStyle=2" edge="1" parent="_sERkGHIxASWAdoTfHKY-407" source="_sERkGHIxASWAdoTfHKY-596" target="_sERkGHIxASWAdoTfHKY-595">
          <mxGeometry relative="1" as="geometry">
            <mxPoint x="2166.16" y="1477" as="targetPoint" />
            <Array as="points">
              <mxPoint x="2247.16" y="1410" />
              <mxPoint x="2247.16" y="1480" />
            </Array>
          </mxGeometry>
        </mxCell>
        <mxCell id="_sERkGHIxASWAdoTfHKY-577" style="edgeStyle=orthogonalEdgeStyle;rounded=0;orthogonalLoop=1;jettySize=auto;html=1;strokeWidth=1;fontFamily=Arial;fontSize=14;endArrow=none;endFill=0;dashed=1;align=center;fontStyle=2" edge="1" parent="_sERkGHIxASWAdoTfHKY-407">
          <mxGeometry relative="1" as="geometry">
            <mxPoint x="1257.1599999999999" y="1480" as="targetPoint" />
            <mxPoint x="1167.16" y="1410" as="sourcePoint" />
            <Array as="points">
              <mxPoint x="1207.16" y="1410" />
              <mxPoint x="1207.16" y="1480" />
              <mxPoint x="1265.1599999999999" y="1480" />
            </Array>
          </mxGeometry>
        </mxCell>
        <mxCell id="_sERkGHIxASWAdoTfHKY-578" style="edgeStyle=orthogonalEdgeStyle;rounded=0;orthogonalLoop=1;jettySize=auto;html=1;strokeWidth=1;fontFamily=Arial;fontSize=14;endArrow=none;endFill=0;dashed=1;align=center;fontStyle=2" edge="1" parent="_sERkGHIxASWAdoTfHKY-407" target="_sERkGHIxASWAdoTfHKY-601">
          <mxGeometry relative="1" as="geometry">
            <mxPoint x="1265.1599999999999" y="1517" as="targetPoint" />
            <mxPoint x="1167.16" y="1570" as="sourcePoint" />
            <Array as="points">
              <mxPoint x="1167.16" y="1570" />
              <mxPoint x="1207.16" y="1570" />
              <mxPoint x="1207.16" y="1500" />
            </Array>
          </mxGeometry>
        </mxCell>
        <mxCell id="_sERkGHIxASWAdoTfHKY-579" style="edgeStyle=orthogonalEdgeStyle;rounded=0;orthogonalLoop=1;jettySize=auto;html=1;strokeWidth=1;fontFamily=Arial;fontSize=14;endArrow=none;endFill=0;align=center;fontStyle=2" edge="1" parent="_sERkGHIxASWAdoTfHKY-407">
          <mxGeometry relative="1" as="geometry">
            <mxPoint x="2687.16" y="1410" as="targetPoint" />
            <mxPoint x="2767.16" y="1410" as="sourcePoint" />
            <Array as="points">
              <mxPoint x="2757.16" y="1410" />
              <mxPoint x="2717.16" y="1410" />
            </Array>
          </mxGeometry>
        </mxCell>
        <mxCell id="_sERkGHIxASWAdoTfHKY-580" style="edgeStyle=orthogonalEdgeStyle;rounded=0;orthogonalLoop=1;jettySize=auto;html=1;fontSize=23;endArrow=none;endFill=0;fontFamily=Arial;exitX=0;exitY=1;exitDx=0;exitDy=0;align=center;fontStyle=2" edge="1" parent="_sERkGHIxASWAdoTfHKY-407">
          <mxGeometry relative="1" as="geometry">
            <mxPoint x="1604.79" y="1670" as="targetPoint" />
            <mxPoint x="1607.1599999999999" y="1489.9999999999998" as="sourcePoint" />
            <Array as="points">
              <mxPoint x="1604.79" y="1490" />
            </Array>
          </mxGeometry>
        </mxCell>
        <mxCell id="_sERkGHIxASWAdoTfHKY-581" style="edgeStyle=orthogonalEdgeStyle;rounded=0;orthogonalLoop=1;jettySize=auto;html=1;fontSize=23;endArrow=none;endFill=0;fontFamily=Arial;align=center;fontStyle=2;strokeWidth=1;" edge="1" parent="_sERkGHIxASWAdoTfHKY-407">
          <mxGeometry relative="1" as="geometry">
            <mxPoint x="1564.79" y="1670" as="targetPoint" />
            <mxPoint x="1564.79" y="1493" as="sourcePoint" />
          </mxGeometry>
        </mxCell>
        <mxCell id="_sERkGHIxASWAdoTfHKY-582" style="edgeStyle=orthogonalEdgeStyle;rounded=0;orthogonalLoop=1;jettySize=auto;html=1;strokeWidth=1;fontFamily=Arial;fontSize=14;endArrow=none;endFill=0;align=center;fontStyle=2" edge="1" parent="_sERkGHIxASWAdoTfHKY-407" source="_sERkGHIxASWAdoTfHKY-595">
          <mxGeometry relative="1" as="geometry">
            <mxPoint x="2047.1599999999999" y="1490" as="targetPoint" />
            <Array as="points">
              <mxPoint x="2087.16" y="1491" />
            </Array>
          </mxGeometry>
        </mxCell>
        <mxCell id="_sERkGHIxASWAdoTfHKY-583" style="edgeStyle=orthogonalEdgeStyle;rounded=0;orthogonalLoop=1;jettySize=auto;html=1;strokeWidth=1;fontFamily=Arial;fontSize=14;endArrow=none;endFill=0;align=center;fontStyle=2" edge="1" parent="_sERkGHIxASWAdoTfHKY-407">
          <mxGeometry relative="1" as="geometry">
            <mxPoint x="1407.1599999999999" y="1490" as="targetPoint" />
            <mxPoint x="1327.1599999999999" y="1490" as="sourcePoint" />
            <Array as="points">
              <mxPoint x="1327.1599999999999" y="1490" />
              <mxPoint x="1327.1599999999999" y="1490" />
            </Array>
          </mxGeometry>
        </mxCell>
        <mxCell id="_sERkGHIxASWAdoTfHKY-584" style="edgeStyle=orthogonalEdgeStyle;rounded=0;orthogonalLoop=1;jettySize=auto;html=1;exitX=0;exitY=0;exitDx=0;exitDy=0;endArrow=none;endFill=0;fontFamily=Arial;align=center;fontStyle=2" edge="1" parent="_sERkGHIxASWAdoTfHKY-407" source="_sERkGHIxASWAdoTfHKY-557" target="_sERkGHIxASWAdoTfHKY-598">
          <mxGeometry relative="1" as="geometry">
            <mxPoint x="1847.1599999999999" y="1530" as="targetPoint" />
            <Array as="points">
              <mxPoint x="1847.1599999999999" y="1520" />
              <mxPoint x="1847.1599999999999" y="1520" />
            </Array>
          </mxGeometry>
        </mxCell>
        <mxCell id="_sERkGHIxASWAdoTfHKY-585" style="edgeStyle=orthogonalEdgeStyle;rounded=0;orthogonalLoop=1;jettySize=auto;html=1;exitX=0;exitY=0;exitDx=0;exitDy=0;endArrow=none;endFill=0;fontFamily=Arial;align=center;fontStyle=2" edge="1" parent="_sERkGHIxASWAdoTfHKY-407" target="_sERkGHIxASWAdoTfHKY-599">
          <mxGeometry relative="1" as="geometry">
            <mxPoint x="2007.1599999999999" y="1530" as="targetPoint" />
            <mxPoint x="2007.1599999999999" y="1450" as="sourcePoint" />
            <Array as="points">
              <mxPoint x="2007.1599999999999" y="1520" />
              <mxPoint x="2007.1599999999999" y="1520" />
            </Array>
          </mxGeometry>
        </mxCell>
        <mxCell id="_sERkGHIxASWAdoTfHKY-586" value="" style="edgeStyle=orthogonalEdgeStyle;rounded=0;orthogonalLoop=1;jettySize=auto;html=1;endArrow=none;endFill=0;fontFamily=Arial;align=center;fontStyle=2;" edge="1" parent="_sERkGHIxASWAdoTfHKY-407">
          <mxGeometry relative="1" as="geometry">
            <mxPoint x="2034.1599999999999" y="1412.52" as="targetPoint" />
            <mxPoint x="2127.16" y="1412.52" as="sourcePoint" />
          </mxGeometry>
        </mxCell>
        <mxCell id="_sERkGHIxASWAdoTfHKY-587" value="" style="edgeStyle=orthogonalEdgeStyle;rounded=0;orthogonalLoop=1;jettySize=auto;html=1;endArrow=none;endFill=0;fontFamily=Arial;align=center;fontStyle=2;" edge="1" parent="_sERkGHIxASWAdoTfHKY-407">
          <mxGeometry relative="1" as="geometry">
            <mxPoint x="1687.1599999999999" y="1412.5200000000002" as="targetPoint" />
            <mxPoint x="1820.79" y="1412.5200000000002" as="sourcePoint" />
          </mxGeometry>
        </mxCell>
        <mxCell id="_sERkGHIxASWAdoTfHKY-588" style="rounded=0;orthogonalLoop=1;jettySize=auto;html=1;strokeWidth=1;fontFamily=Arial;startArrow=none;startFill=0;endArrow=none;endFill=0;entryX=0.5;entryY=0;entryDx=0;entryDy=0;edgeStyle=orthogonalEdgeStyle;fontStyle=2" edge="1" parent="_sERkGHIxASWAdoTfHKY-407" source="_sERkGHIxASWAdoTfHKY-589">
          <mxGeometry relative="1" as="geometry">
            <mxPoint x="2807.16" y="1533.9" as="targetPoint" />
          </mxGeometry>
        </mxCell>
        <mxCell id="_sERkGHIxASWAdoTfHKY-589" value="" style="shape=mxgraph.cisco.modems_and_phones.modem;sketch=0;html=1;pointerEvents=1;dashed=0;fillColor=#000000;strokeColor=#E6E6E6;strokeWidth=2;verticalLabelPosition=bottom;verticalAlign=top;align=center;outlineConnect=0;fontSize=23;fillStyle=auto;aspect=fixed;fontFamily=Arial;fontStyle=2" vertex="1" parent="_sERkGHIxASWAdoTfHKY-407">
          <mxGeometry x="2767.16" y="1396" width="80" height="28.49" as="geometry" />
        </mxCell>
        <mxCell id="_sERkGHIxASWAdoTfHKY-590" value="" style="shape=mxgraph.cisco.routers.router;sketch=0;html=1;pointerEvents=1;dashed=0;fillColor=#000000;strokeColor=#E6E6E6;strokeWidth=2;verticalLabelPosition=bottom;verticalAlign=top;align=center;outlineConnect=0;fontSize=23;fillStyle=auto;aspect=fixed;fontFamily=Arial;fontStyle=2" vertex="1" parent="_sERkGHIxASWAdoTfHKY-407">
          <mxGeometry x="2607.79" y="1383" width="78.74" height="54.36" as="geometry" />
        </mxCell>
        <mxCell id="_sERkGHIxASWAdoTfHKY-591" value="" style="shape=mxgraph.cisco.switches.workgroup_switch;sketch=0;html=1;pointerEvents=1;dashed=0;fillColor=#000000;strokeColor=#E6E6E6;strokeWidth=2;verticalLabelPosition=bottom;verticalAlign=top;align=center;outlineConnect=0;fontSize=23;fillStyle=auto;aspect=fixed;fontFamily=Arial;fontStyle=2" vertex="1" parent="_sERkGHIxASWAdoTfHKY-407">
          <mxGeometry x="1439.9999999999998" y="1650.0034999999998" width="78.74" height="44.44" as="geometry" />
        </mxCell>
        <mxCell id="_sERkGHIxASWAdoTfHKY-592" value="" style="shape=mxgraph.cisco.computers_and_peripherals.pc;sketch=0;html=1;pointerEvents=1;dashed=0;fillColor=#000000;strokeColor=#E6E6E6;strokeWidth=2;verticalLabelPosition=bottom;verticalAlign=top;align=center;outlineConnect=0;fontSize=23;fillStyle=auto;aspect=fixed;fontFamily=Arial;fontStyle=2" vertex="1" parent="_sERkGHIxASWAdoTfHKY-407">
          <mxGeometry x="1807.1599999999999" y="1378" width="78.74" height="71.8" as="geometry" />
        </mxCell>
        <mxCell id="_sERkGHIxASWAdoTfHKY-593" value="" style="shape=mxgraph.cisco.computers_and_peripherals.printer;sketch=0;html=1;pointerEvents=1;dashed=0;fillColor=#000000;strokeColor=#E6E6E6;strokeWidth=2;verticalLabelPosition=bottom;verticalAlign=top;align=center;outlineConnect=0;fontSize=23;fillStyle=auto;aspect=fixed;fontFamily=Arial;fontStyle=2" vertex="1" parent="_sERkGHIxASWAdoTfHKY-407">
          <mxGeometry x="2127.16" y="1397.52" width="78.74" height="29.88" as="geometry" />
        </mxCell>
        <mxCell id="_sERkGHIxASWAdoTfHKY-594" value="" style="shape=mxgraph.cisco.computers_and_peripherals.pc;sketch=0;html=1;pointerEvents=1;dashed=0;fillColor=#000000;strokeColor=#E6E6E6;strokeWidth=2;verticalLabelPosition=bottom;verticalAlign=top;align=center;outlineConnect=0;fontSize=23;fillStyle=auto;aspect=fixed;fontFamily=Arial;fontStyle=2" vertex="1" parent="_sERkGHIxASWAdoTfHKY-407">
          <mxGeometry x="1968.1599999999999" y="1378" width="78.74" height="71.8" as="geometry" />
        </mxCell>
        <mxCell id="_sERkGHIxASWAdoTfHKY-595" value="" style="shape=mxgraph.cisco.misc.access_point;html=1;pointerEvents=1;dashed=0;fillColor=#000000;strokeColor=#E6E6E6;strokeWidth=2;verticalLabelPosition=bottom;verticalAlign=top;align=center;outlineConnect=0;fillStyle=auto;fontSize=23;aspect=fixed;fontFamily=Arial;fontStyle=2" vertex="1" parent="_sERkGHIxASWAdoTfHKY-407">
          <mxGeometry x="2127.16" y="1472.42" width="78.74" height="36.26" as="geometry" />
        </mxCell>
        <mxCell id="_sERkGHIxASWAdoTfHKY-596" value="" style="shape=mxgraph.cisco.computers_and_peripherals.laptop;sketch=0;html=1;pointerEvents=1;dashed=0;fillColor=#000000;strokeColor=#E6E6E6;strokeWidth=2;verticalLabelPosition=bottom;verticalAlign=top;align=center;outlineConnect=0;fillStyle=auto;fontSize=23;aspect=fixed;fontFamily=Arial;fontStyle=2" vertex="1" parent="_sERkGHIxASWAdoTfHKY-407">
          <mxGeometry x="2287.16" y="1383" width="78.74" height="54.22" as="geometry" />
        </mxCell>
        <mxCell id="_sERkGHIxASWAdoTfHKY-597" value="" style="shape=mxgraph.cisco.computers_and_peripherals.laptop;sketch=0;html=1;pointerEvents=1;dashed=0;fillColor=#000000;strokeColor=#E6E6E6;strokeWidth=2;verticalLabelPosition=bottom;verticalAlign=top;align=center;outlineConnect=0;fillStyle=auto;fontSize=23;aspect=fixed;fontFamily=Arial;fontStyle=2" vertex="1" parent="_sERkGHIxASWAdoTfHKY-407">
          <mxGeometry x="2287.16" y="1543" width="78.74" height="54.22" as="geometry" />
        </mxCell>
        <mxCell id="_sERkGHIxASWAdoTfHKY-598" value="" style="shape=mxgraph.cisco.computers_and_peripherals.pc;sketch=0;html=1;pointerEvents=1;dashed=0;fillColor=#000000;strokeColor=#E6E6E6;strokeWidth=2;verticalLabelPosition=bottom;verticalAlign=top;align=center;outlineConnect=0;fontSize=23;fillStyle=auto;aspect=fixed;fontFamily=Arial;fontStyle=2" vertex="1" parent="_sERkGHIxASWAdoTfHKY-407">
          <mxGeometry x="1807.1599999999999" y="1538" width="78.74" height="71.8" as="geometry" />
        </mxCell>
        <mxCell id="_sERkGHIxASWAdoTfHKY-599" value="" style="shape=mxgraph.cisco.computers_and_peripherals.pc;sketch=0;html=1;pointerEvents=1;dashed=0;fillColor=#000000;strokeColor=#E6E6E6;strokeWidth=2;verticalLabelPosition=bottom;verticalAlign=top;align=center;outlineConnect=0;fontSize=23;fillStyle=auto;aspect=fixed;fontFamily=Arial;fontStyle=2" vertex="1" parent="_sERkGHIxASWAdoTfHKY-407">
          <mxGeometry x="1967.1599999999999" y="1538" width="78.74" height="71.8" as="geometry" />
        </mxCell>
        <mxCell id="_sERkGHIxASWAdoTfHKY-600" value="" style="shape=mxgraph.cisco.computers_and_peripherals.laptop;sketch=0;html=1;pointerEvents=1;dashed=0;fillColor=#000000;strokeColor=#E6E6E6;strokeWidth=2;verticalLabelPosition=bottom;verticalAlign=top;align=center;outlineConnect=0;fillStyle=auto;fontSize=23;aspect=fixed;fontFamily=Arial;container=0;fontStyle=2" vertex="1" parent="_sERkGHIxASWAdoTfHKY-407">
          <mxGeometry x="1087.16" y="1543" width="78.74" height="54.22" as="geometry" />
        </mxCell>
        <mxCell id="_sERkGHIxASWAdoTfHKY-601" value="" style="shape=mxgraph.cisco.misc.access_point;html=1;pointerEvents=1;dashed=0;fillColor=#000000;strokeColor=#E6E6E6;strokeWidth=2;verticalLabelPosition=bottom;verticalAlign=top;align=center;outlineConnect=0;fillStyle=auto;fontSize=23;aspect=fixed;fontFamily=Arial;container=0;fontStyle=2" vertex="1" parent="_sERkGHIxASWAdoTfHKY-407">
          <mxGeometry x="1247.1599999999999" y="1472.42" width="78.74" height="36.26" as="geometry" />
        </mxCell>
        <mxCell id="_sERkGHIxASWAdoTfHKY-602" value="" style="shape=mxgraph.cisco.computers_and_peripherals.laptop;sketch=0;html=1;pointerEvents=1;dashed=0;fillColor=#000000;strokeColor=#E6E6E6;strokeWidth=2;verticalLabelPosition=bottom;verticalAlign=top;align=center;outlineConnect=0;fillStyle=auto;fontSize=23;aspect=fixed;fontFamily=Arial;container=0;fontStyle=2" vertex="1" parent="_sERkGHIxASWAdoTfHKY-407">
          <mxGeometry x="1087.16" y="1383" width="78.74" height="54.17" as="geometry" />
        </mxCell>
        <mxCell id="_sERkGHIxASWAdoTfHKY-603" value="" style="shape=mxgraph.cisco.computers_and_peripherals.printer;sketch=0;html=1;pointerEvents=1;dashed=0;fillColor=#000000;strokeColor=#E6E6E6;strokeWidth=2;verticalLabelPosition=bottom;verticalAlign=top;align=center;outlineConnect=0;fontSize=23;fillStyle=auto;aspect=fixed;fontFamily=Arial;fontStyle=2" vertex="1" parent="_sERkGHIxASWAdoTfHKY-407">
          <mxGeometry x="1647.1599999999999" y="1397.5200000000002" width="78.74" height="29.88" as="geometry" />
        </mxCell>
        <mxCell id="_sERkGHIxASWAdoTfHKY-604" style="edgeStyle=orthogonalEdgeStyle;rounded=0;orthogonalLoop=1;jettySize=auto;html=1;fontSize=23;endArrow=none;endFill=0;strokeWidth=3;fontFamily=Arial;entryX=0;entryY=0.5;entryDx=0;entryDy=0;entryPerimeter=0;align=center;fontStyle=2" edge="1" parent="_sERkGHIxASWAdoTfHKY-407">
          <mxGeometry relative="1" as="geometry">
            <mxPoint x="1407.1599999999999" y="1490" as="sourcePoint" />
            <mxPoint x="1647.1599999999999" y="1490.0934999999995" as="targetPoint" />
            <Array as="points">
              <mxPoint x="1587.1599999999999" y="1490" />
              <mxPoint x="1587.1599999999999" y="1490" />
            </Array>
          </mxGeometry>
        </mxCell>
        <mxCell id="_sERkGHIxASWAdoTfHKY-605" style="edgeStyle=orthogonalEdgeStyle;rounded=0;orthogonalLoop=1;jettySize=auto;html=1;fontSize=23;endArrow=none;endFill=0;strokeWidth=3;fontFamily=Arial;align=center;fontStyle=2;entryX=0.5;entryY=1;entryDx=0;entryDy=0;entryPerimeter=0;" edge="1" parent="_sERkGHIxASWAdoTfHKY-407" target="_sERkGHIxASWAdoTfHKY-590">
          <mxGeometry relative="1" as="geometry">
            <mxPoint x="1525.79" y="1670" as="sourcePoint" />
            <mxPoint x="2647.16" y="1580" as="targetPoint" />
            <Array as="points">
              <mxPoint x="1535.79" y="1670" />
              <mxPoint x="2646.79" y="1670" />
            </Array>
          </mxGeometry>
        </mxCell>
        <mxCell id="_sERkGHIxASWAdoTfHKY-606" style="edgeStyle=orthogonalEdgeStyle;rounded=0;orthogonalLoop=1;jettySize=auto;html=1;fontSize=23;endArrow=none;endFill=0;strokeWidth=3;fontFamily=Arial;align=center;fontStyle=2;exitX=0.98;exitY=0.5;exitDx=0;exitDy=0;exitPerimeter=0;" edge="1" parent="_sERkGHIxASWAdoTfHKY-407" source="_sERkGHIxASWAdoTfHKY-591">
          <mxGeometry relative="1" as="geometry">
            <mxPoint x="1727.1599999999999" y="1490" as="sourcePoint" />
            <mxPoint x="2047.1599999999999" y="1490" as="targetPoint" />
            <Array as="points">
              <mxPoint x="1876.79" y="1490" />
            </Array>
          </mxGeometry>
        </mxCell>
        <mxCell id="_sERkGHIxASWAdoTfHKY-607" value="Router" style="text;html=1;strokeColor=none;fillColor=none;align=center;verticalAlign=middle;whiteSpace=wrap;rounded=0;dashed=1;fillStyle=auto;strokeWidth=2;fontFamily=Arial;fontSize=14;fontStyle=2" vertex="1" parent="_sERkGHIxASWAdoTfHKY-407">
          <mxGeometry x="2607.16" y="1340" width="80" height="30" as="geometry" />
        </mxCell>
        <mxCell id="_sERkGHIxASWAdoTfHKY-608" value="Modem" style="text;html=1;strokeColor=none;fillColor=none;align=center;verticalAlign=middle;whiteSpace=wrap;rounded=0;dashed=1;fillStyle=auto;strokeWidth=2;fontFamily=Arial;fontSize=14;fontStyle=2" vertex="1" parent="_sERkGHIxASWAdoTfHKY-407">
          <mxGeometry x="2767.16" y="1340" width="79.9211" height="30" as="geometry" />
        </mxCell>
        <mxCell id="_sERkGHIxASWAdoTfHKY-609" value="HPE MSR954 1GbE SFP 2GbE-WAN 4GbE-LAN CWv7&lt;br&gt;(JH296A)" style="text;html=1;strokeColor=none;fillColor=none;align=center;verticalAlign=top;whiteSpace=wrap;rounded=0;dashed=1;fillStyle=auto;strokeWidth=2;fontFamily=Arial;fontSize=14;fontStyle=2;container=0;" vertex="1" parent="_sERkGHIxASWAdoTfHKY-407">
          <mxGeometry x="2567.16" y="1450" width="80" height="30" as="geometry" />
        </mxCell>
        <mxCell id="_sERkGHIxASWAdoTfHKY-610" value="TP-Link &lt;br&gt;TD-8616" style="text;html=1;strokeColor=none;fillColor=none;align=center;verticalAlign=middle;whiteSpace=wrap;rounded=0;dashed=1;fillStyle=auto;strokeWidth=2;fontFamily=Arial;fontSize=14;fontStyle=2;container=0;" vertex="1" parent="_sERkGHIxASWAdoTfHKY-407">
          <mxGeometry x="2727.16" y="1450" width="80" height="30" as="geometry" />
        </mxCell>
        <mxCell id="_sERkGHIxASWAdoTfHKY-611" value="S1" style="text;html=1;strokeColor=none;fillColor=none;align=center;verticalAlign=middle;whiteSpace=wrap;rounded=0;dashed=1;fillStyle=auto;strokeWidth=2;fontFamily=Arial;fontSize=14;fontStyle=2" vertex="1" parent="_sERkGHIxASWAdoTfHKY-407">
          <mxGeometry x="1647.1599999999999" y="1450" width="80" height="20" as="geometry" />
        </mxCell>
        <mxCell id="_sERkGHIxASWAdoTfHKY-612" value="Wireless&amp;nbsp;1-6" style="text;html=1;strokeColor=none;fillColor=none;align=center;verticalAlign=middle;whiteSpace=wrap;rounded=0;dashed=1;fillStyle=auto;strokeWidth=2;fontFamily=Arial;fontSize=14;fontStyle=2" vertex="1" parent="_sERkGHIxASWAdoTfHKY-407">
          <mxGeometry x="2287.16" y="1360" width="80" height="20" as="geometry" />
        </mxCell>
        <mxCell id="_sERkGHIxASWAdoTfHKY-613" value="Wireless&amp;nbsp;1-10" style="text;html=1;strokeColor=none;fillColor=none;align=center;verticalAlign=middle;whiteSpace=wrap;rounded=0;dashed=1;fillStyle=auto;strokeWidth=2;fontFamily=Arial;fontSize=14;fontStyle=2" vertex="1" parent="_sERkGHIxASWAdoTfHKY-407">
          <mxGeometry x="2283.54" y="1520" width="88.59" height="20" as="geometry" />
        </mxCell>
        <mxCell id="_sERkGHIxASWAdoTfHKY-614" value="&lt;span&gt;&lt;font style=&quot;font-size: 24px;&quot;&gt;...&lt;/font&gt;&lt;/span&gt;" style="text;html=1;align=center;verticalAlign=middle;resizable=0;points=[];autosize=1;strokeColor=none;fillColor=none;fontSize=23;fontFamily=Arial;fontStyle=2" vertex="1" parent="_sERkGHIxASWAdoTfHKY-407">
          <mxGeometry x="2307.16" y="1470.0000000000002" width="39.37" height="39.37" as="geometry" />
        </mxCell>
        <mxCell id="_sERkGHIxASWAdoTfHKY-615" value="PC 1-2" style="text;html=1;strokeColor=none;fillColor=none;align=center;verticalAlign=middle;whiteSpace=wrap;rounded=0;dashed=1;fillStyle=auto;strokeWidth=2;fontFamily=Arial;fontSize=14;fontStyle=2" vertex="1" parent="_sERkGHIxASWAdoTfHKY-407">
          <mxGeometry x="1966.1599999999999" y="1360" width="80" height="20" as="geometry" />
        </mxCell>
        <mxCell id="_sERkGHIxASWAdoTfHKY-616" value="PC 1-1" style="text;html=1;strokeColor=none;fillColor=none;align=center;verticalAlign=middle;whiteSpace=wrap;rounded=0;dashed=1;fillStyle=auto;strokeWidth=2;fontFamily=Arial;fontSize=14;fontStyle=2" vertex="1" parent="_sERkGHIxASWAdoTfHKY-407">
          <mxGeometry x="1806.1599999999999" y="1360" width="80" height="20" as="geometry" />
        </mxCell>
        <mxCell id="_sERkGHIxASWAdoTfHKY-617" value="AP 1-2" style="text;html=1;strokeColor=none;fillColor=none;align=center;verticalAlign=middle;whiteSpace=wrap;rounded=0;dashed=1;fillStyle=auto;strokeWidth=2;fontFamily=Arial;fontSize=14;fontStyle=2" vertex="1" parent="_sERkGHIxASWAdoTfHKY-407">
          <mxGeometry x="2127.16" y="1450" width="80" height="20" as="geometry" />
        </mxCell>
        <mxCell id="_sERkGHIxASWAdoTfHKY-618" value="P 1-2" style="text;html=1;strokeColor=none;fillColor=none;align=center;verticalAlign=middle;whiteSpace=wrap;rounded=0;dashed=1;fillStyle=auto;strokeWidth=2;fontFamily=Arial;fontSize=14;fontStyle=2" vertex="1" parent="_sERkGHIxASWAdoTfHKY-407">
          <mxGeometry x="2127.16" y="1372.52" width="80" height="20" as="geometry" />
        </mxCell>
        <mxCell id="_sERkGHIxASWAdoTfHKY-619" value="P 1-1" style="text;html=1;strokeColor=none;fillColor=none;align=center;verticalAlign=middle;whiteSpace=wrap;rounded=0;dashed=1;fillStyle=auto;strokeWidth=2;fontFamily=Arial;fontSize=14;fontStyle=2" vertex="1" parent="_sERkGHIxASWAdoTfHKY-407">
          <mxGeometry x="1647.1599999999999" y="1372.52" width="80" height="20" as="geometry" />
        </mxCell>
        <mxCell id="_sERkGHIxASWAdoTfHKY-620" value="&lt;span&gt;&lt;font style=&quot;font-size: 24px;&quot;&gt;...&lt;/font&gt;&lt;/span&gt;" style="text;html=1;align=center;verticalAlign=middle;resizable=0;points=[];autosize=1;strokeColor=none;fillColor=none;fontSize=23;fontFamily=Arial;fontStyle=2" vertex="1" parent="_sERkGHIxASWAdoTfHKY-407">
          <mxGeometry x="1906.1599999999999" y="1547" width="39.37" height="39.37" as="geometry" />
        </mxCell>
        <mxCell id="_sERkGHIxASWAdoTfHKY-621" value="Aruba CX 6000 48G 4SFP (R8N86A)" style="text;html=1;strokeColor=none;fillColor=none;align=center;verticalAlign=top;whiteSpace=wrap;rounded=0;dashed=1;fillStyle=auto;strokeWidth=2;fontFamily=Arial;fontSize=14;fontStyle=2;container=0;" vertex="1" parent="_sERkGHIxASWAdoTfHKY-407">
          <mxGeometry x="1614.25" y="1510" width="137.8" height="23" as="geometry" />
        </mxCell>
        <mxCell id="_sERkGHIxASWAdoTfHKY-622" value="Pantum P3010D" style="text;html=1;strokeColor=none;fillColor=none;align=center;verticalAlign=middle;whiteSpace=wrap;rounded=0;dashed=1;fillStyle=auto;strokeWidth=2;fontFamily=Arial;fontSize=14;fontStyle=2;container=0;" vertex="1" parent="_sERkGHIxASWAdoTfHKY-407">
          <mxGeometry x="1633.9300000000003" y="1432.52" width="108.26" height="20" as="geometry" />
        </mxCell>
        <mxCell id="_sERkGHIxASWAdoTfHKY-623" value="HP Ink Tank 315" style="text;html=1;strokeColor=none;fillColor=none;align=center;verticalAlign=middle;whiteSpace=wrap;rounded=0;dashed=1;fillStyle=auto;strokeWidth=2;fontFamily=Arial;fontSize=14;fontStyle=2;container=0;" vertex="1" parent="_sERkGHIxASWAdoTfHKY-407">
          <mxGeometry x="2106.37" y="1429.52" width="118.11" height="23" as="geometry" />
        </mxCell>
        <mxCell id="_sERkGHIxASWAdoTfHKY-624" value="Aruba AP-303" style="text;html=1;strokeColor=none;fillColor=none;align=center;verticalAlign=middle;whiteSpace=wrap;rounded=0;dashed=1;fillStyle=auto;strokeWidth=2;fontFamily=Arial;fontSize=14;fontStyle=2;container=0;" vertex="1" parent="_sERkGHIxASWAdoTfHKY-407">
          <mxGeometry x="2106.37" y="1510" width="118.11" height="20" as="geometry" />
        </mxCell>
        <mxCell id="_sERkGHIxASWAdoTfHKY-625" value="&lt;span style=&quot;font-size: 12px;&quot;&gt;MultiOffice 3С101D8S24IM24&lt;/span&gt;" style="text;html=1;strokeColor=none;fillColor=none;align=center;verticalAlign=middle;whiteSpace=wrap;rounded=0;dashed=1;fillStyle=auto;strokeWidth=2;fontFamily=Arial;fontSize=14;fontStyle=2;container=0;" vertex="1" parent="_sERkGHIxASWAdoTfHKY-407">
          <mxGeometry x="1889.83" y="1450" width="117.33" height="20" as="geometry" />
        </mxCell>
        <mxCell id="_sERkGHIxASWAdoTfHKY-626" value="&lt;font style=&quot;font-size: 12px;&quot;&gt;MultiOffice 3С101D8S24IM24&lt;/font&gt;" style="text;html=1;strokeColor=none;fillColor=none;align=center;verticalAlign=middle;whiteSpace=wrap;rounded=0;dashed=1;fillStyle=auto;strokeWidth=2;fontFamily=Arial;fontSize=14;fontStyle=2;container=0;" vertex="1" parent="_sERkGHIxASWAdoTfHKY-407">
          <mxGeometry x="1722.5100000000002" y="1450" width="124.65" height="20" as="geometry" />
        </mxCell>
        <mxCell id="_sERkGHIxASWAdoTfHKY-627" value="PC 1-3" style="text;html=1;strokeColor=none;fillColor=none;align=center;verticalAlign=middle;whiteSpace=wrap;rounded=0;dashed=1;fillStyle=auto;strokeWidth=2;fontFamily=Arial;fontSize=14;fontStyle=2" vertex="1" parent="_sERkGHIxASWAdoTfHKY-407">
          <mxGeometry x="1766.1599999999999" y="1520" width="80" height="20" as="geometry" />
        </mxCell>
        <mxCell id="_sERkGHIxASWAdoTfHKY-628" value="PC 1-20" style="text;html=1;strokeColor=none;fillColor=none;align=center;verticalAlign=middle;whiteSpace=wrap;rounded=0;dashed=1;fillStyle=auto;strokeWidth=2;fontFamily=Arial;fontSize=14;fontStyle=2" vertex="1" parent="_sERkGHIxASWAdoTfHKY-407">
          <mxGeometry x="1926.1599999999999" y="1520" width="80" height="20" as="geometry" />
        </mxCell>
        <mxCell id="_sERkGHIxASWAdoTfHKY-629" value="Wireless 1-5" style="text;html=1;strokeColor=none;fillColor=none;align=center;verticalAlign=middle;whiteSpace=wrap;rounded=0;dashed=1;fillStyle=auto;strokeWidth=2;fontFamily=Arial;fontSize=14;fontStyle=2;container=0;" vertex="1" parent="_sERkGHIxASWAdoTfHKY-407">
          <mxGeometry x="1087.16" y="1520" width="80" height="20" as="geometry" />
        </mxCell>
        <mxCell id="_sERkGHIxASWAdoTfHKY-630" value="Wireless&amp;nbsp;1-1" style="text;html=1;strokeColor=none;fillColor=none;align=center;verticalAlign=middle;whiteSpace=wrap;rounded=0;dashed=1;fillStyle=auto;strokeWidth=2;fontFamily=Arial;fontSize=14;fontStyle=2;container=0;" vertex="1" parent="_sERkGHIxASWAdoTfHKY-407">
          <mxGeometry x="1087.16" y="1360" width="80" height="20" as="geometry" />
        </mxCell>
        <mxCell id="_sERkGHIxASWAdoTfHKY-631" value="AP 1-1" style="text;html=1;strokeColor=none;fillColor=none;align=center;verticalAlign=middle;whiteSpace=wrap;rounded=0;dashed=1;fillStyle=auto;strokeWidth=2;fontFamily=Arial;fontSize=14;fontStyle=2" vertex="1" parent="_sERkGHIxASWAdoTfHKY-407">
          <mxGeometry x="1247.1599999999999" y="1450" width="80" height="20" as="geometry" />
        </mxCell>
        <mxCell id="_sERkGHIxASWAdoTfHKY-632" value="&lt;span&gt;&lt;font style=&quot;font-size: 24px;&quot;&gt;...&lt;/font&gt;&lt;/span&gt;" style="text;html=1;align=center;verticalAlign=middle;resizable=0;points=[];autosize=1;strokeColor=none;fillColor=none;fontSize=23;fontFamily=Arial;container=0;fontStyle=2" vertex="1" parent="_sERkGHIxASWAdoTfHKY-407">
          <mxGeometry x="1107.16" y="1470.0000000000002" width="39.37" height="39.37" as="geometry" />
        </mxCell>
        <mxCell id="_sERkGHIxASWAdoTfHKY-633" value="Aruba AP-303" style="text;html=1;strokeColor=none;fillColor=none;align=center;verticalAlign=middle;whiteSpace=wrap;rounded=0;dashed=1;fillStyle=auto;strokeWidth=2;fontFamily=Arial;fontSize=14;fontStyle=2;container=0;" vertex="1" parent="_sERkGHIxASWAdoTfHKY-407">
          <mxGeometry x="1220.5500000000002" y="1510" width="127.96" height="20" as="geometry" />
        </mxCell>
        <mxCell id="_sERkGHIxASWAdoTfHKY-634" value="&lt;span style=&quot;font-size: 12px;&quot;&gt;MultiOffice 3С101D8S24IM24&lt;/span&gt;" style="text;html=1;strokeColor=none;fillColor=none;align=center;verticalAlign=top;whiteSpace=wrap;rounded=0;dashed=1;fillStyle=auto;strokeWidth=2;fontFamily=Arial;fontSize=14;fontStyle=2;container=0;" vertex="1" parent="_sERkGHIxASWAdoTfHKY-407">
          <mxGeometry x="1807.1599999999999" y="1610" width="80" height="20" as="geometry" />
        </mxCell>
        <mxCell id="_sERkGHIxASWAdoTfHKY-635" value="&lt;span style=&quot;font-size: 12px;&quot;&gt;MultiOffice 3С101D8S24IM24&lt;/span&gt;" style="text;html=1;strokeColor=none;fillColor=none;align=center;verticalAlign=top;whiteSpace=wrap;rounded=0;dashed=1;fillStyle=auto;strokeWidth=2;fontFamily=Arial;fontSize=14;fontStyle=2;container=0;" vertex="1" parent="_sERkGHIxASWAdoTfHKY-407">
          <mxGeometry x="1967.1599999999999" y="1610" width="80" height="20" as="geometry" />
        </mxCell>
        <mxCell id="_sERkGHIxASWAdoTfHKY-636" value="" style="group;fontFamily=Arial;fontStyle=2" vertex="1" connectable="0" parent="_sERkGHIxASWAdoTfHKY-407">
          <mxGeometry x="1752.1599999999999" y="1407.5200000000002" width="30" height="10" as="geometry" />
        </mxCell>
        <mxCell id="_sERkGHIxASWAdoTfHKY-637" value="" style="rounded=0;whiteSpace=wrap;html=1;fontFamily=Arial;fontStyle=2" vertex="1" parent="_sERkGHIxASWAdoTfHKY-636">
          <mxGeometry width="30" height="10" as="geometry" />
        </mxCell>
        <mxCell id="_sERkGHIxASWAdoTfHKY-638" value="" style="rounded=0;whiteSpace=wrap;html=1;fontFamily=Arial;fillColor=#000000;strokeColor=none;fontStyle=2" vertex="1" parent="_sERkGHIxASWAdoTfHKY-636">
          <mxGeometry x="0.7502999999999247" width="5.9055" height="1.9685" as="geometry" />
        </mxCell>
        <mxCell id="_sERkGHIxASWAdoTfHKY-639" value="" style="rounded=0;whiteSpace=wrap;html=1;fontFamily=Arial;fillColor=#000000;strokeColor=none;fontStyle=2" vertex="1" parent="_sERkGHIxASWAdoTfHKY-636">
          <mxGeometry x="8.250299999999925" width="5.9055" height="1.9685" as="geometry" />
        </mxCell>
        <mxCell id="_sERkGHIxASWAdoTfHKY-640" value="" style="rounded=0;whiteSpace=wrap;html=1;fontFamily=Arial;fillColor=#000000;strokeColor=none;fontStyle=2" vertex="1" parent="_sERkGHIxASWAdoTfHKY-636">
          <mxGeometry x="15.750299999999925" width="5.9055" height="1.9685" as="geometry" />
        </mxCell>
        <mxCell id="_sERkGHIxASWAdoTfHKY-641" value="" style="rounded=0;whiteSpace=wrap;html=1;fontFamily=Arial;fillColor=#000000;strokeColor=none;fontStyle=2" vertex="1" parent="_sERkGHIxASWAdoTfHKY-636">
          <mxGeometry x="23.250299999999925" width="5.9055" height="1.9685" as="geometry" />
        </mxCell>
        <mxCell id="_sERkGHIxASWAdoTfHKY-642" value="" style="group;fontFamily=Arial;fontStyle=2" vertex="1" connectable="0" parent="_sERkGHIxASWAdoTfHKY-407">
          <mxGeometry x="2072.16" y="1407.52" width="30" height="10" as="geometry" />
        </mxCell>
        <mxCell id="_sERkGHIxASWAdoTfHKY-643" value="" style="rounded=0;whiteSpace=wrap;html=1;fontFamily=Arial;fontStyle=2" vertex="1" parent="_sERkGHIxASWAdoTfHKY-642">
          <mxGeometry width="30" height="10" as="geometry" />
        </mxCell>
        <mxCell id="_sERkGHIxASWAdoTfHKY-644" value="" style="rounded=0;whiteSpace=wrap;html=1;fontFamily=Arial;fillColor=#000000;strokeColor=none;fontStyle=2" vertex="1" parent="_sERkGHIxASWAdoTfHKY-642">
          <mxGeometry x="0.7502999999999247" width="5.9055" height="1.9685" as="geometry" />
        </mxCell>
        <mxCell id="_sERkGHIxASWAdoTfHKY-645" value="" style="rounded=0;whiteSpace=wrap;html=1;fontFamily=Arial;fillColor=#000000;strokeColor=none;fontStyle=2" vertex="1" parent="_sERkGHIxASWAdoTfHKY-642">
          <mxGeometry x="8.250299999999925" width="5.9055" height="1.9685" as="geometry" />
        </mxCell>
        <mxCell id="_sERkGHIxASWAdoTfHKY-646" value="" style="rounded=0;whiteSpace=wrap;html=1;fontFamily=Arial;fillColor=#000000;strokeColor=none;fontStyle=2" vertex="1" parent="_sERkGHIxASWAdoTfHKY-642">
          <mxGeometry x="15.750299999999925" width="5.9055" height="1.9685" as="geometry" />
        </mxCell>
        <mxCell id="_sERkGHIxASWAdoTfHKY-647" value="" style="rounded=0;whiteSpace=wrap;html=1;fontFamily=Arial;fillColor=#000000;strokeColor=none;fontStyle=2" vertex="1" parent="_sERkGHIxASWAdoTfHKY-642">
          <mxGeometry x="23.250299999999925" width="5.9055" height="1.9685" as="geometry" />
        </mxCell>
        <mxCell id="_sERkGHIxASWAdoTfHKY-648" value="" style="group;fontFamily=Arial;fontStyle=2" vertex="1" connectable="0" parent="_sERkGHIxASWAdoTfHKY-407">
          <mxGeometry x="2797.16" y="1470" width="20" height="20" as="geometry" />
        </mxCell>
        <mxCell id="_sERkGHIxASWAdoTfHKY-649" value="" style="rounded=0;whiteSpace=wrap;html=1;fontFamily=Arial;fontStyle=2" vertex="1" parent="_sERkGHIxASWAdoTfHKY-648">
          <mxGeometry width="20" height="20" as="geometry" />
        </mxCell>
        <mxCell id="_sERkGHIxASWAdoTfHKY-650" value="" style="rounded=0;whiteSpace=wrap;html=1;fontFamily=Arial;fillColor=#000000;strokeColor=none;fontStyle=2" vertex="1" parent="_sERkGHIxASWAdoTfHKY-648">
          <mxGeometry x="4.40729999999985" width="1.9685" height="10" as="geometry" />
        </mxCell>
        <mxCell id="_sERkGHIxASWAdoTfHKY-651" value="" style="rounded=0;whiteSpace=wrap;html=1;fontFamily=Arial;fillColor=#000000;strokeColor=none;fontStyle=2" vertex="1" parent="_sERkGHIxASWAdoTfHKY-648">
          <mxGeometry x="13.462399999999889" width="1.9685" height="10" as="geometry" />
        </mxCell>
        <mxCell id="_sERkGHIxASWAdoTfHKY-652" value="" style="rounded=0;whiteSpace=wrap;html=1;fontFamily=Arial;fillColor=#000000;strokeColor=none;fontStyle=2" vertex="1" parent="_sERkGHIxASWAdoTfHKY-648">
          <mxGeometry x="10.312799999999925" width="1.9685" height="10" as="geometry" />
        </mxCell>
        <mxCell id="_sERkGHIxASWAdoTfHKY-653" value="" style="rounded=0;whiteSpace=wrap;html=1;fontFamily=Arial;fillColor=#000000;strokeColor=none;fontStyle=2" vertex="1" parent="_sERkGHIxASWAdoTfHKY-648">
          <mxGeometry x="7.556899999999814" width="1.9685" height="10" as="geometry" />
        </mxCell>
        <mxCell id="_sERkGHIxASWAdoTfHKY-654" style="edgeStyle=orthogonalEdgeStyle;rounded=0;orthogonalLoop=1;jettySize=auto;html=1;strokeWidth=1;fontFamily=Arial;fontSize=14;endArrow=none;endFill=0;dashed=1;align=center;fontStyle=2" edge="1" parent="_sERkGHIxASWAdoTfHKY-407">
          <mxGeometry relative="1" as="geometry">
            <mxPoint x="1711.2600000000002" y="2033.23" as="targetPoint" />
            <mxPoint x="1631.2600000000002" y="2033.23" as="sourcePoint" />
          </mxGeometry>
        </mxCell>
        <mxCell id="_sERkGHIxASWAdoTfHKY-655" value="" style="endArrow=none;html=1;rounded=0;strokeWidth=1;fontFamily=Arial;fontSize=14;exitX=0;exitY=1;exitDx=0;exitDy=0;align=center;fontStyle=2" edge="1" parent="_sERkGHIxASWAdoTfHKY-407">
          <mxGeometry width="50" height="50" relative="1" as="geometry">
            <mxPoint x="1631.2600000000002" y="2103.23" as="sourcePoint" />
            <mxPoint x="1711.2600000000002" y="2103.23" as="targetPoint" />
          </mxGeometry>
        </mxCell>
        <mxCell id="_sERkGHIxASWAdoTfHKY-656" style="edgeStyle=orthogonalEdgeStyle;rounded=0;orthogonalLoop=1;jettySize=auto;html=1;strokeWidth=1;fontFamily=Arial;fontSize=14;endArrow=none;endFill=0;align=center;fontStyle=2;" edge="1" parent="_sERkGHIxASWAdoTfHKY-407">
          <mxGeometry relative="1" as="geometry">
            <mxPoint x="1951.2600000000002" y="2033.23" as="targetPoint" />
            <mxPoint x="1871.2600000000002" y="2033.23" as="sourcePoint" />
          </mxGeometry>
        </mxCell>
        <mxCell id="_sERkGHIxASWAdoTfHKY-657" style="edgeStyle=orthogonalEdgeStyle;rounded=0;orthogonalLoop=1;jettySize=auto;html=1;strokeWidth=1;fontFamily=Arial;fontSize=14;endArrow=none;endFill=0;align=center;fontStyle=2;" edge="1" parent="_sERkGHIxASWAdoTfHKY-407">
          <mxGeometry relative="1" as="geometry">
            <mxPoint x="1951.2600000000002" y="1953.23" as="targetPoint" />
            <mxPoint x="1871.2600000000002" y="1953.23" as="sourcePoint" />
          </mxGeometry>
        </mxCell>
        <mxCell id="_sERkGHIxASWAdoTfHKY-660" value="" style="shape=mxgraph.cisco.computers_and_peripherals.pc;sketch=0;html=1;pointerEvents=1;dashed=0;fillColor=#000000;strokeColor=#E6E6E6;strokeWidth=2;verticalLabelPosition=bottom;verticalAlign=top;align=center;outlineConnect=0;fontSize=23;fillStyle=auto;aspect=fixed;fontFamily=Arial;fontStyle=2" vertex="1" parent="_sERkGHIxASWAdoTfHKY-407">
          <mxGeometry x="1224.96" y="2048.66" width="78.74" height="71.8" as="geometry" />
        </mxCell>
        <mxCell id="_sERkGHIxASWAdoTfHKY-661" value="" style="shape=mxgraph.cisco.computers_and_peripherals.laptop;sketch=0;html=1;pointerEvents=1;dashed=0;fillColor=#000000;strokeColor=#E6E6E6;strokeWidth=2;verticalLabelPosition=bottom;verticalAlign=top;align=center;outlineConnect=0;fillStyle=auto;fontSize=23;aspect=fixed;fontFamily=Arial;container=0;fontStyle=2" vertex="1" parent="_sERkGHIxASWAdoTfHKY-407">
          <mxGeometry x="1067.2600000000002" y="2059.23" width="78.74" height="54.22" as="geometry" />
        </mxCell>
        <mxCell id="_sERkGHIxASWAdoTfHKY-662" value="" style="shape=mxgraph.cisco.misc.access_point;html=1;pointerEvents=1;dashed=0;fillColor=#000000;strokeColor=#E6E6E6;strokeWidth=2;verticalLabelPosition=bottom;verticalAlign=top;align=center;outlineConnect=0;fillStyle=auto;fontSize=23;aspect=fixed;fontFamily=Arial;container=0;fontStyle=2" vertex="1" parent="_sERkGHIxASWAdoTfHKY-407">
          <mxGeometry x="1067.2600000000002" y="1952.08" width="78.74" height="36.26" as="geometry" />
        </mxCell>
        <mxCell id="_sERkGHIxASWAdoTfHKY-663" value="" style="shape=mxgraph.cisco.modems_and_phones.modem;sketch=0;html=1;pointerEvents=1;dashed=0;fillColor=#000000;strokeColor=#E6E6E6;strokeWidth=2;verticalLabelPosition=bottom;verticalAlign=top;align=center;outlineConnect=0;fontSize=23;fillStyle=auto;aspect=fixed;fontFamily=Arial;fontStyle=2" vertex="1" parent="_sERkGHIxASWAdoTfHKY-407">
          <mxGeometry x="910.2600000000002" y="1956.08" width="78.74" height="28.04" as="geometry" />
        </mxCell>
        <mxCell id="_sERkGHIxASWAdoTfHKY-665" style="edgeStyle=orthogonalEdgeStyle;rounded=0;orthogonalLoop=1;jettySize=auto;html=1;strokeWidth=3;fontFamily=Arial;fontSize=14;endArrow=none;endFill=0;align=center;fontStyle=2" edge="1" parent="_sERkGHIxASWAdoTfHKY-407">
          <mxGeometry relative="1" as="geometry">
            <mxPoint x="1631.2600000000002" y="1953.23" as="targetPoint" />
            <mxPoint x="1711.2600000000002" y="1953.23" as="sourcePoint" />
          </mxGeometry>
        </mxCell>
        <mxCell id="_sERkGHIxASWAdoTfHKY-666" value="Коммутатор" style="text;html=1;strokeColor=none;fillColor=none;align=center;verticalAlign=middle;whiteSpace=wrap;rounded=0;dashed=1;fillStyle=auto;strokeWidth=2;fontFamily=Arial;fontSize=14;fontStyle=2;container=0;" vertex="1" parent="_sERkGHIxASWAdoTfHKY-407">
          <mxGeometry x="1224.96" y="1901.02" width="78.74" height="29.53" as="geometry" />
        </mxCell>
        <mxCell id="_sERkGHIxASWAdoTfHKY-667" value="Модем" style="text;html=1;strokeColor=none;fillColor=none;align=center;verticalAlign=middle;whiteSpace=wrap;rounded=0;dashed=1;fillStyle=auto;strokeWidth=2;fontFamily=Arial;fontSize=14;fontStyle=2;container=0;" vertex="1" parent="_sERkGHIxASWAdoTfHKY-407">
          <mxGeometry x="910" y="1901.02" width="78.74" height="29.53" as="geometry" />
        </mxCell>
        <mxCell id="_sERkGHIxASWAdoTfHKY-668" value="Маршрутизатор" style="text;html=1;strokeColor=none;fillColor=none;align=center;verticalAlign=middle;whiteSpace=wrap;rounded=0;dashed=1;fillStyle=auto;strokeWidth=2;fontFamily=Arial;fontSize=14;fontStyle=2;container=0;" vertex="1" parent="_sERkGHIxASWAdoTfHKY-407">
          <mxGeometry x="1382.44" y="1901.02" width="78.74" height="29.53" as="geometry" />
        </mxCell>
        <mxCell id="_sERkGHIxASWAdoTfHKY-669" value="Беспроводная точка доступа Wi-Fi" style="text;html=1;strokeColor=none;fillColor=none;align=center;verticalAlign=middle;whiteSpace=wrap;rounded=0;dashed=1;fillStyle=auto;strokeWidth=2;fontFamily=Arial;fontSize=14;fontStyle=2;container=0;" vertex="1" parent="_sERkGHIxASWAdoTfHKY-407">
          <mxGeometry x="1028.1100000000001" y="1901.02" width="157.48" height="29.53" as="geometry" />
        </mxCell>
        <mxCell id="_sERkGHIxASWAdoTfHKY-670" value="Беспроводное устройство" style="text;html=1;strokeColor=none;fillColor=none;align=center;verticalAlign=middle;whiteSpace=wrap;rounded=0;dashed=1;fillStyle=auto;strokeWidth=2;fontFamily=Arial;fontSize=14;fontStyle=2;container=0;" vertex="1" parent="_sERkGHIxASWAdoTfHKY-407">
          <mxGeometry x="1067.48" y="2009.29" width="78.74" height="29.53" as="geometry" />
        </mxCell>
        <mxCell id="_sERkGHIxASWAdoTfHKY-671" value="Рабочая станция" style="text;html=1;strokeColor=none;fillColor=none;align=center;verticalAlign=middle;whiteSpace=wrap;rounded=0;dashed=1;fillStyle=auto;strokeWidth=2;fontFamily=Arial;fontSize=14;fontStyle=2;container=0;" vertex="1" parent="_sERkGHIxASWAdoTfHKY-407">
          <mxGeometry x="1205.2800000000002" y="2009.29" width="118.11" height="29.53" as="geometry" />
        </mxCell>
        <mxCell id="_sERkGHIxASWAdoTfHKY-672" value="Принтер" style="text;html=1;strokeColor=none;fillColor=none;align=center;verticalAlign=middle;whiteSpace=wrap;rounded=0;dashed=1;fillStyle=auto;strokeWidth=2;fontFamily=Arial;fontSize=14;fontStyle=2;container=0;" vertex="1" parent="_sERkGHIxASWAdoTfHKY-407">
          <mxGeometry x="910" y="2009.29" width="78.74" height="29.53" as="geometry" />
        </mxCell>
        <mxCell id="_sERkGHIxASWAdoTfHKY-673" value="Кабель UTP категории 5e" style="text;html=1;strokeColor=none;fillColor=none;align=center;verticalAlign=bottom;whiteSpace=wrap;rounded=0;dashed=1;fillStyle=auto;strokeWidth=2;fontFamily=Arial;fontSize=14;fontStyle=2;container=0;" vertex="1" parent="_sERkGHIxASWAdoTfHKY-407">
          <mxGeometry x="1551.2600000000002" y="2063.23" width="240" height="30" as="geometry" />
        </mxCell>
        <mxCell id="_sERkGHIxASWAdoTfHKY-674" value="Шина" style="text;html=1;strokeColor=none;fillColor=none;align=center;verticalAlign=bottom;whiteSpace=wrap;rounded=0;dashed=1;fillStyle=auto;strokeWidth=2;fontFamily=Arial;fontSize=14;fontStyle=2;container=0;" vertex="1" parent="_sERkGHIxASWAdoTfHKY-407">
          <mxGeometry x="1591.2600000000002" y="1913.23" width="160" height="30" as="geometry" />
        </mxCell>
        <mxCell id="_sERkGHIxASWAdoTfHKY-675" value="Кабель коаксиальный" style="text;html=1;strokeColor=none;fillColor=none;align=center;verticalAlign=bottom;whiteSpace=wrap;rounded=0;dashed=1;fillStyle=auto;strokeWidth=2;fontFamily=Arial;fontSize=14;fontStyle=2;container=0;" vertex="1" parent="_sERkGHIxASWAdoTfHKY-407">
          <mxGeometry x="1831.2600000000002" y="1993.23" width="160" height="30" as="geometry" />
        </mxCell>
        <mxCell id="_sERkGHIxASWAdoTfHKY-676" value="Кабель Universal Serial Bus" style="text;html=1;strokeColor=none;fillColor=none;align=center;verticalAlign=bottom;whiteSpace=wrap;rounded=0;dashed=1;fillStyle=auto;strokeWidth=2;fontFamily=Arial;fontSize=14;fontStyle=2;container=0;" vertex="1" parent="_sERkGHIxASWAdoTfHKY-407">
          <mxGeometry x="1791.2600000000002" y="1913.23" width="240" height="30" as="geometry" />
        </mxCell>
        <mxCell id="_sERkGHIxASWAdoTfHKY-677" value="Беспроводное соединение Wi-Fi" style="text;html=1;strokeColor=none;fillColor=none;align=center;verticalAlign=bottom;whiteSpace=wrap;rounded=0;dashed=1;fillStyle=auto;strokeWidth=2;fontFamily=Arial;fontSize=14;fontStyle=2;container=0;" vertex="1" parent="_sERkGHIxASWAdoTfHKY-407">
          <mxGeometry x="1551.2600000000002" y="1993.23" width="240" height="30" as="geometry" />
        </mxCell>
        <mxCell id="_sERkGHIxASWAdoTfHKY-678" value="Устройства:" style="text;html=1;strokeColor=none;fillColor=none;align=left;verticalAlign=bottom;whiteSpace=wrap;rounded=0;dashed=1;fillStyle=auto;strokeWidth=2;fontFamily=Arial;fontSize=16;fontStyle=2;container=0;" vertex="1" parent="_sERkGHIxASWAdoTfHKY-407">
          <mxGeometry x="911.2600000000002" y="1843.23" width="410" height="30" as="geometry" />
        </mxCell>
        <mxCell id="_sERkGHIxASWAdoTfHKY-679" value="Соединения:" style="text;html=1;strokeColor=none;fillColor=none;align=left;verticalAlign=bottom;whiteSpace=wrap;rounded=0;dashed=1;fillStyle=auto;strokeWidth=2;fontFamily=Arial;fontSize=16;fontStyle=2;container=0;" vertex="1" parent="_sERkGHIxASWAdoTfHKY-407">
          <mxGeometry x="1551.2600000000002" y="1843.23" width="410" height="30" as="geometry" />
        </mxCell>
        <mxCell id="_sERkGHIxASWAdoTfHKY-680" value="" style="group;fontFamily=Arial;fontStyle=2" vertex="1" connectable="0" parent="_sERkGHIxASWAdoTfHKY-407">
          <mxGeometry x="1896.2600000000002" y="1948.23" width="30" height="10" as="geometry" />
        </mxCell>
        <mxCell id="_sERkGHIxASWAdoTfHKY-681" value="" style="rounded=0;whiteSpace=wrap;html=1;fontFamily=Arial;fontStyle=2" vertex="1" parent="_sERkGHIxASWAdoTfHKY-680">
          <mxGeometry width="30" height="10" as="geometry" />
        </mxCell>
        <mxCell id="_sERkGHIxASWAdoTfHKY-682" value="" style="rounded=0;whiteSpace=wrap;html=1;fontFamily=Arial;fillColor=#000000;strokeColor=none;fontStyle=2" vertex="1" parent="_sERkGHIxASWAdoTfHKY-680">
          <mxGeometry x="0.7502999999999247" width="5.9055" height="1.9685" as="geometry" />
        </mxCell>
        <mxCell id="_sERkGHIxASWAdoTfHKY-683" value="" style="rounded=0;whiteSpace=wrap;html=1;fontFamily=Arial;fillColor=#000000;strokeColor=none;fontStyle=2" vertex="1" parent="_sERkGHIxASWAdoTfHKY-680">
          <mxGeometry x="8.250299999999925" width="5.9055" height="1.9685" as="geometry" />
        </mxCell>
        <mxCell id="_sERkGHIxASWAdoTfHKY-684" value="" style="rounded=0;whiteSpace=wrap;html=1;fontFamily=Arial;fillColor=#000000;strokeColor=none;fontStyle=2" vertex="1" parent="_sERkGHIxASWAdoTfHKY-680">
          <mxGeometry x="15.750299999999925" width="5.9055" height="1.9685" as="geometry" />
        </mxCell>
        <mxCell id="_sERkGHIxASWAdoTfHKY-685" value="" style="rounded=0;whiteSpace=wrap;html=1;fontFamily=Arial;fillColor=#000000;strokeColor=none;fontStyle=2" vertex="1" parent="_sERkGHIxASWAdoTfHKY-680">
          <mxGeometry x="23.250299999999925" width="5.9055" height="1.9685" as="geometry" />
        </mxCell>
        <mxCell id="_sERkGHIxASWAdoTfHKY-686" value="" style="group;fontFamily=Arial;fontStyle=2" vertex="1" connectable="0" parent="_sERkGHIxASWAdoTfHKY-407">
          <mxGeometry x="1901.2600000000002" y="2023.23" width="20" height="20" as="geometry" />
        </mxCell>
        <mxCell id="_sERkGHIxASWAdoTfHKY-687" value="" style="rounded=0;whiteSpace=wrap;html=1;fontFamily=Arial;fontStyle=2" vertex="1" parent="_sERkGHIxASWAdoTfHKY-686">
          <mxGeometry width="20" height="20" as="geometry" />
        </mxCell>
        <mxCell id="_sERkGHIxASWAdoTfHKY-688" value="" style="rounded=0;whiteSpace=wrap;html=1;fontFamily=Arial;fillColor=#000000;strokeColor=none;fontStyle=2" vertex="1" parent="_sERkGHIxASWAdoTfHKY-686">
          <mxGeometry x="4.40729999999985" width="1.9685" height="10" as="geometry" />
        </mxCell>
        <mxCell id="_sERkGHIxASWAdoTfHKY-689" value="" style="rounded=0;whiteSpace=wrap;html=1;fontFamily=Arial;fillColor=#000000;strokeColor=none;fontStyle=2" vertex="1" parent="_sERkGHIxASWAdoTfHKY-686">
          <mxGeometry x="13.462399999999889" width="1.9685" height="10" as="geometry" />
        </mxCell>
        <mxCell id="_sERkGHIxASWAdoTfHKY-690" value="" style="rounded=0;whiteSpace=wrap;html=1;fontFamily=Arial;fillColor=#000000;strokeColor=none;fontStyle=2" vertex="1" parent="_sERkGHIxASWAdoTfHKY-686">
          <mxGeometry x="10.312799999999925" width="1.9685" height="10" as="geometry" />
        </mxCell>
        <mxCell id="_sERkGHIxASWAdoTfHKY-691" value="" style="rounded=0;whiteSpace=wrap;html=1;fontFamily=Arial;fillColor=#000000;strokeColor=none;fontStyle=2" vertex="1" parent="_sERkGHIxASWAdoTfHKY-686">
          <mxGeometry x="7.556899999999814" width="1.9685" height="10" as="geometry" />
        </mxCell>
        <mxCell id="_sERkGHIxASWAdoTfHKY-692" value="" style="shape=mxgraph.cisco.modems_and_phones.modem;sketch=0;html=1;pointerEvents=1;dashed=0;fillColor=#000000;strokeColor=#E6E6E6;strokeWidth=2;verticalLabelPosition=bottom;verticalAlign=top;align=center;outlineConnect=0;fontSize=23;fillStyle=auto;aspect=fixed;fontFamily=Arial;fontStyle=2" vertex="1" parent="_sERkGHIxASWAdoTfHKY-407">
          <mxGeometry x="640.0000000000002" y="1400" width="78.74" height="28.04" as="geometry" />
        </mxCell>
        <mxCell id="_sERkGHIxASWAdoTfHKY-695" value="" style="endArrow=none;html=1;rounded=0;" edge="1" parent="_sERkGHIxASWAdoTfHKY-407">
          <mxGeometry width="50" height="50" relative="1" as="geometry">
            <mxPoint x="680" y="1320" as="sourcePoint" />
            <mxPoint x="680" y="1398.7106781186549" as="targetPoint" />
          </mxGeometry>
        </mxCell>
        <mxCell id="_sERkGHIxASWAdoTfHKY-693" value="" style="ellipse;shape=cloud;whiteSpace=wrap;html=1;" vertex="1" parent="_sERkGHIxASWAdoTfHKY-407">
          <mxGeometry x="620" y="1270" width="120" height="80" as="geometry" />
        </mxCell>
        <mxCell id="_sERkGHIxASWAdoTfHKY-696" value="" style="shape=mxgraph.cisco.security.pix_firewall;html=1;pointerEvents=1;dashed=0;fillColor=#000000;strokeColor=#ffffff;strokeWidth=2;verticalLabelPosition=bottom;verticalAlign=top;align=center;outlineConnect=0;" vertex="1" parent="_sERkGHIxASWAdoTfHKY-407">
          <mxGeometry x="440" y="1610" width="77" height="51" as="geometry" />
        </mxCell>
        <mxCell id="_sERkGHIxASWAdoTfHKY-697" value="" style="shape=mxgraph.cisco.routers.router;sketch=0;html=1;pointerEvents=1;dashed=0;fillColor=#000000;strokeColor=#E6E6E6;strokeWidth=2;verticalLabelPosition=bottom;verticalAlign=top;align=center;outlineConnect=0;fontSize=23;fillStyle=auto;aspect=fixed;fontFamily=Arial;fontStyle=2" vertex="1" parent="_sERkGHIxASWAdoTfHKY-407">
          <mxGeometry x="640" y="1490" width="78.74" height="54.36" as="geometry" />
        </mxCell>
        <mxCell id="_sERkGHIxASWAdoTfHKY-713" style="edgeStyle=orthogonalEdgeStyle;rounded=0;orthogonalLoop=1;jettySize=auto;html=1;endArrow=none;endFill=0;" edge="1" parent="_sERkGHIxASWAdoTfHKY-407" source="_sERkGHIxASWAdoTfHKY-698">
          <mxGeometry relative="1" as="geometry">
            <mxPoint x="479.36999999999966" y="1860" as="targetPoint" />
          </mxGeometry>
        </mxCell>
        <mxCell id="_sERkGHIxASWAdoTfHKY-714" style="edgeStyle=orthogonalEdgeStyle;rounded=0;orthogonalLoop=1;jettySize=auto;html=1;endArrow=none;endFill=0;strokeWidth=3;" edge="1" parent="_sERkGHIxASWAdoTfHKY-407" source="_sERkGHIxASWAdoTfHKY-698">
          <mxGeometry relative="1" as="geometry">
            <mxPoint x="540" y="1330" as="targetPoint" />
            <Array as="points">
              <mxPoint x="381" y="1742" />
              <mxPoint x="381" y="1540" />
              <mxPoint x="540" y="1540" />
            </Array>
          </mxGeometry>
        </mxCell>
        <mxCell id="_sERkGHIxASWAdoTfHKY-717" style="edgeStyle=orthogonalEdgeStyle;rounded=0;orthogonalLoop=1;jettySize=auto;html=1;strokeWidth=3;endArrow=none;endFill=0;" edge="1" parent="_sERkGHIxASWAdoTfHKY-407" source="_sERkGHIxASWAdoTfHKY-698">
          <mxGeometry relative="1" as="geometry">
            <mxPoint x="380" y="1950" as="targetPoint" />
          </mxGeometry>
        </mxCell>
        <mxCell id="_sERkGHIxASWAdoTfHKY-698" value="" style="shape=mxgraph.cisco.switches.workgroup_switch;sketch=0;html=1;pointerEvents=1;dashed=0;fillColor=#000000;strokeColor=#E6E6E6;strokeWidth=2;verticalLabelPosition=bottom;verticalAlign=top;align=center;outlineConnect=0;fontSize=23;fillStyle=auto;aspect=fixed;fontFamily=Arial;fontStyle=2" vertex="1" parent="_sERkGHIxASWAdoTfHKY-407">
          <mxGeometry x="439.9999999999998" y="1720.0034999999998" width="78.74" height="44.44" as="geometry" />
        </mxCell>
        <mxCell id="_sERkGHIxASWAdoTfHKY-715" style="edgeStyle=orthogonalEdgeStyle;rounded=0;orthogonalLoop=1;jettySize=auto;html=1;endArrow=none;endFill=0;" edge="1" parent="_sERkGHIxASWAdoTfHKY-407" source="_sERkGHIxASWAdoTfHKY-699">
          <mxGeometry relative="1" as="geometry">
            <mxPoint x="580" y="1700" as="targetPoint" />
            <Array as="points">
              <mxPoint x="479" y="1950" />
              <mxPoint x="580" y="1950" />
            </Array>
          </mxGeometry>
        </mxCell>
        <mxCell id="_sERkGHIxASWAdoTfHKY-699" value="" style="shape=mxgraph.cisco.switches.workgroup_switch;sketch=0;html=1;pointerEvents=1;dashed=0;fillColor=#000000;strokeColor=#E6E6E6;strokeWidth=2;verticalLabelPosition=bottom;verticalAlign=top;align=center;outlineConnect=0;fontSize=23;fillStyle=auto;aspect=fixed;fontFamily=Arial;fontStyle=2" vertex="1" parent="_sERkGHIxASWAdoTfHKY-407">
          <mxGeometry x="439.9999999999998" y="1860.0034999999998" width="78.74" height="44.44" as="geometry" />
        </mxCell>
        <mxCell id="_sERkGHIxASWAdoTfHKY-700" value="" style="shape=mxgraph.cisco.computers_and_peripherals.printer;sketch=0;html=1;pointerEvents=1;dashed=0;fillColor=#000000;strokeColor=#E6E6E6;strokeWidth=2;verticalLabelPosition=bottom;verticalAlign=top;align=center;outlineConnect=0;fontSize=23;fillStyle=auto;aspect=fixed;fontFamily=Arial;fontStyle=2" vertex="1" parent="_sERkGHIxASWAdoTfHKY-407">
          <mxGeometry x="190" y="1440.0000000000002" width="78.74" height="29.88" as="geometry" />
        </mxCell>
        <mxCell id="_sERkGHIxASWAdoTfHKY-701" value="" style="shape=mxgraph.cisco.misc.access_point;html=1;pointerEvents=1;dashed=0;fillColor=#000000;strokeColor=#E6E6E6;strokeWidth=2;verticalLabelPosition=bottom;verticalAlign=top;align=center;outlineConnect=0;fillStyle=auto;fontSize=23;aspect=fixed;fontFamily=Arial;container=0;fontStyle=2" vertex="1" parent="_sERkGHIxASWAdoTfHKY-407">
          <mxGeometry x="189.99999999999977" y="1600" width="78.74" height="36.26" as="geometry" />
        </mxCell>
        <mxCell id="_sERkGHIxASWAdoTfHKY-702" value="" style="shape=mxgraph.cisco.misc.access_point;html=1;pointerEvents=1;dashed=0;fillColor=#000000;strokeColor=#E6E6E6;strokeWidth=2;verticalLabelPosition=bottom;verticalAlign=top;align=center;outlineConnect=0;fillStyle=auto;fontSize=23;aspect=fixed;fontFamily=Arial;fontStyle=2" vertex="1" parent="_sERkGHIxASWAdoTfHKY-407">
          <mxGeometry x="189.99999999999977" y="1710" width="78.74" height="36.26" as="geometry" />
        </mxCell>
        <mxCell id="_sERkGHIxASWAdoTfHKY-703" value="" style="shape=mxgraph.cisco.computers_and_peripherals.pc;sketch=0;html=1;pointerEvents=1;dashed=0;fillColor=#000000;strokeColor=#E6E6E6;strokeWidth=2;verticalLabelPosition=bottom;verticalAlign=top;align=center;outlineConnect=0;fontSize=23;fillStyle=auto;aspect=fixed;fontFamily=Arial;fontStyle=2" vertex="1" parent="_sERkGHIxASWAdoTfHKY-407">
          <mxGeometry x="619.9999999999998" y="1810" width="78.74" height="71.8" as="geometry" />
        </mxCell>
        <mxCell id="_sERkGHIxASWAdoTfHKY-704" value="" style="shape=mxgraph.cisco.computers_and_peripherals.pc;sketch=0;html=1;pointerEvents=1;dashed=0;fillColor=#000000;strokeColor=#E6E6E6;strokeWidth=2;verticalLabelPosition=bottom;verticalAlign=top;align=center;outlineConnect=0;fontSize=23;fillStyle=auto;aspect=fixed;fontFamily=Arial;fontStyle=2" vertex="1" parent="_sERkGHIxASWAdoTfHKY-407">
          <mxGeometry x="619.9999999999998" y="1680" width="78.74" height="71.8" as="geometry" />
        </mxCell>
        <mxCell id="_sERkGHIxASWAdoTfHKY-705" value="" style="fontColor=#0066CC;verticalAlign=top;verticalLabelPosition=bottom;labelPosition=center;align=center;html=1;outlineConnect=0;fillColor=#000000;strokeColor=none;gradientColor=none;gradientDirection=north;strokeWidth=2;shape=mxgraph.networks.security_camera;" vertex="1" parent="_sERkGHIxASWAdoTfHKY-407">
          <mxGeometry x="190" y="1820" width="60" height="45" as="geometry" />
        </mxCell>
        <mxCell id="_sERkGHIxASWAdoTfHKY-706" value="" style="fontColor=#0066CC;verticalAlign=top;verticalLabelPosition=bottom;labelPosition=center;align=center;html=1;outlineConnect=0;fillColor=#000000;strokeColor=none;gradientColor=none;gradientDirection=north;strokeWidth=2;shape=mxgraph.networks.security_camera;" vertex="1" parent="_sERkGHIxASWAdoTfHKY-407">
          <mxGeometry x="190" y="1930" width="60" height="45" as="geometry" />
        </mxCell>
        <mxCell id="_sERkGHIxASWAdoTfHKY-708" value="" style="sketch=0;pointerEvents=1;shadow=0;dashed=0;html=1;strokeColor=none;fillColor=#000000;labelPosition=center;verticalLabelPosition=bottom;verticalAlign=top;align=center;outlineConnect=0;shape=mxgraph.veeam2.storage;" vertex="1" parent="_sERkGHIxASWAdoTfHKY-407">
          <mxGeometry x="190" y="2040" width="80" height="21" as="geometry" />
        </mxCell>
        <mxCell id="_sERkGHIxASWAdoTfHKY-710" style="edgeStyle=orthogonalEdgeStyle;rounded=0;orthogonalLoop=1;jettySize=auto;html=1;entryX=0.5;entryY=0;entryDx=0;entryDy=0;entryPerimeter=0;endArrow=none;endFill=0;" edge="1" parent="_sERkGHIxASWAdoTfHKY-407" source="_sERkGHIxASWAdoTfHKY-692" target="_sERkGHIxASWAdoTfHKY-697">
          <mxGeometry relative="1" as="geometry" />
        </mxCell>
        <mxCell id="_sERkGHIxASWAdoTfHKY-711" style="edgeStyle=orthogonalEdgeStyle;rounded=0;orthogonalLoop=1;jettySize=auto;html=1;entryX=1;entryY=0.5;entryDx=0;entryDy=0;entryPerimeter=0;endArrow=none;endFill=0;" edge="1" parent="_sERkGHIxASWAdoTfHKY-407">
          <mxGeometry relative="1" as="geometry">
            <mxPoint x="678.3563218390806" y="1544.3600000000001" as="sourcePoint" />
            <mxPoint x="516" y="1635.5" as="targetPoint" />
            <Array as="points">
              <mxPoint x="678" y="1635" />
              <mxPoint x="516" y="1635" />
            </Array>
          </mxGeometry>
        </mxCell>
        <mxCell id="_sERkGHIxASWAdoTfHKY-712" style="edgeStyle=orthogonalEdgeStyle;rounded=0;orthogonalLoop=1;jettySize=auto;html=1;entryX=0.5;entryY=0;entryDx=0;entryDy=0;entryPerimeter=0;endArrow=none;endFill=0;" edge="1" parent="_sERkGHIxASWAdoTfHKY-407" source="_sERkGHIxASWAdoTfHKY-696" target="_sERkGHIxASWAdoTfHKY-698">
          <mxGeometry relative="1" as="geometry" />
        </mxCell>
        <mxCell id="_sERkGHIxASWAdoTfHKY-719" value="" style="shape=mxgraph.cisco.computers_and_peripherals.pc;sketch=0;html=1;pointerEvents=1;dashed=0;fillColor=#000000;strokeColor=#E6E6E6;strokeWidth=2;verticalLabelPosition=bottom;verticalAlign=top;align=center;outlineConnect=0;fontSize=23;fillStyle=auto;aspect=fixed;fontFamily=Arial;fontStyle=2" vertex="1" parent="_sERkGHIxASWAdoTfHKY-407">
          <mxGeometry x="199.99999999999977" y="1310" width="78.74" height="71.8" as="geometry" />
        </mxCell>
        <mxCell id="_sERkGHIxASWAdoTfHKY-720" value="" style="shape=mxgraph.cisco.computers_and_peripherals.pc;sketch=0;html=1;pointerEvents=1;dashed=0;fillColor=#000000;strokeColor=#E6E6E6;strokeWidth=2;verticalLabelPosition=bottom;verticalAlign=top;align=center;outlineConnect=0;fontSize=23;fillStyle=auto;aspect=fixed;fontFamily=Arial;fontStyle=2" vertex="1" parent="_sERkGHIxASWAdoTfHKY-407">
          <mxGeometry x="319.9999999999998" y="1420" width="78.74" height="71.8" as="geometry" />
        </mxCell>
        <mxCell id="_sERkGHIxASWAdoTfHKY-721" value="" style="shape=mxgraph.cisco.computers_and_peripherals.pc;sketch=0;html=1;pointerEvents=1;dashed=0;fillColor=#000000;strokeColor=#E6E6E6;strokeWidth=2;verticalLabelPosition=bottom;verticalAlign=top;align=center;outlineConnect=0;fontSize=23;fillStyle=auto;aspect=fixed;fontFamily=Arial;fontStyle=2" vertex="1" parent="_sERkGHIxASWAdoTfHKY-407">
          <mxGeometry x="329.9999999999998" y="1310" width="78.74" height="71.8" as="geometry" />
        </mxCell>
      </root>
    </mxGraphModel>
  </diagram>
</mxfile>
